<svg xmlns="http://www.w3.org/2000/svg" width="496" height="150" viewBox="0 0 496 150"><defs><style>.a{fill:#d5d2e4;}.b{fill:#a29dc5;}.c{fill:#febbce;}.d{fill:#d3d0e3;}.e{fill:#d2cfe4;}.f{fill:#fff;}.g{fill:#fe628c;}.h{fill:#221d43;}</style></defs><g transform="translate(-325.5 -796.5)"><path class="a" d="M325.5,1193.489c.054,0,.107-.007.161-.007.345.3.294.722.317,1.115.064,1.127.1,1.176,1.242,1.182,2.139.011,4.277,0,6.416,0,2.994,0,5.988,0,8.982,0a2.054,2.054,0,0,1,1.41.258c-.148.354-.464.238-.717.238q-8.906,0-17.81-.014Z" transform="translate(0 -249.801)"/><path class="b" d="M814.532,797.445q-.016-.473-.032-.945h18.554l-.023.205a2.08,2.08,0,0,1-1.492.276q-7.459.013-14.92,0A3.39,3.39,0,0,0,814.532,797.445Z" transform="translate(-309.338 0)"/><path class="b" d="M325.5,943.788v-3.337a.2.2,0,0,1,.287.08,6.391,6.391,0,0,1,0,3.178A.206.206,0,0,1,325.5,943.788Z" transform="translate(0 -90.563)"/><path class="c" d="M1674.624,1025.208a1.278,1.278,0,0,0-.168.01,2.019,2.019,0,0,1,0-2.245,1.053,1.053,0,0,0,.168.01Z" transform="translate(-853.124 -142.508)"/><path class="d" d="M325.656,938.9h-.078l-.078.014v-.927a.7.7,0,0,1,.158-.008A.594.594,0,0,1,325.656,938.9Z" transform="translate(0 -89.023)"/><path class="e" d="M325.5,949.5a.473.473,0,0,0,.156.013.594.594,0,0,1,0,.921h-.08l-.079-.009Z" transform="translate(0 -96.275)"/><path class="f" d="M1200.809,911.593a36.385,36.385,0,0,1-10.375,4.739c-14,3.66-26.494.749-37.177-9.14a37.053,37.053,0,0,1-11.929-24.327,37.994,37.994,0,0,1,10.313-30.726A37.214,37.214,0,0,1,1178.67,839.9a38.581,38.581,0,0,1,38.851,30.657,38.987,38.987,0,0,1,.89,8.26q.005,18.994.019,37.99c0,.814-.161,1.086-1.03,1.079q-7.806-.068-15.611,0c-.832.007-1.028-.242-1-1.04C1200.851,915.151,1200.809,913.454,1200.809,911.593Z" transform="translate(-515.954 -27.299)"/><path class="f" d="M325.926,872.637q0-.461,0-.922,0-1.681,0-3.363,0-.461,0-.922a38.8,38.8,0,0,1,31.261-35.694,37.591,37.591,0,0,1,27.026,4.754.85.85,0,0,0,1.284-.166c3.291-3.363,6.621-6.687,9.916-10.047.466-.475.724-.605,1.27-.046q5.575,5.712,11.235,11.337c.554.551.42.81-.049,1.278-3.308,3.3-6.575,6.647-9.9,9.936a.987.987,0,0,0-.181,1.458,39.137,39.137,0,0,1-4.974,46.32A37.6,37.6,0,0,1,365.489,909a38.667,38.667,0,0,1-38.71-30.411A41.828,41.828,0,0,1,325.926,872.637Z" transform="translate(-0.268 -18.478)"/><path class="f" d="M975.188,878.759a38.723,38.723,0,0,1-38.665,39.023c-21.654-.067-38.613-17.442-38.6-39.371a38.633,38.633,0,1,1,77.264.348Z" transform="translate(-362.111 -27.236)"/><path class="f" d="M607.682,917.833c-20.962.116-38.56-17.314-38.68-38.31-.126-22.087,16.809-39.586,38.576-39.69a39,39,0,0,1,.1,78Z" transform="translate(-154.037 -27.267)"/><path class="f" d="M1384.394,896.621c0-6.518-.165-13.042.04-19.553a37.513,37.513,0,0,1,10.135-24.678,36.824,36.824,0,0,1,22.09-12.028c12.673-1.946,23.823,1.5,33.142,10.449a38.071,38.071,0,0,1,11.506,23.3,43.529,43.529,0,0,1,.273,5.546q-.011,18.537.016,37.074c0,.872-.177,1.136-1.088,1.128-5.2-.049-10.409-.04-15.614-.007-.76.005-.97-.2-.969-.974.023-12.512-.139-25.028.069-37.537a20.612,20.612,0,0,0-41.195-1.35c-.038.677-.01,1.358-.01,2.038q0,18.351.021,36.7c0,.869-.248,1.045-1.059,1.04q-8.174-.055-16.349,0c-.808.006-1.068-.163-1.063-1.037.041-6.7.023-13.409.023-20.113Z" transform="translate(-669.809 -27.269)"/><path class="f" d="M814.54,797.726c.1-.462.22-.783.857-.778,5.88.04,11.761.032,17.642.039.007.339.021.679.021,1.018q0,45.825.026,91.65c0,.963-.26,1.139-1.152,1.132q-8.127-.066-16.254,0c-.882.007-1.167-.15-1.166-1.132Q814.561,843.69,814.54,797.726Z" transform="translate(-309.346 -0.282)"/><path class="f" d="M344.229,1134.336c-.3.027-.6.078-.907.078-5.521,0-11.041-.009-16.562.017-.692,0-1.014-.146-.928-.908a17.354,17.354,0,0,0,.03-1.75,38.733,38.733,0,0,1,31.674-35.694c12.414-2.176,23.515.994,32.887,9.531,8.083,7.363,12.2,16.706,12.659,27.7.038.921-.179,1.183-1.128,1.173-5.2-.053-10.4-.038-15.607-.01-.711,0-.924-.177-.926-.921a20.607,20.607,0,0,0-17.093-20.772c-10.713-2.071-21.747,5.565-23.718,16.4A25.085,25.085,0,0,0,344.229,1134.336Z" transform="translate(-0.202 -188.093)"/><path class="g" d="M1645.01,1009.877v2.245a8.762,8.762,0,1,1-8.843-9.959A8.63,8.63,0,0,1,1645.01,1009.877Z" transform="translate(-823.679 -129.412)"/><path class="h" d="M1232.516,910.94c.463,10.629-8.936,21.7-22.124,20.722a20.843,20.843,0,1,1,22.124-20.722Z" transform="translate(-547.656 -58.852)"/><path class="h" d="M417.128,910.87a20.607,20.607,0,1,1-20.6-20.87A20.643,20.643,0,0,1,417.128,910.87Z" transform="translate(-31.893 -58.835)"/><path class="h" d="M968.606,931.708a20.856,20.856,0,1,1,20.726-20.786A20.776,20.776,0,0,1,968.606,931.708Z" transform="translate(-393.788 -58.834)"/><path class="h" d="M660.422,910.852A20.666,20.666,0,1,1,639.771,890,20.713,20.713,0,0,1,660.422,910.852Z" transform="translate(-185.724 -58.834)"/></g></svg>