<svg xmlns="http://www.w3.org/2000/svg" xmlns:xlink="http://www.w3.org/1999/xlink" width="204.993" height="268.649" viewBox="0 0 204.993 268.649"><defs><style>.a,.b,.n,.p,.t{fill:none;}.b{stroke:#d6e3f8;stroke-width:4px;}.b,.n,.p,.t{stroke-linecap:round;stroke-miterlimit:10;}.b,.n,.p{stroke-linejoin:round;}.c{fill:#fff;}.d{fill:#c7bffe;}.e{fill:#e2defc;}.f{fill:rgba(71,61,142,0.9);}.g{fill:#473d8e;}.h{fill:rgba(71,61,142,0.89);}.i{clip-path:url(#a);}.j{fill:#a094f5;}.k{fill:#aa9ff0;}.l{fill:#a397f9;}.m{fill:#aba1f1;}.n{stroke:#000;}.o{fill:#c18a6f;}.p{stroke:#a0614b;}.q{fill:#ff628d;}.r{fill:#111;}.s{fill:#a0614b;}.t{stroke:#f3edf7;}</style><clipPath id="a"><path class="a" d="M0,0H91.333V91.333H0Z"/></clipPath></defs><g transform="translate(-18.622)"><path class="b" d="M0,.5H22.01" transform="translate(24.666 108.341)"/><path class="c" d="M3.7,1.85A1.85,1.85,0,1,0,1.849,3.7,1.85,1.85,0,0,0,3.7,1.85" transform="translate(62.91 69.851)"/><g transform="translate(89.175 0)"><path class="a" d="M0,0H60.191V32.089H0Z" transform="translate(0)"/></g><path class="d" d="M101.625,241.409H15.682A15.683,15.683,0,0,1,0,225.726V15.682A15.683,15.683,0,0,1,15.682,0h85.942a15.683,15.683,0,0,1,15.682,15.682V225.726a15.683,15.683,0,0,1-15.682,15.682" transform="translate(106.308 27.241)"/><path class="e" d="M96.372,0H83.814A.917.917,0,0,0,82.9.916V2.306a6.481,6.481,0,0,1-6.482,6.481H30.387a6.481,6.481,0,0,1-6.481-6.482V.916A.917.917,0,0,0,22.989,0H10.43A10.43,10.43,0,0,0,0,10.43V220.474a10.431,10.431,0,0,0,10.43,10.431H96.373a10.431,10.431,0,0,0,10.43-10.431V10.43A10.431,10.431,0,0,0,96.372,0" transform="translate(111.56 32.492)"/><path class="f" d="M106.8,85.284V10.431A10.431,10.431,0,0,0,96.372,0H83.814A.917.917,0,0,0,82.9.917V2.306a6.481,6.481,0,0,1-6.481,6.481H30.387a6.481,6.481,0,0,1-6.482-6.482V.917A.917.917,0,0,0,22.989,0H10.43A10.431,10.431,0,0,0,0,10.431V85.284Z" transform="translate(111.56 32.492)"/><path class="g" d="M98.673.263A10.444,10.444,0,0,0,96.372,0H83.814A.917.917,0,0,0,82.9.917V2.306a6.482,6.482,0,0,1-6.482,6.481H30.387a6.481,6.481,0,0,1-6.482-6.482V.917A.917.917,0,0,0,22.989,0H10.43A10.431,10.431,0,0,0,0,10.431V85.284H13.652L98.673.263" transform="translate(111.56 32.492)"/><path class="h" d="M84.872,35.258V6.58A6.58,6.58,0,0,0,78.293,0H6.579A6.58,6.58,0,0,0,0,6.58V35.258Z" transform="translate(122.525 228.14)"/><path class="b" d="M0,.5H61.192" transform="translate(134.366 182.583)"/><path class="b" d="M0,.5H61.192" transform="translate(134.366 193.645)"/><g transform="translate(132.282 177.316)"><path class="a" d="M0,0H91.333V91.333H0Z" transform="translate(0 0)"/><g class="i" transform="translate(0 0)"><path class="j" d="M91.333,0,86.081,5.252v70.4a10.431,10.431,0,0,1-10.43,10.431H5.252L0,91.333H75.651A15.643,15.643,0,0,0,87.259,86.2q.252-.279.492-.57.48-.581.9-1.207t.785-1.293a15.61,15.61,0,0,0,1.893-7.475Z"/></g></g><path class="k" d="M34.607,27.826a6.579,6.579,0,0,1-6.579,6.579H11.166L0,45.572H28.027a6.579,6.579,0,0,1,6.579,6.579V80.829h.535A10.431,10.431,0,0,0,45.572,70.4V0L34.607,10.965Z" transform="translate(172.791 182.568)"/><path class="g" d="M63.284,0H35.257L0,35.258H69.864V6.579A6.579,6.579,0,0,0,63.284,0" transform="translate(137.534 228.14)"/><path class="l" d="M5.251,0H0V72.562l5.251-5.251Z" transform="translate(106.308 172.091)"/><path class="m" d="M22.428,44.883H17.546a6.58,6.58,0,0,1-6.58-6.579V0H0V67.31Z" transform="translate(111.559 172.091)"/><path class="n" d="M2.891,1.446A1.446,1.446,0,1,0,1.446,2.891,1.446,1.446,0,0,0,2.891,1.446Z" transform="translate(163.515 33.68)"/><path class="o" d="M41.46,1.444a6.469,6.469,0,0,0-9.1.951L18.035,20.985l-6.011-6.058a65.043,65.043,0,0,1-10.757,10.6c-.419.342-.845.673-1.268,1.009,0,0,12.6,13.675,14.168,14.631a8.864,8.864,0,0,0,12.18-2.964L43.082,7.925c1.661-2.723.924-4.416-1.623-6.481" transform="translate(96.632 56.371)"/><path class="o" d="M32.214,5.906c.595-.738-.176-1.871-2.322-2.2A57.951,57.951,0,0,0,19.13,3.169c.317-.1.613-.188.869-.26,2.043-.576-.037-3.417-3.453-2.829C13.86.541,9.528,1.255,9.528,1.255,6.136,1.142,1.323,2.426.193,8.012s2.872,5.959,7.559,5.923c1.4-.011,2.563.043,3.692-.015h0l.022,0c1.055-.054,8.094-.642,8.094-.642a8.386,8.386,0,0,0,1.094-.161c1.347-.293,4.85-1.069,6.68-1.62a1.688,1.688,0,0,0,.906-.621c.8-.085,1.478-.159,1.928-.211,1.038-.119,1.3-.868.944-1.582.478-.045.9-.093,1.237-.143,2-.3,1.791-2.317-.134-3.034" transform="translate(127.258 53.515)"/><path class="p" d="M0,0A18.018,18.018,0,0,0,7.115.939" transform="translate(139.272 55.746)"/><path class="p" d="M.363,0S.8,4.4.243,6.225" transform="translate(146.022 57.577)"/><path class="p" d="M10.633.712C7.018.372,0,0,0,0" transform="translate(146.466 58.275)"/><path class="p" d="M9.073.565,0,0" transform="translate(146.696 60.654)"/><path class="p" d="M6.962.064A32.649,32.649,0,0,1,0,.486" transform="translate(146.695 62.236)"/><path class="p" d="M0,.5H4.337" transform="translate(132.985 67.025)"/><path class="q" d="M37.376,24.146l-2.319-2.812a1,1,0,0,0-1.125-.232L17.126,2.857A10.091,10.091,0,0,0,3.056,17.324L19.633,33.5a.993.993,0,0,0,.185,1.177l8.242,7.978a1,1,0,0,0,1.413-.028l7.9-17.112a1,1,0,0,0,.007-1.369" transform="translate(77.321 51.937)"/><path class="n" d="M13.7,0,0,11.382" transform="translate(97.184 73.762)"/><path class="o" d="M3.759,46.3,6.047,7.69a8.779,8.779,0,0,1,17.49,1.045L19.03,49.441c-.024.256-9.119,32.647-9.119,32.647-1.227,3.241-3.744,4.919-6.985,3.692C.275,84.776-.149,82.289.038,79.6Z" transform="translate(20.151 56.961)"/><path class="o" d="M13.7,13.351a1.532,1.532,0,0,0-.417.114c.47-3.976.235-5.731-1.206-8.39C10.174,1.566,2.233-3.1,1.567,2.859c0,0-.779,7.014-1.238,11.606v0c-.174,1.742-.3,3.138-.324,3.666,0,.007,0,.015,0,.022L0,18.241A1.558,1.558,0,0,0,.62,19.548l7.132,5.384a1.559,1.559,0,0,0,1.879,0l4.993-3.774a1.56,1.56,0,0,0,.617-1.18l.2-5.015A1.559,1.559,0,0,0,13.7,13.351" transform="translate(18.622 133.7)"/><path class="p" d="M0,0,.4,4.664,3,13.394a.968.968,0,0,0,1.514.5,3.284,3.284,0,0,0,1.13-2.479,61.207,61.207,0,0,0,.077-6.291A3.619,3.619,0,0,0,7.5,2.824" transform="translate(24.269 144.215)"/><path class="q" d="M13.662.049h0A10.091,10.091,0,0,0,2.638,9.11L1.246,36.134a1,1,0,0,0-.743.913L0,46.782A1,1,0,0,0,.89,47.824L18.514,49.7a1,1,0,0,0,1.1-.892L20.754,37.4a1,1,0,0,0-.567-1l2.536-25.326A10.09,10.09,0,0,0,13.662.049" transform="translate(22.77 55.745)"/><path class="n" d="M0,.411l9.743.1" transform="translate(24.006 91.382)"/><path class="o" d="M0,7.086v6.262a6.542,6.542,0,0,0,4.105,6.325c3.88,1.494,9.47.148,8.806-6a56.306,56.306,0,0,1-.394-7.4A6.057,6.057,0,0,0,6.686,0C3.383-.08,0,1.53,0,7.086" transform="translate(44.348 238.999)"/><path class="o" d="M.032,6.6c.384,5.462.617,6.849.617,8.772,0,5.77,14.227,5.249,12.725-3.112-.47-2.613-.738-4.39-.879-5.675A7.274,7.274,0,0,0,4.606.041C1.934.334-.3,1.931.032,6.6" transform="translate(76.473 240.333)"/><path class="r" d="M1.684,130.5c1.094,8.2,3.375,22.024,4.586,29.226H23.139L25.4,53.249l6.625,47.822c-3.572,18.529,3.746,48.193,6.9,58.652H55.161L53.916,96.94,48.489,31.8C42.646-14.584.891-4.466,1.055,25.5A219.531,219.531,0,0,0,.222,56.867L2.42,98.3S.155,119.03,1.684,130.5" transform="translate(35.671 88.161)"/><path class="q" d="M62.155,8.942A45.839,45.839,0,0,0,49.475,6.025C47.045,2.516,40.475,0,32.747,0,23.859,0,16.5,3.327,15.211,7.667A111.107,111.107,0,0,0,1.259,13.148,2.05,2.05,0,0,0,.038,15.435C4.44,38,6.944,57.75,5.369,72.766a4.022,4.022,0,0,0,2.858,4.281,146.249,146.249,0,0,0,46.926,5.875c1.939-.071,2.285-1.845,2.565-3.764L63.4,13.909c.309-1.634.294-4.331-1.242-4.967" transform="translate(29.192 43.853)"/><path class="n" d="M0,0,3.307,36.449" transform="translate(31.877 68.637)"/><path class="g" d="M2.006,1.446C.059,2,0,10.039,0,16.87a1.624,1.624,0,0,0,1.626,1.624H32a1.623,1.623,0,0,0,1.617-1.808c-.238-2.035-1.15-5.249-4.441-6.715-5.014-2.233-8.346-4.524-9.83-7.662-1.561-3.3-7.172-2.754-8.3-.284C9.062.747,8.1,2.79,5.73,2.79S3.283,1.081,2.006,1.446" transform="translate(74.075 249.548)"/><path class="n" d="M0,.513C3.073,2.892,9.725,1.331,11.229,0A26,26,0,0,0,22.394,7.462a7.139,7.139,0,0,0-1.1,3.129" transform="translate(74.444 254.878)"/><path class="n" d="M0,3.8A9.811,9.811,0,0,1,4.331,0" transform="translate(96.838 258.538)"/><path class="n" d="M33.5.5H0" transform="translate(74.075 264.969)"/><path class="n" d="M0,12.164,1.307,0" transform="translate(90.593 67.125)"/><path class="n" d="M.166,0C-1.152,5.186,5.824,7.889,5.824,7.889" transform="translate(44.356 51.312)"/><path class="n" d="M5.659,0C6.976,5.186,0,7.889,0,7.889" transform="translate(73.412 50.8)"/><path class="o" d="M7.917,27.641h0a9.051,9.051,0,0,0,10.195-7.688l.554-17.81L2.128,0,.055,17.9a8.731,8.731,0,0,0,7.862,9.741" transform="translate(53.762 31.293)"/><path class="s" d="M15.284,1.969l-.413,14.31c-6.42.271-9.992-2.532-13-7.449A14.107,14.107,0,0,1,.089,0Z" transform="translate(57.145 31.467)"/><path d="M0,12.887A12.6,12.6,0,0,1,13,0c7.178,0,13.556,5.131,13,12.887-.553,7.649-9.382,21.158-16.56,21.158C5.5,31.072,0,23.291,0,12.887" transform="translate(54.057 8.435)"/><path class="o" d="M23.948,12.795l-.841,12.49A9.873,9.873,0,0,1,3.733,27.227L.429,15.153a11.985,11.985,0,1,1,23.12-6.329,12.254,12.254,0,0,1,.4,3.971" transform="translate(56.078 9.911)"/><path d="M1.3.071A3.791,3.791,0,0,1,2.458.022a4.741,4.741,0,0,1,1.21.284A4.34,4.34,0,0,1,4.2.552L4.4.662c.064.038.121.084.233.144a1.839,1.839,0,0,1,.874,1.2l.085.362a.409.409,0,0,1-.66.408,1.4,1.4,0,0,0-.34-.19,2.148,2.148,0,0,0-.44-.136L3.6,2.336c-.187-.039-.351-.074-.51-.1a7.952,7.952,0,0,0-.975-.074c-.338-.015-.689.013-1.039.031A1.022,1.022,0,0,1,.81.175Z" transform="translate(74.097 22.702)"/><path d="M5.7,2.137l-1.379.048-1.344.056c-.44.023-.887.039-1.286.093a3.046,3.046,0,0,0-.567.134,1.664,1.664,0,0,0-.451.225.409.409,0,0,1-.657-.419l.1-.362A1.944,1.944,0,0,1,1.292.593,9.491,9.491,0,0,1,2.687.218,10.913,10.913,0,0,1,4.022.032a7.246,7.246,0,0,1,1.324,0l.413.039A1.037,1.037,0,0,1,5.7,2.137" transform="translate(62.687 22.754)"/><path class="r" d="M0,.931A.931.931,0,1,0,.931,0,.931.931,0,0,0,0,.931" transform="translate(66.186 26.002)"/><path class="r" d="M0,.931A.931.931,0,1,0,.931,0,.931.931,0,0,0,0,.931" transform="translate(76.01 25.948)"/><path d="M2.841,4.244h.01A11.945,11.945,0,0,1,6.242,1.47l.056-.03A11.924,11.924,0,0,1,7.85.741C7.908.72,7.966.7,8.024.679c.262-.092.527-.178.8-.253h0c.232-.064.466-.118.7-.168l.209-.04q.255-.049.509-.087c.071-.011.143-.021.215-.03.192-.025.385-.046.577-.061l.118-.011Q11.517,0,11.879,0h.045q.337,0,.671.015l.111.007c.222.013.443.032.662.058l.038,0A12.046,12.046,0,0,1,20.023,3.1h.01a26.807,26.807,0,0,1,2.233,2.008c-1.378,1.027-3.034,1.373-6.589,1.737-2.558.262-6.835.248-9.134-.517-2.39,3.233.035,7.029-2.656,9,1.255,6.86,5.357,8.163,12.125,8.163,4.671,0,6.488-.954,7.515-4.468l-.421,6.257a9.863,9.863,0,0,1-10.513,9.186c-.269-.018-.535-.047-.8-.086s-.52-.088-.774-.147a9.776,9.776,0,0,1-2.171-.783q-.34-.171-.665-.366a9.947,9.947,0,0,1-4.452-5.861l-1.85-6.76L.428,15.152A11.97,11.97,0,0,1,2.841,4.244" transform="translate(56.079 9.913)"/><path class="o" d="M4.989,6.864A1.436,1.436,0,0,1,3.064,8.126,4.238,4.238,0,0,1,.006,4.006C.141,1.692,1.7-.1,3.479,0s1.51,6.859,1.51,6.859" transform="translate(52.889 24.639)"/><path class="o" d="M4.683.185c2.091,0,4.683-.852,4.683,1.1A3.07,3.07,0,0,1,8.322,3.528a1.711,1.711,0,0,1-2.855-1.2V2.3c0-.007,0-.013,0-.02S3.9,2.295,3.9,2.3s0,.017,0,.026a1.71,1.71,0,0,1-2.854,1.2A3.071,3.071,0,0,1,0,1.285C0-.667,2.592.185,4.683.185" transform="translate(66.951 35.376)"/><path class="o" d="M.5.5Z" transform="translate(65.741 40.064)"/><path class="p" d="M3.791.13A4.579,4.579,0,0,1,0,.127" transform="translate(70.294 32.318)"/><path d="M4.183.641A14,14,0,0,0,8.366,0,4.842,4.842,0,0,1,4.183,2.156,4.841,4.841,0,0,1,0,0,14,14,0,0,0,4.183.641" transform="translate(67.552 34.862)"/><path class="c" d="M0,0A13.946,13.946,0,0,0,3.216.377,13.952,13.952,0,0,0,6.433,0,5.165,5.165,0,0,1,3.216,1.083,5.163,5.163,0,0,1,0,0" transform="translate(68.519 35.126)"/><path class="g" d="M20.957,1.71c.5.343.562,1.445.856,2.726.687,3,2.562,7.532,2.552,12.333a1.576,1.576,0,0,1-1.587,1.553H1.588A1.578,1.578,0,0,1,0,16.768a12.066,12.066,0,0,1,2.232-6.521,50.909,50.909,0,0,0,4.4-7.706C8.117-.915,15.06-.339,18.018,1.289a3.646,3.646,0,0,0,2.446.269.663.663,0,0,1,.493.152" transform="translate(36.27 249.557)"/><path class="n" d="M24.316.5H0" transform="translate(36.319 264.807)"/><path class="n" d="M0,8.713C0,3.9,4.115,0,9.875,0S20.3,3.9,20.3,8.713" transform="translate(36.562 256.594)"/><path class="n" d="M0,7.739C1.442,7.148,2.37,2.71,2.072,0" transform="translate(56.062 254.211)"/><path class="t" d="M0,15.676.157,1.569,6.037,0" transform="translate(60.914 132.942)"/></g></svg>