<svg xmlns="http://www.w3.org/2000/svg" xmlns:xlink="http://www.w3.org/1999/xlink" width="249.929" height="278.784" viewBox="0 0 249.929 278.784"><defs><style>.a,.d,.p,.r,.v{fill:none;}.b,.w{fill:#a84dff;}.c{fill:url(#a);}.d{stroke:#d6e3f8;stroke-width:4px;}.d,.p,.r,.v{stroke-linecap:round;stroke-miterlimit:10;}.d,.p,.r{stroke-linejoin:round;}.aa,.ab,.e,.z{fill:#fff;}.f{fill:#c7bffe;}.g{fill:#e2defc;}.h{fill:rgba(71,61,142,0.9);}.i{fill:#473d8e;}.j{fill:rgba(71,61,142,0.89);}.k{clip-path:url(#b);}.l{fill:#a094f5;}.m{fill:#aa9ff0;}.n{fill:#a397f9;}.o{fill:#aba1f1;}.p{stroke:#000;}.q{fill:#c18a6f;}.r{stroke:#a0614b;}.s{fill:#ff628d;}.t{fill:#111;}.u{fill:#a0614b;}.v{stroke:#f3edf7;}.ai,.an,.w{opacity:0.3;}.x{clip-path:url(#c);}.y{fill:#311f5b;}.am,.z{opacity:0.1;}.aa,.ab{font-size:1px;font-family:SegoeUI, Segoe UI;}.aa{letter-spacing:0.154em;}.ac{fill:#d5d2e4;}.ad{fill:#a29dc5;}.ae{fill:#febbce;}.af{fill:#d3d0e3;}.ag{fill:#d2cfe4;}.ah{fill:#fe628c;}.ai{fill:#e85db7;}.aj{fill:url(#d);}.ak{clip-path:url(#e);}.al{fill:#d8d8d8;opacity:0.057;}.am,.an{fill:url(#f);}.ao{fill:url(#h);}</style><linearGradient id="a" x1="0.5" x2="0.5" y2="1" gradientUnits="objectBoundingBox"><stop offset="0" stop-color="#412c8d"/><stop offset="1" stop-color="#995be3"/></linearGradient><clipPath id="b"><path class="a" d="M0,0H91.333V91.333H0Z"/></clipPath><clipPath id="c"><rect class="b" width="89.388" height="56.441" rx="18"/></clipPath><linearGradient id="d" x1="0.5" x2="0.5" y2="1" gradientUnits="objectBoundingBox"><stop offset="0" stop-color="#473d8e"/><stop offset="1" stop-color="#995be3"/></linearGradient><clipPath id="e"><rect class="c" width="100.358" height="63.368" rx="18"/></clipPath><linearGradient id="f" x1="0.5" x2="0.5" y2="1" gradientUnits="objectBoundingBox"><stop offset="0" stop-color="#fd5cb7"/><stop offset="1" stop-color="#ac5fb5"/></linearGradient><linearGradient id="h" x1="0.5" x2="0.5" y2="1" gradientUnits="objectBoundingBox"><stop offset="0" stop-color="#ff628d"/><stop offset="1" stop-color="#b642c4"/></linearGradient></defs><g transform="translate(-885.318 -1337.482)"><g transform="translate(885.318 1337.482)"><g transform="translate(0 0)"><path class="d" d="M0,.5H22.01" transform="translate(6.044 108.341)"/><path class="e" d="M3.7,1.85A1.85,1.85,0,1,0,1.849,3.7,1.85,1.85,0,0,0,3.7,1.85" transform="translate(44.288 69.851)"/><g transform="translate(70.553)"><path class="a" d="M0,0H60.191V32.089H0Z" transform="translate(0)"/></g><path class="f" d="M101.625,241.409H15.682A15.683,15.683,0,0,1,0,225.726V15.682A15.683,15.683,0,0,1,15.682,0h85.942a15.683,15.683,0,0,1,15.682,15.682V225.726a15.683,15.683,0,0,1-15.682,15.683" transform="translate(87.686 27.241)"/><path class="g" d="M96.372,0H83.814A.917.917,0,0,0,82.9.916V2.306a6.481,6.481,0,0,1-6.482,6.481H30.387a6.481,6.481,0,0,1-6.481-6.482V.916A.917.917,0,0,0,22.989,0H10.43A10.43,10.43,0,0,0,0,10.43V220.474a10.431,10.431,0,0,0,10.43,10.431H96.373a10.431,10.431,0,0,0,10.43-10.431V10.43A10.431,10.431,0,0,0,96.372,0" transform="translate(92.938 32.492)"/><path class="h" d="M106.8,85.284V10.431A10.431,10.431,0,0,0,96.372,0H83.814A.917.917,0,0,0,82.9.917V2.306a6.481,6.481,0,0,1-6.481,6.481H30.387a6.481,6.481,0,0,1-6.482-6.482V.917A.917.917,0,0,0,22.989,0H10.43A10.431,10.431,0,0,0,0,10.431V85.284Z" transform="translate(92.938 32.492)"/><path class="i" d="M98.673.263A10.444,10.444,0,0,0,96.372,0H83.814A.917.917,0,0,0,82.9.917V2.306a6.482,6.482,0,0,1-6.482,6.481H30.387a6.481,6.481,0,0,1-6.482-6.482V.917A.917.917,0,0,0,22.989,0H10.43A10.431,10.431,0,0,0,0,10.431V85.284H13.652L98.673.263" transform="translate(92.938 32.492)"/><path class="j" d="M84.872,35.258V6.58A6.58,6.58,0,0,0,78.293,0H6.579A6.58,6.58,0,0,0,0,6.58V35.258Z" transform="translate(103.903 228.14)"/><path class="d" d="M0,.5H61.192" transform="translate(115.744 182.583)"/><path class="d" d="M0,.5H61.192" transform="translate(115.744 193.645)"/><g transform="translate(113.66 177.316)"><path class="a" d="M0,0H91.333V91.333H0Z" transform="translate(0 0)"/><g class="k" transform="translate(0 0)"><path class="l" d="M91.333,0,86.081,5.252v70.4a10.431,10.431,0,0,1-10.43,10.431H5.252L0,91.333H75.651A15.643,15.643,0,0,0,87.26,86.2q.252-.279.492-.57.48-.581.9-1.207t.785-1.293a15.61,15.61,0,0,0,1.893-7.475Z"/></g></g><path class="m" d="M34.607,27.826a6.579,6.579,0,0,1-6.579,6.579H11.166L0,45.572H28.027a6.579,6.579,0,0,1,6.579,6.579V80.829h.535A10.431,10.431,0,0,0,45.572,70.4V0L34.607,10.965Z" transform="translate(154.169 182.568)"/><path class="i" d="M63.284,0H35.257L0,35.258H69.864V6.579A6.579,6.579,0,0,0,63.284,0" transform="translate(118.912 228.14)"/><path class="n" d="M5.251,0H0V72.562l5.251-5.251Z" transform="translate(87.686 172.091)"/><path class="o" d="M22.428,44.883H17.546a6.58,6.58,0,0,1-6.58-6.579V0H0V67.31Z" transform="translate(92.937 172.091)"/><path class="p" d="M2.891,1.446A1.446,1.446,0,1,0,1.446,2.891,1.446,1.446,0,0,0,2.891,1.446Z" transform="translate(144.893 33.68)"/><path class="q" d="M41.46,1.444a6.469,6.469,0,0,0-9.1.951L18.035,20.985l-6.011-6.058a65.043,65.043,0,0,1-10.757,10.6c-.419.342-.845.673-1.268,1.009,0,0,12.6,13.675,14.168,14.631a8.864,8.864,0,0,0,12.18-2.964L43.082,7.925c1.661-2.723.924-4.416-1.623-6.481" transform="translate(78.01 56.371)"/><path class="q" d="M32.214,5.906c.595-.738-.176-1.871-2.322-2.2A57.951,57.951,0,0,0,19.13,3.169c.317-.1.613-.188.869-.26,2.043-.576-.037-3.417-3.453-2.829C13.86.541,9.528,1.255,9.528,1.255,6.136,1.142,1.323,2.426.193,8.012s2.872,5.959,7.559,5.923c1.4-.011,2.563.043,3.692-.015h0l.022,0c1.055-.054,8.094-.642,8.094-.642a8.386,8.386,0,0,0,1.094-.161c1.347-.293,4.85-1.069,6.68-1.62a1.689,1.689,0,0,0,.906-.621c.8-.085,1.478-.159,1.928-.211,1.038-.119,1.3-.868.944-1.582.478-.045.9-.093,1.237-.143,2-.3,1.791-2.317-.134-3.034" transform="translate(108.636 53.515)"/><path class="r" d="M0,0A18.018,18.018,0,0,0,7.115.939" transform="translate(120.649 55.746)"/><path class="r" d="M.363,0S.8,4.4.243,6.225" transform="translate(127.4 57.577)"/><path class="r" d="M10.633.712C7.018.372,0,0,0,0" transform="translate(127.844 58.275)"/><path class="r" d="M9.073.565,0,0" transform="translate(128.074 60.654)"/><path class="r" d="M6.962.064A32.649,32.649,0,0,1,0,.486" transform="translate(128.073 62.236)"/><path class="r" d="M0,.5H4.337" transform="translate(114.363 67.025)"/><path class="s" d="M37.376,24.146l-2.319-2.812a1,1,0,0,0-1.125-.232L17.126,2.857A10.091,10.091,0,0,0,3.056,17.324L19.633,33.5a.993.993,0,0,0,.185,1.177l8.242,7.978a1,1,0,0,0,1.413-.028l7.9-17.112a1,1,0,0,0,.007-1.369" transform="translate(58.699 51.937)"/><path class="p" d="M13.7,0,0,11.382" transform="translate(78.562 73.762)"/><path class="q" d="M3.759,46.3,6.047,7.69a8.779,8.779,0,0,1,17.49,1.045L19.031,49.441c-.024.256-9.119,32.647-9.119,32.647-1.227,3.241-3.744,4.919-6.985,3.692C.275,84.777-.149,82.289.038,79.6Z" transform="translate(1.529 56.961)"/><path class="q" d="M13.7,13.351a1.532,1.532,0,0,0-.417.114c.47-3.976.235-5.731-1.206-8.39C10.174,1.566,2.233-3.1,1.567,2.859c0,0-.779,7.014-1.238,11.606v0c-.174,1.742-.3,3.138-.324,3.666,0,.007,0,.015,0,.022L0,18.241A1.558,1.558,0,0,0,.62,19.548l7.132,5.384a1.559,1.559,0,0,0,1.879,0l4.993-3.774a1.56,1.56,0,0,0,.617-1.18l.2-5.015A1.559,1.559,0,0,0,13.7,13.351" transform="translate(0 133.7)"/><path class="r" d="M0,0,.4,4.664,3,13.394a.968.968,0,0,0,1.514.5,3.284,3.284,0,0,0,1.13-2.479,61.207,61.207,0,0,0,.077-6.291A3.619,3.619,0,0,0,7.5,2.824" transform="translate(5.647 144.215)"/><path class="s" d="M13.662.049h0A10.091,10.091,0,0,0,2.638,9.11L1.246,36.134a1,1,0,0,0-.743.913L0,46.782A1,1,0,0,0,.89,47.824L18.514,49.7a1,1,0,0,0,1.1-.892L20.754,37.4a1,1,0,0,0-.567-1l2.536-25.327A10.09,10.09,0,0,0,13.662.049" transform="translate(4.148 55.745)"/><path class="p" d="M0,.411l9.743.1" transform="translate(5.384 91.382)"/><path class="q" d="M0,7.086v6.262a6.542,6.542,0,0,0,4.105,6.325c3.88,1.494,9.47.148,8.806-6a56.306,56.306,0,0,1-.394-7.4A6.057,6.057,0,0,0,6.686,0C3.383-.08,0,1.53,0,7.086" transform="translate(25.725 238.999)"/><path class="q" d="M.032,6.6c.384,5.462.617,6.849.617,8.772,0,5.77,14.227,5.249,12.725-3.112-.47-2.613-.738-4.39-.879-5.675A7.274,7.274,0,0,0,4.606.041C1.934.334-.3,1.931.032,6.6" transform="translate(57.851 240.333)"/><path class="t" d="M1.684,130.5c1.094,8.2,3.375,22.024,4.586,29.226H23.139L25.4,53.249l6.625,47.822c-3.572,18.529,3.746,48.193,6.9,58.652H55.161L53.916,96.94,48.489,31.8C42.646-14.584.891-4.466,1.055,25.5A219.531,219.531,0,0,0,.222,56.867L2.42,98.3S.155,119.03,1.684,130.5" transform="translate(17.049 88.161)"/><path class="s" d="M62.155,8.942A45.839,45.839,0,0,0,49.476,6.025C47.045,2.516,40.475,0,32.747,0,23.859,0,16.5,3.327,15.211,7.667A111.107,111.107,0,0,0,1.259,13.148,2.05,2.05,0,0,0,.038,15.435C4.44,38,6.944,57.75,5.369,72.766a4.022,4.022,0,0,0,2.858,4.281,146.249,146.249,0,0,0,46.926,5.875c1.939-.071,2.285-1.845,2.565-3.764L63.4,13.909c.309-1.634.294-4.331-1.242-4.967" transform="translate(10.57 43.853)"/><path class="p" d="M0,0,3.307,36.449" transform="translate(13.255 68.637)"/><path class="i" d="M2.006,1.446C.059,2,0,10.039,0,16.87a1.624,1.624,0,0,0,1.626,1.624H32a1.623,1.623,0,0,0,1.617-1.808c-.238-2.035-1.15-5.249-4.441-6.715-5.014-2.233-8.346-4.524-9.83-7.662-1.561-3.3-7.172-2.754-8.3-.284C9.062.747,8.1,2.79,5.73,2.79S3.283,1.081,2.006,1.446" transform="translate(55.453 249.548)"/><path class="p" d="M0,.513C3.073,2.892,9.725,1.331,11.229,0A26,26,0,0,0,22.394,7.462a7.139,7.139,0,0,0-1.1,3.129" transform="translate(55.822 254.878)"/><path class="p" d="M0,3.8A9.811,9.811,0,0,1,4.331,0" transform="translate(78.216 258.538)"/><path class="p" d="M33.5.5H0" transform="translate(55.453 264.969)"/><path class="p" d="M0,12.164,1.307,0" transform="translate(71.971 67.125)"/><path class="p" d="M.166,0C-1.152,5.186,5.824,7.889,5.824,7.889" transform="translate(25.734 51.312)"/><path class="p" d="M5.659,0C6.976,5.186,0,7.889,0,7.889" transform="translate(54.79 50.8)"/><path class="q" d="M7.917,27.641h0a9.051,9.051,0,0,0,10.195-7.688l.554-17.81L2.128,0,.055,17.9a8.731,8.731,0,0,0,7.862,9.741" transform="translate(35.14 31.293)"/><path class="u" d="M15.284,1.969l-.413,14.31c-6.42.271-9.992-2.532-13-7.449A14.107,14.107,0,0,1,.089,0Z" transform="translate(38.523 31.467)"/><path d="M0,12.887A12.6,12.6,0,0,1,13,0c7.178,0,13.556,5.131,13,12.887-.553,7.649-9.382,21.158-16.56,21.158C5.5,31.072,0,23.291,0,12.887" transform="translate(35.435 8.435)"/><path class="q" d="M23.948,12.795l-.841,12.49A9.873,9.873,0,0,1,3.733,27.227L.429,15.153a11.985,11.985,0,1,1,23.12-6.329,12.254,12.254,0,0,1,.4,3.971" transform="translate(37.456 9.911)"/><path d="M1.3.071A3.791,3.791,0,0,1,2.458.022a4.741,4.741,0,0,1,1.21.284A4.34,4.34,0,0,1,4.2.552L4.4.662c.064.038.121.084.233.144a1.839,1.839,0,0,1,.874,1.2l.085.362a.409.409,0,0,1-.66.408,1.4,1.4,0,0,0-.34-.19,2.148,2.148,0,0,0-.44-.136L3.6,2.336c-.187-.039-.351-.074-.51-.1a7.952,7.952,0,0,0-.975-.074c-.338-.015-.689.013-1.039.031A1.022,1.022,0,0,1,.81.175Z" transform="translate(55.475 22.703)"/><path d="M5.7,2.137l-1.379.048-1.344.056c-.44.023-.887.039-1.286.093a3.046,3.046,0,0,0-.567.134,1.664,1.664,0,0,0-.451.225.409.409,0,0,1-.657-.419l.1-.362A1.944,1.944,0,0,1,1.292.593,9.491,9.491,0,0,1,2.687.218,10.913,10.913,0,0,1,4.022.032a7.246,7.246,0,0,1,1.324,0l.413.039A1.037,1.037,0,0,1,5.7,2.137" transform="translate(44.065 22.754)"/><path class="t" d="M0,.931A.931.931,0,1,0,.931,0,.931.931,0,0,0,0,.931" transform="translate(47.564 26.002)"/><path class="t" d="M0,.931A.931.931,0,1,0,.931,0,.931.931,0,0,0,0,.931" transform="translate(57.388 25.948)"/><path d="M2.841,4.244h.01A11.945,11.945,0,0,1,6.242,1.47l.056-.03A11.924,11.924,0,0,1,7.85.741C7.908.72,7.966.7,8.024.679c.262-.092.527-.178.8-.253h0c.232-.064.466-.118.7-.168l.209-.04q.255-.049.509-.087c.071-.011.143-.021.215-.03.192-.025.385-.046.577-.061l.118-.011Q11.517,0,11.879,0h.045q.337,0,.671.015l.111.007c.222.013.443.032.662.058l.038,0A12.046,12.046,0,0,1,20.023,3.1h.01a26.807,26.807,0,0,1,2.233,2.008c-1.378,1.027-3.034,1.373-6.589,1.737-2.558.262-6.835.248-9.134-.517-2.39,3.233.035,7.029-2.656,9,1.255,6.86,5.357,8.163,12.125,8.163,4.671,0,6.488-.954,7.515-4.468l-.421,6.257a9.863,9.863,0,0,1-10.513,9.186c-.269-.018-.535-.047-.8-.086s-.52-.088-.774-.147a9.776,9.776,0,0,1-2.171-.783q-.34-.171-.665-.366a9.947,9.947,0,0,1-4.452-5.861l-1.85-6.76L.428,15.152A11.97,11.97,0,0,1,2.841,4.244" transform="translate(37.457 9.913)"/><path class="q" d="M4.989,6.864A1.436,1.436,0,0,1,3.064,8.126,4.238,4.238,0,0,1,.006,4.006C.141,1.692,1.7-.1,3.479,0s1.51,6.859,1.51,6.859" transform="translate(34.267 24.639)"/><path class="q" d="M4.683.185c2.091,0,4.683-.852,4.683,1.1A3.07,3.07,0,0,1,8.322,3.528a1.711,1.711,0,0,1-2.855-1.2V2.3c0-.007,0-.013,0-.02S3.9,2.295,3.9,2.3s0,.017,0,.026a1.71,1.71,0,0,1-2.854,1.2A3.071,3.071,0,0,1,0,1.285C0-.667,2.592.185,4.683.185" transform="translate(48.329 35.376)"/><path class="q" d="M.5.5Z" transform="translate(47.119 40.064)"/><path class="r" d="M3.791.13A4.579,4.579,0,0,1,0,.127" transform="translate(51.672 32.318)"/><path d="M4.183.641A14,14,0,0,0,8.366,0,4.842,4.842,0,0,1,4.183,2.156,4.841,4.841,0,0,1,0,0,14,14,0,0,0,4.183.641" transform="translate(48.93 34.862)"/><path class="e" d="M0,0A13.946,13.946,0,0,0,3.216.377,13.952,13.952,0,0,0,6.433,0,5.165,5.165,0,0,1,3.216,1.083,5.163,5.163,0,0,1,0,0" transform="translate(49.897 35.126)"/><path class="i" d="M20.957,1.71c.5.343.562,1.445.856,2.726.687,3,2.562,7.532,2.552,12.333a1.576,1.576,0,0,1-1.587,1.553H1.588A1.578,1.578,0,0,1,0,16.768a12.066,12.066,0,0,1,2.232-6.521,50.909,50.909,0,0,0,4.4-7.706C8.117-.915,15.06-.339,18.018,1.289a3.646,3.646,0,0,0,2.446.269.663.663,0,0,1,.493.152" transform="translate(17.648 249.557)"/><path class="p" d="M24.316.5H0" transform="translate(17.697 264.807)"/><path class="p" d="M0,8.713C0,3.9,4.115,0,9.875,0S20.3,3.9,20.3,8.713" transform="translate(17.94 256.594)"/><path class="p" d="M0,7.739C1.442,7.148,2.37,2.71,2.072,0" transform="translate(37.44 254.211)"/><path class="v" d="M0,15.676.157,1.569,6.037,0" transform="translate(42.292 132.942)"/></g><g transform="translate(95.169 160.212)"><rect class="w" width="97.76" height="52.931" transform="translate(0 8.642)"/><g transform="translate(4.051)"><path class="i" d="M4.861,0H84.527a4.861,4.861,0,0,1,4.861,4.861V51.58a4.861,4.861,0,0,1-4.861,4.861H4.861A4.861,4.861,0,0,1,0,51.58V4.861A4.861,4.861,0,0,1,4.861,0Z"/><g class="x"><path class="y" d="M.071.023,24.835,0l-.071,78L0,78.022Z" transform="translate(40.205 -0.824) rotate(-22)"/><path class="z" d="M.025.038,41.009,0l-.025,26.815L0,26.853Z" transform="translate(0.168 61.999) rotate(-22)"/><path class="z" d="M.03.052,57.1,0l-.03,32.227L0,32.28Z" transform="translate(-32.512 48.235) rotate(-22)"/><path class="z" d="M.042.064,69.734,0l-.042,45.6L0,45.662Z" transform="translate(60.895 6.662) rotate(-22)"/><path class="z" d="M.021.038,41.006,0l-.021,23.144L0,23.182Z" transform="translate(47.391 -4.971) rotate(-22)"/><g transform="translate(5.401 7.679)"><text class="aa" transform="translate(0 17.086)"><tspan x="0" y="0">**** **** **** 3728</tspan></text><g transform="translate(0 31.209)"><text class="ab" transform="translate(0 5.861)"><tspan x="0" y="0">Tony Ajegunle</tspan></text><text class="ab" transform="translate(0 1)"><tspan x="0" y="0">Card Holder name</tspan></text></g><g transform="translate(40.508 31.209)"><text class="ab" transform="translate(0 5.861)"><tspan x="0" y="0">02/30</tspan></text><text class="ab" transform="translate(0 1)"><tspan x="0" y="0">Expiry date</tspan></text></g><g transform="translate(66.451 34.776)"><path class="e" d="M6.058,6.409a3.83,3.83,0,0,1-2.312.769A3.674,3.674,0,0,1,0,3.589,3.674,3.674,0,0,1,3.746,0,3.83,3.83,0,0,1,6.058.769,3.85,3.85,0,0,1,8.372,0a3.674,3.674,0,0,1,3.746,3.589A3.674,3.674,0,0,1,8.372,7.178,3.85,3.85,0,0,1,6.058,6.409Z" transform="translate(0 0)"/></g><g transform="translate(0 0)"><path class="ac" d="M325.5,1193.482h.006c.012.011.01.026.011.039,0,.04,0,.042.044.042h.547a.075.075,0,0,1,.05.009c-.005.012-.017.009-.026.009H325.5Z" transform="translate(-325.5 -1188.297)"/><path class="ad" d="M814.5,796.533c0-.011,0-.022,0-.033h.659v.007a.073.073,0,0,1-.053.01h-.53A.122.122,0,0,0,814.5,796.533Z" transform="translate(-808.114 -796.5)"/><path class="ad" d="M325.5,940.541v-.118a.007.007,0,0,1,.01,0,.222.222,0,0,1,0,.112A.007.007,0,0,1,325.5,940.541Z" transform="translate(-325.5 -938.543)"/><path class="ae" d="M1674.133,1023.052h-.006a.071.071,0,0,1,0-.079h.006Z" transform="translate(-1656.503 -1020.015)"/><path class="af" d="M325.506,938.008H325.5v-.033h.006A.021.021,0,0,1,325.506,938.008Z" transform="translate(-325.5 -936.127)"/><path class="ag" d="M325.5,949.5h.006a.021.021,0,0,1,0,.032H325.5Z" transform="translate(-325.5 -947.502)"/><path class="e" d="M1143.24,842.409a1.3,1.3,0,0,1-.369.167,1.346,1.346,0,0,1-1.321-.322,1.3,1.3,0,0,1-.424-.857,1.373,1.373,0,0,1,1.327-1.513,1.374,1.374,0,0,1,1.413,1.371q0,.669,0,1.338c0,.029-.006.038-.037.038q-.277,0-.555,0c-.029,0-.036-.009-.036-.037C1143.241,842.535,1143.24,842.475,1143.24,842.409Z" transform="translate(-1130.466 -839.317)"/><path class="e" d="M325.924,827.512c0-.011,0-.022,0-.032v-.118c0-.011,0-.022,0-.032a1.371,1.371,0,0,1,1.111-1.257,1.347,1.347,0,0,1,.961.167.03.03,0,0,0,.046-.006l.352-.354c.017-.017.026-.021.045,0q.2.2.4.4c.02.019.015.028,0,.045-.118.116-.234.234-.352.35a.034.034,0,0,0-.006.051,1.369,1.369,0,0,1-.177,1.632,1.341,1.341,0,0,1-.972.438,1.372,1.372,0,0,1-1.376-1.071A1.443,1.443,0,0,1,325.924,827.512Z" transform="translate(-325.918 -825.481)"/><path class="e" d="M900.67,841.156a1.373,1.373,0,1,1-1.37-1.373A1.37,1.37,0,0,1,900.67,841.156Z" transform="translate(-890.448 -839.218)"/><path class="e" d="M570.376,842.58a1.374,1.374,0,1,1,1.373-1.407A1.375,1.375,0,0,1,570.376,842.58Z" transform="translate(-565.821 -839.267)"/><path class="e" d="M1384.333,841.836c0-.23-.006-.459,0-.689a1.369,1.369,0,0,1,1.146-1.293,1.375,1.375,0,0,1,1.587,1.189,1.49,1.49,0,0,1,.01.2q0,.653,0,1.306c0,.031-.007.04-.039.04-.185,0-.37,0-.555,0-.027,0-.034-.007-.034-.034,0-.441-.005-.882,0-1.322a.733.733,0,0,0-1.465-.047c0,.024,0,.048,0,.072,0,.431,0,.862,0,1.293,0,.031-.009.037-.038.037q-.29,0-.581,0c-.029,0-.038-.006-.038-.037,0-.236,0-.472,0-.708Z" transform="translate(-1370.503 -839.269)"/><path class="e" d="M814.515,796.975c0-.016.008-.027.03-.027.209,0,.418,0,.627,0,0,.012,0,.024,0,.036q0,1.614,0,3.228c0,.034-.009.04-.041.04q-.289,0-.578,0c-.031,0-.042-.005-.042-.04Q814.516,798.595,814.515,796.975Z" transform="translate(-808.128 -796.942)"/><path class="e" d="M326.474,1096.786l-.032,0h-.589c-.025,0-.036-.005-.033-.032a.576.576,0,0,0,0-.062,1.369,1.369,0,0,1,1.126-1.258,1.376,1.376,0,0,1,1.619,1.311c0,.032-.006.042-.04.042-.185,0-.37,0-.555,0-.025,0-.033-.006-.033-.032a.727.727,0,0,0-.608-.732.736.736,0,0,0-.843.577A.876.876,0,0,0,326.474,1096.786Z" transform="translate(-325.815 -1091.512)"/><path class="ah" d="M1628.189,1002.432v.079a.311.311,0,1,1-.314-.351A.306.306,0,0,1,1628.189,1002.432Z" transform="translate(-1610.564 -999.475)"/><path class="i" d="M1192.7,890.764a.734.734,0,1,1-.681-.735A.727.727,0,0,1,1192.7,890.764Z" transform="translate(-1179.927 -888.806)"/><path class="i" d="M377.382,890.735a.732.732,0,1,1-.732-.735A.73.73,0,0,1,377.382,890.735Z" transform="translate(-375.258 -888.779)"/><path class="i" d="M948.731,891.468a.735.735,0,1,1,.737-.732A.735.735,0,0,1,948.731,891.468Z" transform="translate(-939.869 -888.778)"/><path class="i" d="M620.561,890.733a.734.734,0,1,1-.734-.734A.733.733,0,0,1,620.561,890.733Z" transform="translate(-615.258 -888.778)"/></g></g></g></g></g><g transform="translate(70.564 137.169)"><rect class="ai" width="109.757" height="59.426" transform="translate(0 9.702)"/><g transform="translate(4.548)"><rect class="aj" width="100.358" height="63.368" rx="6"/><g class="ak"><path class="al" d="M20.42-161.218c2.485,0,17.692-11.932,22.3-11.9,7.117.046,13.6,5.129,22.371,6.242,2.637.335,11.519-18.26,15.193-18.587,8.651-.771,12.933,15.718,18.329,16.211,12.409,1.134,9.418,9.172,9.418,14.572,0,14.21-77.4,25.431-93.838,25.431S.117-147.008.117-161.218,3.985-161.218,20.42-161.218Z" transform="translate(-3.345 193.559)"/><path class="am" d="M33.1,60.491c10.071,0,57.933-8.244,76.592-21.662,11.792-8.48-1.185-21.517-1.185-27.951,0-7.129-3.313,3.334-13.73,2.446C89.935,12.91,86.628-8.827,77.638,4.1c-1.392,2-6.9,16.84-15.4,13.207C54.8,14.127,45.788,8.223,29.41,19.263,14.376,29.4,0,13.969,0,30.583S16.669,60.491,33.1,60.491Z" transform="translate(-3.345 19.748)"/><path class="an" d="M33.1,60.491c10.071,0,57.933-8.244,76.592-21.662,11.792-8.48-1.185-21.517-1.185-27.951,0-7.129-3.313,3.334-13.73,2.446C89.935,12.91,86.628-8.827,77.638,4.1c-1.392,2-6.9,16.84-15.4,13.207C54.8,14.127,45.788,8.223,29.41,19.263,14.376,29.4,0,13.969,0,30.583S16.669,60.491,33.1,60.491Z" transform="translate(-3.345 27.784)"/><path class="ao" d="M33.1,60.491c10.071,0,57.933-8.244,76.592-21.662,11.792-8.48-1.185-21.517-1.185-27.951,0-7.129-3.313,3.334-13.73,2.446C89.935,12.91,86.628-8.827,77.638,4.1c-1.392,2-6.9,16.84-15.4,13.207C54.8,14.127,45.788,8.223,29.41,19.263,14.376,29.4,0,13.969,0,30.583S16.669,60.491,33.1,60.491Z" transform="translate(-3.345 41.068)"/><g transform="translate(6.67 9.834)"><text class="aa" transform="translate(0 17.847)"><tspan x="0" y="0">**** **** **** 3728</tspan></text><g transform="translate(0 33.826)"><text class="ab" transform="translate(0 6.458)"><tspan x="0" y="0">Temi Otedola</tspan></text><text class="ab" transform="translate(0 1)"><tspan x="0" y="0">Card Holder name</tspan></text></g><g transform="translate(45.479 33.826)"><text class="ab" transform="translate(0 6.458)"><tspan x="0" y="0">02/30</tspan></text><text class="ab" transform="translate(0 1)"><tspan x="0" y="0">Expiry date</tspan></text></g><g transform="translate(74.606 37.831)"><path class="e" d="M6.8,7.2a4.3,4.3,0,0,1-2.6.863A4.125,4.125,0,0,1,0,4.03,4.125,4.125,0,0,1,4.205,0,4.3,4.3,0,0,1,6.8.863,4.323,4.323,0,0,1,9.4,0a4.125,4.125,0,0,1,4.205,4.03A4.125,4.125,0,0,1,9.4,8.059,4.323,4.323,0,0,1,6.8,7.2Z" transform="translate(0 0)"/></g><g transform="translate(0 0)"><path class="ac" d="M325.5,1193.482h.006c.014.012.012.029.013.044,0,.044,0,.046.05.047h.614a.081.081,0,0,1,.056.01c-.006.014-.018.009-.029.009H325.5Z" transform="translate(-325.5 -1187.661)"/><path class="ad" d="M814.5,796.537c0-.012,0-.025,0-.037h.74v.008a.084.084,0,0,1-.06.011h-.6A.137.137,0,0,0,814.5,796.537Z" transform="translate(-807.33 -796.5)"/><path class="ad" d="M325.5,940.556v-.132a.008.008,0,0,1,.012,0,.253.253,0,0,1,0,.126A.009.009,0,0,1,325.5,940.556Z" transform="translate(-325.5 -938.312)"/><path class="ae" d="M1674.135,1023.061h-.007a.079.079,0,0,1,0-.089h.007Z" transform="translate(-1654.341 -1019.652)"/><path class="af" d="M325.506,938.012H325.5v-.037h.006A.023.023,0,0,1,325.506,938.012Z" transform="translate(-325.5 -935.901)"/><path class="ag" d="M325.5,949.5h.006a.024.024,0,0,1,0,.037H325.5Z" transform="translate(-325.5 -947.257)"/><path class="e" d="M1143.5,842.72a1.464,1.464,0,0,1-.414.187,1.512,1.512,0,0,1-1.484-.361,1.46,1.46,0,0,1-.476-.962,1.542,1.542,0,0,1,1.49-1.7,1.543,1.543,0,0,1,1.586,1.539q0,.751,0,1.5c0,.032-.007.043-.041.043q-.311,0-.623,0c-.033,0-.041-.01-.04-.041C1143.5,842.86,1143.5,842.793,1143.5,842.72Z" transform="translate(-1129.159 -839.247)"/><path class="e" d="M325.924,827.715c0-.012,0-.024,0-.036v-.133c0-.012,0-.024,0-.036a1.539,1.539,0,0,1,1.247-1.411,1.51,1.51,0,0,1,1.079.188.034.034,0,0,0,.051-.007c.131-.133.264-.265.4-.4.018-.019.029-.024.051,0q.222.226.448.448c.022.022.017.032,0,.05-.132.131-.262.263-.395.393a.038.038,0,0,0-.007.057,1.537,1.537,0,0,1-.2,1.832,1.506,1.506,0,0,1-1.091.492,1.54,1.54,0,0,1-1.545-1.2A1.628,1.628,0,0,1,325.924,827.715Z" transform="translate(-325.918 -825.434)"/><path class="e" d="M901.007,841.324a1.542,1.542,0,1,1-1.538-1.541A1.539,1.539,0,0,1,901.007,841.324Z" transform="translate(-889.531 -839.148)"/><path class="e" d="M570.545,842.917a1.542,1.542,0,1,1,1.541-1.58A1.544,1.544,0,0,1,570.545,842.917Z" transform="translate(-565.431 -839.197)"/><path class="e" d="M1384.333,842.081c0-.258-.006-.516,0-.773a1.536,1.536,0,0,1,1.286-1.452,1.543,1.543,0,0,1,1.782,1.334,1.737,1.737,0,0,1,.011.219q0,.733,0,1.466c0,.034-.007.045-.043.045-.208,0-.416,0-.624,0-.03,0-.039-.008-.039-.039,0-.495-.005-.99,0-1.484a.823.823,0,0,0-1.644-.053c0,.027,0,.054,0,.081q0,.725,0,1.451c0,.034-.01.041-.042.041q-.327,0-.653,0c-.032,0-.042-.006-.042-.041,0-.265,0-.53,0-.8Z" transform="translate(-1368.806 -839.2)"/><path class="e" d="M814.515,796.979c0-.018.009-.031.034-.031.234,0,.469,0,.7,0,0,.014,0,.027,0,.04q0,1.812,0,3.625c0,.038-.01.045-.046.045q-.324,0-.649,0c-.035,0-.047-.006-.046-.045Q814.516,798.8,814.515,796.979Z" transform="translate(-807.344 -796.941)"/><path class="e" d="M326.554,1096.955l-.036,0h-.661c-.028,0-.04-.006-.037-.036a.682.682,0,0,0,0-.069,1.537,1.537,0,0,1,1.264-1.412,1.545,1.545,0,0,1,1.818,1.472c0,.036-.007.047-.045.046-.208,0-.415,0-.623,0-.028,0-.037-.007-.037-.036a.817.817,0,0,0-.682-.821.826.826,0,0,0-.947.648A.991.991,0,0,0,326.554,1096.955Z" transform="translate(-325.814 -1091.032)"/><path class="ah" d="M1628.265,1002.466v.089a.349.349,0,1,1-.353-.394A.343.343,0,0,1,1628.265,1002.466Z" transform="translate(-1608.477 -999.145)"/><path class="i" d="M1192.881,890.855a.824.824,0,1,1-.764-.825A.815.815,0,0,1,1192.881,890.855Z" transform="translate(-1178.54 -888.656)"/><path class="i" d="M377.561,890.825a.822.822,0,1,1-.822-.825A.82.82,0,0,1,377.561,890.825Z" transform="translate(-375.178 -888.629)"/><path class="i" d="M948.821,891.648a.825.825,0,1,1,.827-.822A.825.825,0,0,1,948.821,891.648Z" transform="translate(-938.871 -888.628)"/><path class="i" d="M620.741,890.824a.825.825,0,1,1-.824-.825A.823.823,0,0,1,620.741,890.824Z" transform="translate(-614.787 -888.628)"/></g></g></g></g></g></g></g></svg>