<svg xmlns="http://www.w3.org/2000/svg" xmlns:xlink="http://www.w3.org/1999/xlink" width="145.884" height="260" viewBox="0 0 145.884 260"><defs><style>.a,.c,.j,.n,.o,.x{fill:none;}.b{fill:#edebff;}.c{stroke:#000;}.c,.j,.n,.o,.x{stroke-linecap:round;stroke-miterlimit:10;}.c,.o{stroke-linejoin:round;}.d{fill:#c7bffe;}.e{fill:rgba(71,61,142,0.9);}.f{fill:#473d8e;}.g{fill:#fd9e28;}.h{fill:#ff628d;}.i{fill:#b3614e;}.j{stroke:#893b2e;}.k{fill:#c18a6f;}.l{fill:#111;}.m{clip-path:url(#a);}.n{stroke:#f3edf7;}.o,.x{stroke:#a0614b;}.p{fill:#a0614b;}.q{fill:#fff;}.r{clip-path:url(#b);}.s{fill:#53a07c;}.t{fill:#b9edd6;}.u{fill:#7fc6a6;}.v{fill:#4b8c6b;}.w{fill:#3f9896;}</style><clipPath id="a"><path class="a" d="M0,0H33.54V18.446H0Z"/></clipPath><clipPath id="b"><path class="a" d="M0,0H27.369V57.688H0Z"/></clipPath></defs><g transform="translate(-3.745 -1.901)"><path class="b" d="M36.011,15.261a117.62,117.62,0,0,1-17.222-6.3A103.172,103.172,0,0,1,3.038,0L2.723.453c.122.085.248.167.371.252-.779,3.632-1.453,7.371-1.969,11.15C.618,15.7.231,19.642,0,23.62c3.307-2.254,6.477-4.568,9.53-6.982q4.5-3.6,8.623-7.372c.136.063.269.129.4.191s.276.123.414.185c-.117,3.723-.135,7.551.012,11.336.154,3.873.42,7.847.842,11.778,2.871-2.774,5.607-5.56,8.238-8.453,2.574-2.846,5.02-5.707,7.363-8.639.146.041.29.086.435.127s.294.079.44.12c.478,3.7,1.055,7.491,1.775,11.206.74,3.809,1.592,7.692,2.578,11.516,2.416-3.168,4.71-6.334,6.894-9.571q3.2-4.775,6.066-9.6c.151.02.3.044.451.064s.3.038.456.057c1,3.6,2.111,7.255,3.336,10.851,1.259,3.674,2.632,7.379,4.119,11.055q2.933-5.2,5.529-10.412,2.53-5.154,4.742-10.319c.154,0,.308,0,.461,0v-.552a141.75,141.75,0,0,1-18.571-1.232,131.324,131.324,0,0,1-18.128-3.721" transform="translate(76.919 90.768)"/><path class="b" d="M69.208.7c.126-.079.256-.156.382-.234L69.3,0A127.674,127.674,0,0,1,53.264,8.482,137.278,137.278,0,0,1,36.12,14.715a144.242,144.242,0,0,1-17.871,3.969A146.639,146.639,0,0,1,0,20.376l.016.552.453-.017c1.551,3.4,3.2,6.8,4.957,10.178q2.7,5.147,5.72,10.27,2.028-5.587,3.735-11.145c1.1-3.646,2.1-7.294,3-10.918.15-.023.3-.043.449-.066l.448-.074c1.963,3.175,4.029,6.347,6.193,9.477Q28.3,33.4,31.942,38.1q1.313-5.8,2.3-11.528c.634-3.755,1.161-7.5,1.592-11.208.145-.041.291-.081.436-.123s.289-.087.434-.13c2.348,2.9,4.8,5.781,7.348,8.61q3.908,4.3,8.136,8.49.558-5.926.79-11.734c.137-3.805.161-7.588.089-11.316.138-.061.277-.119.415-.179s.274-.125.41-.186c2.708,2.563,5.521,5.09,8.429,7.55q4.451,3.731,9.228,7.3-.252-5.954-.832-11.736c-.4-3.788-.909-7.535-1.515-11.209" transform="translate(3.745 90.542)"/><path class="c" d="M4.36,2.18A2.18,2.18,0,1,0,2.18,4.36,2.18,2.18,0,0,0,4.36,2.18Z" transform="translate(108.744 123.571)"/><path class="d" d="M2.885,1.442A1.442,1.442,0,1,0,1.443,2.884,1.442,1.442,0,0,0,2.885,1.442" transform="translate(118.845 139.319)"/><path class="d" d="M2.884,1.442A1.442,1.442,0,1,0,1.443,2.884,1.442,1.442,0,0,0,2.884,1.442" transform="translate(22.811 38.931)"/><path class="d" d="M2.885,1.442A1.442,1.442,0,1,0,1.443,2.884,1.443,1.443,0,0,0,2.885,1.442" transform="translate(10.99 99.022)"/><path class="e" d="M2.884,1.442A1.442,1.442,0,1,0,1.442,2.884,1.442,1.442,0,0,0,2.884,1.442" transform="translate(53.012 36.411)"/><path class="d" d="M7.647,5.2A10.19,10.19,0,0,1,5.306,3.456,10.165,10.165,0,0,1,3.039,0L0,3.04A10.167,10.167,0,0,0,2.271,6.491,10.213,10.213,0,0,0,4.608,8.239Z" transform="translate(37.599 35.329)"/><path class="f" d="M5.2,0A10.19,10.19,0,0,1,3.456,2.341,10.164,10.164,0,0,1,0,4.607l3.04,3.04A10.186,10.186,0,0,0,6.491,5.376,10.207,10.207,0,0,0,8.239,3.038Z" transform="translate(110.3 146.878)"/><path class="g" d="M2.028,5.1A6.76,6.76,0,0,1,5.5,2.029L3.47,0A6.823,6.823,0,0,0,0,3.076Z" transform="translate(37.806 104.392)"/><path class="h" d="M0,3.146a6.757,6.757,0,0,1,4.629.28V.557A6.823,6.823,0,0,0,0,.278Z" transform="translate(106.429 28.692)"/><path class="f" d="M0,3.146a6.755,6.755,0,0,1,4.629.28V.557A6.825,6.825,0,0,0,0,.278Z" transform="translate(18.182 61.517)"/><path class="h" d="M3.146,4.629A6.754,6.754,0,0,1,3.426,0H.557A6.827,6.827,0,0,0,.278,4.629Z" transform="translate(119.918 88.305)"/><path class="h" d="M2.626,0A10.207,10.207,0,0,0,3.752,2.693,10.159,10.159,0,0,0,6.557,5.729L5.2,7.359A10.191,10.191,0,0,1,1.748,5.088,10.232,10.232,0,0,1,0,2.75Z" transform="translate(21.769 139.319)"/><path class="e" d="M3.931,0A10.233,10.233,0,0,1,2.805,2.693,10.173,10.173,0,0,1,0,5.729l1.358,1.63A10.188,10.188,0,0,0,4.809,5.087,10.2,10.2,0,0,0,6.557,2.75Z" transform="translate(130.723 84.303)"/><path class="d" d="M3.413,0a8.877,8.877,0,0,1-.977,2.339A8.837,8.837,0,0,1,0,4.974L1.178,6.39a8.843,8.843,0,0,0,3-1.972A8.883,8.883,0,0,0,5.693,2.388Z" transform="translate(111.573 40.373)"/><path class="e" d="M0,1.849a7.163,7.163,0,0,1,1.9.793A7.145,7.145,0,0,1,4.033,4.616L5.181,3.66a7.169,7.169,0,0,0-1.6-2.43A7.2,7.2,0,0,0,1.936,0Z" transform="translate(26.727 93.284)"/><path class="i" d="M.386.281C.429.36.464.443.5.523H.512C.472.441.427.362.386.281" transform="translate(85.377 14.267)"/><path class="g" d="M1.314.656a.657.657,0,1,0-.656.656A.657.657,0,0,0,1.314.656" transform="translate(65.312 29.092)"/><path class="g" d="M1.314.656a.657.657,0,1,0-.656.656A.657.657,0,0,0,1.314.656" transform="translate(86.402 29.092)"/><path class="j" d="M2.372,0A10.894,10.894,0,0,0,0,3.991" transform="translate(48.196 93.993)"/><path class="j" d="M3.374,2.851,0,0" transform="translate(56.189 97.759)"/><path class="j" d="M2.68,1.985,0,0" transform="translate(53.199 99.763)"/><g transform="translate(30.003 1.901)"><path class="k" d="M0,7.068v6.246c0,1.572.251,4.452,3.5,5.436,3.969,1.2,10.043,1.02,9.38-5.117a56.16,56.16,0,0,1-.393-7.381A6.042,6.042,0,0,0,6.669,0C3.374-.08,0,1.526,0,7.068" transform="translate(28.483 231.031)"/><path class="k" d="M.029,7.7c.383,5.448.567,6.832.616,8.75.212,8.326,14.305,6.226,12.692-3.1-.451-2.609-.736-4.379-.877-5.66C12.026,3.735,10.539-.031,4.872,0,2.191.015-.3,3.04.029,7.7" transform="translate(61.014 231.247)"/><path class="l" d="M1.7,121.225c1.091,8.183,3.367,21.968,4.573,29.152H23.1l2.254-106.2,6.608,44.691c-2.189,20.412,3.737,51.081,6.881,61.513h16.2L53.8,84.743,48.008,18.434c-2-25.986-44.421-23.213-46.935.263A155.892,155.892,0,0,0,.243,45.575L2.435,84.449S.176,109.786,1.7,121.225" transform="translate(20.29 89.516)"/><g transform="translate(58.618 241.554)"><path class="a" d="M0,0H33.54V18.446H0Z" transform="translate(0 0)"/><g class="m" transform="translate(0 0)"><path class="f" d="M2,1.443C.059,2,0,10.013,0,16.827a1.621,1.621,0,0,0,1.622,1.62H31.915a1.619,1.619,0,0,0,1.613-1.8c-.237-2.03-1.147-5.236-4.43-6.7-5-2.228-8.325-4.512-9.8-7.642-1.558-3.295-7.154-2.747-8.28-.284-1.975-1.273-2.933.764-5.3.764S3.275,1.079,2,1.443" transform="translate(0 0)"/></g></g><path class="c" d="M0,.512C3.065,2.885,9.7,1.327,11.2,0A25.945,25.945,0,0,0,22.337,7.443a7.121,7.121,0,0,0-1.1,3.121" transform="translate(58.987 246.871)"/><path class="c" d="M0,3.793A9.79,9.79,0,0,1,4.32,0" transform="translate(81.325 250.521)"/><path class="c" d="M33.412.5H0" transform="translate(58.619 256.935)"/><path class="f" d="M20.9,1.706c.5.343.561,1.44.853,2.719.686,2.992,2.556,7.513,2.546,12.3a1.572,1.572,0,0,1-1.583,1.549H1.584A1.574,1.574,0,0,1,0,16.726a12.043,12.043,0,0,1,2.226-6.5A50.807,50.807,0,0,0,6.615,2.534C8.1-.912,15.022-.338,17.973,1.286a3.637,3.637,0,0,0,2.44.269.659.659,0,0,1,.492.152" transform="translate(20.863 241.563)"/><path class="c" d="M24.255.5H0" transform="translate(20.912 256.772)"/><path class="c" d="M0,8.691C0,3.891,4.105,0,9.85,0s10.4,3.891,10.4,8.691" transform="translate(21.154 248.581)"/><path class="c" d="M0,7.72C1.439,7.13,2.365,2.7,2.068,0" transform="translate(40.605 246.205)"/><path class="n" d="M0,8.446V1.565L5.866,0" transform="translate(45.647 125.243)"/><path class="k" d="M25.2.285c-3.38-1.13-6.484,1.245-7.615,4.624L16.359,23.694,12.74,21.062,0,33.255s15.782,12.32,17.391,13.2a8.178,8.178,0,0,0,2.02.762,10.21,10.21,0,0,0,12.4-9.9L30.085,5.219C29.147,1.346,28.3,1.322,25.2.285" transform="translate(78.727 40.118)"/><path class="k" d="M20.628,5.183c-.127-1.836-2.69-2.074-2.691.476,0,1.289-.15,2.241-.329,4.553-.185-2.856-.47-6.409-.664-7.775a1.462,1.462,0,1,0-2.912.244c.018.6.061-.617,0-1.3-.164-1.758-2.865-1.942-3.3.09L9.943,8.66C9.727,5.984,9.467,3.551,9.289,2.3,9,.241,5.925.391,6,2.951s-.058,14.071-.058,14.071c-.389-.713-.936-1.127-1.341-1.787C2.939,12.519,1.3,12.152.5,12.523c-.717.333-.584.681-.09,2.1,1.128,3.241,1.551,8.3,5.99,12.717,4.952,4.928,13.915,3.737,14.282-3.952.289-6.059.1-15.973-.052-18.2" transform="translate(90.095 18.536)"/><path class="o" d="M0,.724c4.168-1.553,9.51-.31,11.751.943" transform="translate(96.676 30.347)"/><path class="o" d="M.254,8.557.525,0" transform="translate(103.629 21.931)"/><path class="o" d="M.509,3.488.413,0" transform="translate(107.036 28.104)"/><path class="o" d="M0,0,1.045,1.406A6.29,6.29,0,0,1,5.869,3.932" transform="translate(96.041 35.557)"/><path class="h" d="M35.935,20.594,33.493,17.9a1,1,0,0,0-1.3-.075L16.741,2.532A10.065,10.065,0,1,0,3.389,17.6L18.6,31.119a.987.987,0,0,0,.332.78l8.581,7.568a.993.993,0,0,0,1.406-.093l7.077-17.415a.993.993,0,0,0-.057-1.365" transform="translate(58.901 42.2)"/><path class="c" d="M12.4,0,0,11.771" transform="translate(78.183 60.502)"/><path class="h" d="M35.349,8.21C35.119,3.244,27.02-.415,17.26.038S-.225,4.883.005,9.849s8.329,8.625,18.089,8.173S35.58,13.176,35.349,8.21" transform="translate(25.485 35.295)"/><path class="h" d="M60.474,72.94,63.119,7.663c.232-1.643.093-4.329-1.467-4.892C55.964.719,49.221.1,33.4,0,16.336,1.127,6.513,7.256,1.169,9.775A2.042,2.042,0,0,0,.059,12.11C5.486,34.387,9.077,57.9,8.2,72.934a4.011,4.011,0,0,0,3.046,4.134c15.477,3.78,30.971,1.065,46.846-.258,1.928-.161,2.191-1.944,2.381-3.869" transform="translate(10.809 40.113)"/><path class="c" d="M0,0,4.979,36.165" transform="translate(13.936 61.417)"/><path class="c" d="M0,12.181.741,0" transform="translate(72.933 57.137)"/><path class="c" d="M.111,0c-1.073,5.228,6,7.6,6,7.6" transform="translate(25.625 43.57)"/><path class="c" d="M5.274,0C6.826,5.106,0,8.121,0,8.121" transform="translate(54.862 41.464)"/><path class="k" d="M8.787,26.844h0a9.028,9.028,0,0,0,9.339-8.66L16.875.455.247,0,0,17.972a8.709,8.709,0,0,0,8.787,8.872" transform="translate(33.984 23.614)"/><path class="p" d="M1.985,8.815c3.345,6.532,8.817,8.6,15.606,5.262L16.63.455,0,0A18.757,18.757,0,0,0,1.985,8.815" transform="translate(34.229 23.614)"/><path d="M.019,13.419C-.336,5.777,4.412.348,11.564.016S25.309,4.5,25.109,12.256C24.911,19.9,16.738,33.771,9.586,34.1c-2.777-1.9-5.713-5.487-6.748-11.944C.938,20.4.17,16.69.019,13.419" transform="translate(30.111 0)"/><path class="k" d="M23.912,12.209,23.65,24.693A9.847,9.847,0,0,1,4.437,27.523L.586,15.646A11.955,11.955,0,1,1,23.331,8.271a12.23,12.23,0,0,1,.58,3.938" transform="translate(31.348 1.427)"/><path d="M1.246.109A3.781,3.781,0,0,1,2.4.006,4.764,4.764,0,0,1,3.615.233a4.339,4.339,0,0,1,.538.221l.212.1c.065.034.124.078.239.132a1.837,1.837,0,0,1,.926,1.157l.1.356a.408.408,0,0,1-.638.436,1.4,1.4,0,0,0-.348-.174A2.107,2.107,0,0,0,4.2,2.348l-.559-.089c-.188-.03-.354-.056-.513-.072a7.948,7.948,0,0,0-.975-.029c-.337,0-.686.045-1.034.079a1.019,1.019,0,0,1-.358-2Z" transform="translate(49.405 13.809)"/><path d="M5.665,2.091,4.294,2.2l-1.336.118c-.437.043-.882.079-1.278.152a3.065,3.065,0,0,0-.558.16,1.646,1.646,0,0,0-.439.245A.408.408,0,0,1,.009,2.49L.09,2.126A1.936,1.936,0,0,1,1.206.756,9.576,9.576,0,0,1,2.578.318,10.746,10.746,0,0,1,3.9.071,7.167,7.167,0,0,1,5.218.007l.413.02a1.034,1.034,0,0,1,.034,2.064" transform="translate(38.095 14.259)"/><path class="l" d="M0,.972A.929.929,0,1,0,.886,0,.929.929,0,0,0,0,.972" transform="translate(40.959 17.516)"/><path class="l" d="M0,.972A.929.929,0,1,0,.886,0,.929.929,0,0,0,0,.972" transform="translate(50.745 17.008)"/><path d="M2.486,4.663H2.5a11.929,11.929,0,0,1,3.25-2.92L5.8,1.709A11.886,11.886,0,0,1,7.316.941l.17-.07c.257-.1.517-.2.784-.288h0C8.5.509,8.73.444,8.96.384c.069-.018.138-.033.206-.05q.252-.06.5-.11l.213-.04c.191-.034.382-.063.573-.087L10.573.08c.241-.028.481-.049.722-.062l.045,0C11.564,0,11.787,0,12.01,0l.11,0c.222,0,.442.012.663.027l.037,0a12.012,12.012,0,0,1,6.733,2.7h.009a26.676,26.676,0,0,1,2.318,1.9c-1.326,1.087-2.96,1.508-6.484,2.035-2.537.379-6.8.563-9.125-.093-2.232,3.332.819,7-1.773,9.089,1.568,6.777,5.256,7.886,12,7.573,4.654-.216,6.42-1.25,7.282-4.8l-.132,6.254a9.839,9.839,0,0,1-9.043,9.61,10.013,10.013,0,0,1-1.008.029q-.4-.008-.8-.049c-.263-.026-.522-.064-.779-.111a9.735,9.735,0,0,1-2.2-.68q-.348-.154-.68-.334a9.919,9.919,0,0,1-4.706-5.634L2.28,20.871.586,15.643a11.941,11.941,0,0,1,1.9-10.98" transform="translate(31.348 1.43)"/><path class="k" d="M5.1,6.765a1.432,1.432,0,0,1-1.86,1.347A4.226,4.226,0,0,1,0,4.148C.027,1.836,1.494-.021,3.275,0S5.1,6.765,5.1,6.765" transform="translate(29.597 16.659)"/><path class="k" d="M4.617.326C6.7.23,9.244-.739,9.334,1.206A3.065,3.065,0,0,1,8.4,3.489,1.706,1.706,0,0,1,5.5,2.425c0-.008,0-.017,0-.026s0-.013,0-.02-1.562.085-1.561.093,0,.017,0,.025A1.706,1.706,0,0,1,1.146,3.825,3.062,3.062,0,0,1,0,1.638C-.088-.307,2.534.423,4.617.326" transform="translate(42.875 26.507)"/><path class="k" d="M.5.5Z" transform="translate(41.849 31.567)"/><path class="o" d="M3.778.047A4.566,4.566,0,0,1,0,.219" transform="translate(46.012 23.571)"/><path d="M4.2.832A13.958,13.958,0,0,0,8.336,0,4.828,4.828,0,0,1,4.268,2.342,4.828,4.828,0,0,1,0,.386,13.937,13.937,0,0,0,4.2.832" transform="translate(43.392 25.938)"/><path class="q" d="M0,.3A13.92,13.92,0,0,0,3.222.525,13.933,13.933,0,0,0,6.41,0,5.148,5.148,0,0,1,3.255,1.228,5.151,5.151,0,0,1,0,.3" transform="translate(44.367 26.246)"/><g transform="translate(0 48.36)"><path class="a" d="M0,0H27.369V57.688H0Z" transform="translate(0 0)"/><g class="r" transform="translate(0 0)"><path class="h" d="M8.059,57.5h0a9.964,9.964,0,0,0,11.687-7.873l7.434-37.635A10.065,10.065,0,0,0,7.423,8.14L.186,45.814A9.965,9.965,0,0,0,8.059,57.5" transform="translate(0 0)"/></g></g><g transform="translate(17.526 52.418) rotate(30)"><g transform="translate(0.263 1.536)"><rect class="s" width="11.57" height="24.412" transform="translate(0 9.781) rotate(-57.708)"/></g><g transform="translate(7.848 7.271)"><circle class="t" cx="4.238" cy="4.238" r="4.238" transform="translate(0 7.976) rotate(-70.205)"/></g><g transform="translate(0 0)"><rect class="u" width="11.57" height="24.412" transform="translate(0 9.781) rotate(-57.708)"/></g><g transform="translate(8.73 6.555)"><circle class="t" cx="4.238" cy="4.238" r="4.238" transform="translate(0 8.21) rotate(-75.589)"/></g><g transform="translate(1.826 1.714)"><g transform="translate(0 0)"><path class="t" d="M7.552,7.15A5.336,5.336,0,0,1,12.4,4.674L5,0,0,7.916l7.4,4.674A5.336,5.336,0,0,1,7.552,7.15Z"/></g><g transform="translate(11.73 7.413)"><path class="t" d="M4.846,5.44A5.336,5.336,0,0,1,0,7.916l6.433,4.065,5-7.916L5,0A5.336,5.336,0,0,1,4.846,5.44Z" transform="translate(0 0)"/></g></g><g transform="translate(0 9.781)"><path class="s" d="M.263,1.536,0,0,1.911,1.208Z"/></g><g transform="translate(25.554 13.042)"><path class="s" d="M1.264,0l.263,1.536L0,2Z" transform="translate(0 0)"/></g><g transform="translate(20.636 13.042)"><path class="v" d="M.263,11.317,0,9.781,6.181,0l.263,1.536Z" transform="translate(0 0)"/></g><g transform="translate(9.916 6.267)"><rect class="w" width="11.57" height="1.518" transform="matrix(0.534, -0.845, 0.845, 0.534, 0, 9.781)"/></g><g transform="translate(9.699 16.048)"><path class="w" d="M.217,0,0,1.233,1.215,2,1.5.811Z" transform="translate(0 0)"/></g></g><path class="k" d="M8.577,8.795.4,22.989a9.059,9.059,0,1,0,17.331,5.28L20.171,5.347A4.832,4.832,0,0,0,14.329.115l-4.225.93Z" transform="translate(1.668 69.045)"/><path class="k" d="M3.633,17.385a2.247,2.247,0,0,0,2.15.848c.147-.025,2.277-.545,2.277-.545l2.486-1.069a1.928,1.928,0,0,0,.329-.15l3.4-2.533c2.2-1.685.784-3.227-.249-2.966.6-.343,1.1-.636,1.285-.766.608-.431,1.564-1.082,1.214-2.206a1.335,1.335,0,0,0-1.188-.917,1.839,1.839,0,0,0,.8-2.105c-.354-.724-.778-.792-1.636-.687s-5.525.648-5.539.65a2.155,2.155,0,0,0-.432.069l-3.01.914,2.691-1.89c1.209-.084,3.207-.228,4.351-.346,1.715-.176,2.241-1.322,2.251-1.843.014-.806-.606-.88-1.421-1.121L8.025.017A2.764,2.764,0,0,0,6.556.249L6.519.269A2.3,2.3,0,0,0,6.24.433L1.007,3.3A2.371,2.371,0,0,0,0,5.336,30.843,30.843,0,0,0,3.633,17.385" transform="translate(11.77 64.753)"/><path class="x" d="M0,2.467l3.15-.749L7.5,0" transform="translate(17.818 76.081)"/><path class="x" d="M6.238,1.015A4.586,4.586,0,0,1,0,0" transform="translate(13.723 84.219)"/></g></g></svg>