<svg xmlns="http://www.w3.org/2000/svg" xmlns:xlink="http://www.w3.org/1999/xlink" width="258.833" height="268.649" viewBox="0 0 258.833 268.649"><defs><style>.a,.c,.r,.s,.t,.v{fill:none;}.b{fill:#f5f8fc;}.c{stroke:#edebff;stroke-width:4px;}.c,.r,.s,.t,.v{stroke-linecap:round;stroke-miterlimit:10;}.c,.r,.v{stroke-linejoin:round;}.d{fill:#edebff;}.e{fill:#c7bffe;}.f{clip-path:url(#a);}.g{fill:#ddd8ff;}.h{clip-path:url(#b);}.i{fill:#e2defc;}.j{fill:#fff;}.k{fill:#ff628d;}.l{fill:#bad0f7;}.m{fill:#d6e3f8;}.n{fill:#e8f0fc;}.o{fill:#ded9fc;}.p{fill:#c18a6f;}.q{fill:#473d8e;}.r{stroke:#000;}.s,.v{stroke:#a0614b;}.t{stroke:#f3edf7;}.u{fill:#a0614b;}.w{fill:#1f7c71;}.x{fill:#2b9086;}</style><clipPath id="a"><path class="a" d="M0,0H87.764V70.7H0Z"/></clipPath><clipPath id="b"><path class="a" d="M0,268.649H258.833V0H0Z"/></clipPath></defs><g transform="translate(0 -1)"><path class="b" d="M81.845,41.836H6.878A6.878,6.878,0,0,1,0,34.958V6.878A6.878,6.878,0,0,1,6.878,0H81.845a6.878,6.878,0,0,1,6.878,6.878V34.958a6.878,6.878,0,0,1-6.878,6.878" transform="translate(108.639 67.022)"/><path class="c" d="M0,.5H67.752" transform="translate(119.125 93.933)"/><path class="d" d="M88.723,15.244V6.878A6.878,6.878,0,0,0,81.845,0H6.878A6.878,6.878,0,0,0,0,6.878v8.365Z" transform="translate(108.639 67.021)"/><path class="e" d="M4.6,2.3A2.3,2.3,0,1,0,2.3,4.6,2.3,2.3,0,0,0,4.6,2.3" transform="translate(186.877 72.343)"/><g transform="translate(57.968 1)"><path class="a" d="M0,0H87.764V70.7H0Z" transform="translate(0)"/><g class="f" transform="translate(0)"><path class="b" d="M80.479,70.7H7.284A7.284,7.284,0,0,1,0,63.416V7.285A7.284,7.284,0,0,1,7.284,0H80.479a7.285,7.285,0,0,1,7.285,7.285V63.416A7.284,7.284,0,0,1,80.479,70.7" transform="translate(0 0)"/></g></g><path class="g" d="M21.652,10.826A10.826,10.826,0,1,0,10.826,21.652,10.826,10.826,0,0,0,21.652,10.826" transform="translate(91.263 12.014)"/><path class="c" d="M0,.5H62.119" transform="translate(71.031 42.333)"/><path class="c" d="M0,.5H34.605" transform="translate(84.787 56.089)"/><path class="a" d="M0,268.649H258.833V0H0Z" transform="translate(0 1)"/><g class="h" transform="translate(0 1)"><path class="b" d="M0,23.743H18.526V0H0Z" transform="translate(24.465 45.49)"/><path class="i" d="M27,0H0L4.236,4.43H22.762Z" transform="translate(20.229 41.06)"/><path class="j" d="M0,4.43H27L22.762,0H4.236Z" transform="translate(20.229 69.233)"/><path class="d" d="M29.69,35.419H0V0H29.69V35.419ZM1.346,1.408,5.582,5.838V29.581L1.346,34.011h27l-4.236-4.431V5.838l4.236-4.431Z" transform="translate(18.883 39.652)"/><path class="k" d="M14.8,22.249H1.341L0,0H16.144L15.9,4.114A7.757,7.757,0,0,1,15,19.043L14.8,22.249Zm.963-15.97-.639,10.6a5.69,5.69,0,0,0,.639-10.6Z" transform="translate(222.931 175.252)"/><path class="l" d="M100.352,69.964H91.5v-30.4H63.609v30.4h-8.85v-30.4H45.593v30.4h-8.85v-30.4H8.851v30.4H0V0H100.352V69.963ZM63.609,7.113V32.447H91.5V7.113Zm-18.016,0V32.447h9.166V7.113Zm-36.742,0V32.447H36.743V7.113Z" transform="translate(150.439 197.501)"/><path class="m" d="M60.139,69.964h-5.38v-30.4H5.38v30.4H0V0H60.139V69.963ZM5.38,7.114V32.448h49.38V7.114H5.38Z" transform="translate(190.653 197.501)"/><path class="m" d="M0,0H67.663A18.587,18.587,0,0,1,86.25,18.587v85.226H0Z" transform="translate(123.961 149.346)"/><path class="l" d="M0,0H61.614A18.587,18.587,0,0,1,80.2,18.587v85.226H0Z" transform="translate(123.961 149.346)"/><path class="m" d="M7.391,14.51H.821L0,0H8.213Z" transform="translate(201.998 253.156)"/><path class="n" d="M7.391,14.51H.821L0,0H8.213Z" transform="translate(196.509 253.156)"/><path class="o" d="M151.1,98.729H94.074L77.512,12.149A14.934,14.934,0,0,0,62.841,0H0L31.987,167.319H165.832V113.46A14.73,14.73,0,0,0,151.1,98.729" transform="translate(44.379 85.837)"/><path class="e" d="M141.016,98.67H87L70.441,12.09A14.934,14.934,0,0,0,57.1,0H31.466L0,31.467,24.917,167.26H75.931a3.156,3.156,0,0,1,.514-4.02l64.57-64.57" transform="translate(51.449 85.896)"/><path class="i" d="M7.391,14.51H.821L0,0H8.213Z" transform="translate(79.405 253.156)"/><path class="i" d="M0,0H61.614A18.587,18.587,0,0,1,80.2,18.587v85.226H0Z" transform="translate(79.966 149.346)"/><path class="p" d="M.332,10.324C1.7,16.478,3.481,22.6,3.785,24.972c.768,6,18.814,6.049,16.042-4.146a113.159,113.159,0,0,1-3.26-14.581C15.334-2.352-2.646-3.039.332,10.324" transform="translate(216.958 225.916)"/><path class="q" d="M3.183,1.8C.761,2.49,0,12.485,0,20.979A2.02,2.02,0,0,0,2.023,23H40.479A2.019,2.019,0,0,0,42.49,20.75c-.3-2.531-1.43-6.528-5.523-8.352-6.235-2.777-10.38-5.626-12.225-9.528C22.8-1.238,15.822-.555,14.42,2.517c-2.462-1.587-3.657.953-6.605.953S4.77,1.345,3.183,1.8" transform="translate(216.143 244.668)"/><path class="r" d="M0,.638C3.821,3.6,12.094,1.655,13.964,0A32.349,32.349,0,0,0,27.849,9.28a8.878,8.878,0,0,0-1.368,3.891" transform="translate(217.291 251.297)"/><path class="r" d="M0,4.729A12.2,12.2,0,0,1,5.386,0" transform="translate(245.14 255.848)"/><path class="r" d="M42.346.5H0" transform="translate(216.143 263.968)"/><path d="M141.838,96.283,128.56,14.258c-1.538-7.335-7.472-11.6-14.354-10.851l-52.334.1L36.412,0,0,3.65.931,19.567C2.026,32.521,13.609,39.99,26.084,39.075l22.377-.05a136.011,136.011,0,0,0,14.4-.8l39.58-3.892a623.2,623.2,0,0,0,17.634,62.539Z" transform="translate(94.628 146.178)"/><path class="k" d="M77.2,55.023,58.971,19.243A23.333,23.333,0,0,0,43.682,4.884,4.575,4.575,0,0,0,39.494.431C27.392-.541,15.379-.042,3.825,3.742A5.513,5.513,0,0,0,.184,10.386L2.1,17.608A27.619,27.619,0,0,0,1.431,30.8L9.349,92.04A2.786,2.786,0,0,0,11.832,94.3c9.763.983,21.4-4.264,30.785-11.992a15.926,15.926,0,0,1,10.126-3.628H64.226L63.808,73.2a12.365,12.365,0,0,0,8.55-1.288h0A12.424,12.424,0,0,0,77.2,55.023" transform="translate(83.243 70.7)"/><path class="r" d="M0,0,5.589,43.15" transform="translate(141.881 106.233)"/><path class="r" d="M0,0C4.69.3,13.9,4.356,15.912,6.6" transform="translate(100.858 79.295)"/><path class="k" d="M9.6,69.924h0C2.839,68.765-1,63,.227,55.838l6.162-44.7C7.629,3.911,14.171-1,21,.173s11.364,7.981,10.123,15.21L24.716,60.039C23.489,67.2,16.365,71.085,9.6,69.924" transform="translate(73.646 79.288)"/><path class="r" d="M4.6,0,0,32.081" transform="translate(98.992 102.861)"/><path class="p" d="M49.287,18.2,11.066,20.647A10.336,10.336,0,1,1,10.654,0L49.028,5.247A6.486,6.486,0,0,1,49.287,18.2" transform="translate(75.319 128.791)"/><path class="p" d="M7.147,15.03h5.737c2.109,0,7.548-2.643,11.374-4.64,3.958-2.066,4.5-7.875.506-9.876a4.536,4.536,0,0,0-2.7-.47L5.435,2.309A6.331,6.331,0,0,0,0,8.575c0,3.5,3.652,6.455,7.147,6.455" transform="translate(114.048 132.37)"/><path class="p" d="M10.24,10.028c.724-.7.243-1.31-.262-2.242L4.867,1.264A3.2,3.2,0,0,0,2.418,0,2.362,2.362,0,0,0,.543.948,2.626,2.626,0,0,0,.527,4.125S4.965,8.3,6.631,9.663s3.141.815,3.609.365" transform="translate(145.004 136.749)"/><path class="p" d="M14.658,8.8a2.554,2.554,0,0,0-.721-4.414L3.921.159A2.965,2.965,0,0,0,.362,4.386,2.917,2.917,0,0,0,2.371,5.871L12.608,9.3a2.555,2.555,0,0,0,2.05-.5" transform="translate(134.618 132.627)"/><path class="p" d="M9.827,9.549c.724-.7.243-1.31-.261-2.242l-4.7-6.042A3.2,3.2,0,0,0,2.418,0,2.361,2.361,0,0,0,.544.948,2.625,2.625,0,0,0,.527,4.125s4.025,3.7,5.691,5.058,3.141.815,3.609.365" transform="translate(141.612 137.228)"/><path class="p" d="M11.166,9.555a2.553,2.553,0,0,0,.095-4.472L4.417.379A2.966,2.966,0,0,0,.147,3.889a2.919,2.919,0,0,0,1.7,1.826l7.206,3.96a2.553,2.553,0,0,0,2.108-.12" transform="translate(134.379 132.627)"/><path class="p" d="M7.848,10.037c.781-.515.444-1.158.141-2.1L4.714,1.608A2.977,2.977,0,0,0,2.686.035,2.2,2.2,0,0,0,.809.584,2.445,2.445,0,0,0,.254,3.49S3.31,7.561,4.6,9.089s2.738,1.28,3.243.948" transform="translate(138.13 137.06)"/><path class="p" d="M11.465,7.259a2.378,2.378,0,0,0-.74-4.1L3.608.133A2.764,2.764,0,0,0,.016,3.06,2.787,2.787,0,0,0,.36,4.126,2.72,2.72,0,0,0,2.253,5.477l7.31,2.282a2.376,2.376,0,0,0,1.9-.5" transform="translate(130.551 134.068)"/><path class="p" d="M5.721,10.11c.8-.321.614-.962.512-1.865L4.441,1.933A2.742,2.742,0,0,0,2.9.143,2.022,2.022,0,0,0,1.107.294,2.25,2.25,0,0,0,.074,2.813s2.011,4.232,2.9,5.847S5.2,10.317,5.721,10.11" transform="translate(134.617 137.098)"/><path class="p" d="M11.509,3.468A2.188,2.188,0,0,0,9.5.2L2.384,0A2.541,2.541,0,0,0,.943,4.511a2.5,2.5,0,0,0,2.075.522l7.03-.5a2.189,2.189,0,0,0,1.462-1.066" transform="translate(127.127 136.889)"/><path class="s" d="M8.675,9.461,4.3,2.815,0,0" transform="translate(143.133 135.938)"/><path class="s" d="M10.714,11.512l-4.771-8.9L0,0" transform="translate(136.352 134.942)"/><path class="s" d="M9.336,8.5,7.041,1.755A2.625,2.625,0,0,0,4.432,0L0,.227" transform="translate(132.013 137.324)"/><path class="l" d="M0,0H34.621V1.946H1.286A1.286,1.286,0,0,1,0,.66Z" transform="translate(115.825 147.4)"/><path class="e" d="M67.938,0H7.066a1.505,1.505,0,0,0-1.45,1.286L.011,45.2a1.108,1.108,0,0,0,1.122,1.286H62a1.505,1.505,0,0,0,1.45-1.286L69.06,1.286A1.108,1.108,0,0,0,67.938,0" transform="translate(145.691 102.861)"/><path class="i" d="M67.937,0H7.066a1.5,1.5,0,0,0-1.45,1.286L.011,45.2a1.108,1.108,0,0,0,1.122,1.286H62a1.5,1.5,0,0,0,1.45-1.286L69.059,1.286A1.108,1.108,0,0,0,67.937,0" transform="translate(147.514 102.861)"/><path class="r" d="M12.718,6.3A5.044,5.044,0,0,0,7.64,0,8.02,8.02,0,0,0,.119,6.3a5.043,5.043,0,0,0,5.076,6.3A8.02,8.02,0,0,0,12.718,6.3Z" transform="translate(175.631 119.804)"/><path class="p" d="M.092,8.845A148.045,148.045,0,0,0,3.5,25.673c2.518,11.2,17.705,5.811,15.643-4.55a96.4,96.4,0,0,1-1.5-13.172C16.98-.732-1.457-4.758.092,8.845" transform="translate(172.325 225.846)"/><path d="M29.559,93.576V13.087C29.2,4.406,22.328-1.187,13.753.215,6.669,1.372-.142,8.664,0,15.841c.384,19.065,3.74,49.828,8.383,77.735Z" transform="translate(162.591 149.814)"/><path class="t" d="M5.69,27.587V10.862A13.446,13.446,0,0,0,0,0" transform="translate(186.46 152.04)"/><path class="q" d="M2.5,1.395C.035,2.1,0,12.407,0,20.988A1.609,1.609,0,0,0,1.61,22.6H31.791A1.606,1.606,0,0,0,33.4,21.017,11.559,11.559,0,0,0,29.4,12c-3.291-2.87-3.505-5.626-5.35-9.529-1.942-4.108-10.909-2.5-12.312.572-2.462-1.588-2.688.14-5.635.14S4.083.942,2.5,1.395" transform="translate(171.957 244.869)"/><path class="r" d="M0,.018C2.62,2.976,8.657,1.654,9.939,0c4.022,6.907,6.3,8.66,6.3,8.66a10.191,10.191,0,0,0-1.369,3.891" transform="translate(172.418 251.715)"/><path class="r" d="M0,.5H33.4" transform="translate(171.958 263.766)"/><path class="r" d="M13.193,1.361C8.864-1.772,1.986,1.031,0,4.445" transform="translate(188.659 255.93)"/><path class="p" d="M12.144,38.245C8.425,34.3,6.856,32.77,0,28.96L12.031,0,27.725,14.714l-8.534,22.01a4.169,4.169,0,0,1-6.939,1.636l-.109-.114" transform="translate(110.615 46.082)"/><path class="u" d="M3.183,0C2.81.982.391,5.85.267,6.966c-1.429,12.806,2.958,22.883,11.284,26.1l7.174-18.5Z" transform="translate(120.699 43.44)"/><path d="M.653,13.014C2.451,3.647,10.781-1.361,19.547.322S34.9,9.767,32.4,19.108C29.93,28.321,15.978,42.749,7.211,41.066,3.1,36.514-1.787,25.72.653,13.014" transform="translate(120.066 26.41)"/><path class="p" d="M29.323,18.695,25.367,33.751A12.278,12.278,0,0,1,1.251,31.582L.046,16.061a14.906,14.906,0,0,1,29.722-2.309,15.233,15.233,0,0,1-.444,4.943" transform="translate(122.787 28.508)"/><path class="r" d="M3.13.673A3.42,3.42,0,0,1,0,0" transform="translate(145.966 52.522)"/><path class="r" d="M3.13.673A3.418,3.418,0,0,1,0,0" transform="translate(133.482 49.687)"/><path d="M1.71.082A3.672,3.672,0,0,1,2.956.028c.208.023.415.07.626.11.206.058.411.124.61.189s.384.167.567.25a1.835,1.835,0,0,1,.265.139.454.454,0,0,1,.063.045L5.24.833a1.455,1.455,0,0,1,.265.173,1.629,1.629,0,0,1,.562.8,1.736,1.736,0,0,1,.04.913L6,3.24a.478.478,0,0,1-.884.147,1.276,1.276,0,0,0-.548-.516c-.016,0-.036-.012-.044-.008H4.51l-.072-.014c-.1-.019-.193-.031-.29-.042l-.568-.061a13.388,13.388,0,0,0-2.245-.032A1.244,1.244,0,0,1,.953.264Z" transform="translate(145.114 47.457)"/><path d="M6.433,3.556c-.5-.19-.988-.4-1.491-.552s-1-.317-1.5-.451a8.192,8.192,0,0,0-1.424-.285,3.306,3.306,0,0,0-.687.034,2.012,2.012,0,0,0-.581.165.511.511,0,0,1-.7-.671l.2-.413A2.391,2.391,0,0,1,1.956.061a5.664,5.664,0,0,1,1-.061,6.528,6.528,0,0,1,.895.05A9.823,9.823,0,0,1,5.52.365,7.126,7.126,0,0,1,7.076.977l.436.239a1.291,1.291,0,0,1-1.079,2.34" transform="translate(131.67 44.488)"/><path d="M5.55,3.3h.012A14.882,14.882,0,0,1,10.354.71L10.43.686A14.951,14.951,0,0,1,12.49.2l.227-.034c.341-.051.686-.094,1.035-.121h0c.3-.023.6-.035.893-.041.089,0,.176,0,.264,0q.323,0,.642.013c.09,0,.18.008.27.013.241.015.481.035.72.061.049.006.1.009.147.015.3.036.6.08.893.134l.055.011c.275.052.547.111.817.177l.133.034c.268.068.532.143.8.226L19.428.7A14.976,14.976,0,0,1,26.8,5.937l.012,0a33.269,33.269,0,0,1,2.257,2.976c-1.925.93-4.027.965-8.454.576-3.186-.281-8.407-1.3-11.035-2.773-3.676,3.388-1.6,8.592-5.355,10.368C4.152,25.759,7.9,28.834,16.169,30.421c5.7,1.1,9.1-.165,11.18-4.216l-1.982,7.543A12.266,12.266,0,0,1,11.6,42.759a12.374,12.374,0,0,1-1.23-.257q-.487-.128-.953-.292c-.311-.109-.616-.23-.911-.362A12.171,12.171,0,0,1,6.04,40.383q-.376-.289-.726-.6a12.369,12.369,0,0,1-4.062-8.2L.576,22.888.045,16.057A14.889,14.889,0,0,1,5.55,3.3" transform="translate(122.787 28.513)"/><path class="p" d="M5.385,8.869a1.785,1.785,0,0,1-2.7.964A5.272,5.272,0,0,1,.2,3.959C1.037,1.2,3.44-.51,5.566.137s-.18,8.733-.18,8.733" transform="translate(117.753 42.825)"/><path class="p" d="M6.039,1.012c2.554.49,5.919.057,5.461,2.442A3.821,3.821,0,0,1,9.7,5.948,2.127,2.127,0,0,1,6.493,3.812L6.5,3.781c0-.009,0-.016.006-.025l-.959-.184-.958-.184c0,.009,0,.017,0,.025s0,.021-.007.031a2.128,2.128,0,0,1-3.769.8A3.82,3.82,0,0,1,.062,1.258C.52-1.126,3.485.522,6.039,1.012" transform="translate(132.003 60.47)"/><path class="p" d="M.5.5h0" transform="translate(130.586 65.282)"/><path class="r" d="M8.892,1.713A12.636,12.636,0,0,1,0,0" transform="translate(133.45 61.401)"/><path class="v" d="M4.63.893A5.693,5.693,0,0,1,0,0" transform="translate(137.136 57.362)"/><path class="e" d="M7.391,14.51H.821L0,0H8.213Z" transform="translate(151.393 253.156)"/><path class="d" d="M112.188,167.319V82.1A18.587,18.587,0,0,0,93.6,63.509H33.692l-9.824-51.36A14.934,14.934,0,0,0,9.2,0H0L31.987,167.319v0l.821,14.508h6.57l.821-14.508h63.776l.821,14.508h6.57Z" transform="translate(41.929 85.837)"/><path class="i" d="M8.211.052l0-.052H0L.442,7.8Q4.31,3.908,8.211.052" transform="translate(73.916 253.156)"/><path class="i" d="M8.182.553,8.213,0H0L.468,8.267,8.182.553" transform="translate(145.904 253.156)"/><path class="e" d="M7.391,14.51H.821L0,0H8.213Z" transform="translate(130.01 253.156)"/><path class="i" d="M7.391,14.51H.821L0,0H8.213Z" transform="translate(124.521 253.156)"/><path class="w" d="M40.3,23.555a16.187,16.187,0,0,1-2.628-12.847q.07-.32.118-.65A8.815,8.815,0,0,0,20.347,7.491c-.025.164-.045.329-.061.492a16.5,16.5,0,0,1-6.377,11.6,18.484,18.484,0,0,0-5.659,22.3,3.458,3.458,0,0,1-.979,4.168l-.023.018A18.57,18.57,0,1,0,35.5,53.161a3.479,3.479,0,0,1,1.083-4.177A18.551,18.551,0,0,0,40.3,23.555" transform="translate(22.778 156.541)"/><path class="w" d="M40.3,23.555a16.187,16.187,0,0,1-2.628-12.847q.07-.32.118-.65A8.815,8.815,0,0,0,20.347,7.491c-.025.164-.045.329-.061.492a16.5,16.5,0,0,1-6.377,11.6,18.484,18.484,0,0,0-5.659,22.3,3.458,3.458,0,0,1-.979,4.168l-.023.018A18.57,18.57,0,1,0,35.5,53.161a3.479,3.479,0,0,1,1.083-4.177A18.551,18.551,0,0,0,40.3,23.555" transform="translate(22.778 156.541)"/><path class="w" d="M11.322,4.513c.079.14.155.282.226.425a17.42,17.42,0,0,0,7.664,7.908A16.5,16.5,0,0,1,26.8,20.9a17.246,17.246,0,0,1,1.447,5.34,17.47,17.47,0,0,0,6.206,11.607,21.647,21.647,0,0,1,7.16,11.63c2.6,10.6-3.033,20.66-11.921,22.839-.365.1-.73.173-1.1.243A227.989,227.989,0,0,0,0,1.262C3.629-1.3,8.87.165,11.322,4.513" transform="translate(5.134 140.809)"/><path class="w" d="M10.036,57.484a19.961,19.961,0,0,1-.279-10.757A12.252,12.252,0,0,0,7.078,35.46,15.9,15.9,0,0,1,3.267,21.249a12.777,12.777,0,0,0-1.784-9.862q-.225-.338-.425-.705A8.3,8.3,0,0,1,3.218,0,227.989,227.989,0,0,1,31.812,71.3c-9.63,1.678-18.9-4.537-21.776-13.812" transform="translate(1.916 142.072)"/><path class="w" d="M10.036,57.484a19.961,19.961,0,0,1-.279-10.757A12.252,12.252,0,0,0,7.078,35.46,15.9,15.9,0,0,1,3.267,21.249a12.777,12.777,0,0,0-1.784-9.862q-.225-.338-.425-.705A8.3,8.3,0,0,1,3.218,0,227.989,227.989,0,0,1,31.812,71.3c-9.63,1.678-18.9-4.537-21.776-13.812" transform="translate(1.916 142.072)"/><path class="r" d="M0,0A227.955,227.955,0,0,1,13.461,46.716a190.2,190.2,0,0,1,2.394,24.347" transform="translate(21.947 175.252)"/><path class="x" d="M14.121,10.538c0,.2.006.39.016.583a17.975,17.975,0,0,1-4.17,12.748A19.329,19.329,0,0,0,6.456,42.886,17.131,17.131,0,0,1,4.351,58.349,24.655,24.655,0,0,0,23.684,96.972c.516.02,1.028.019,1.537.008V.015a10.54,10.54,0,0,0-11.1,10.524" transform="translate(18.415 104.566)"/><path class="x" d="M24.1,72.318A24.526,24.526,0,0,0,19.792,58.4a16.891,16.891,0,0,1-2.215-15.344,19.265,19.265,0,0,0,1.18-6.662,19.227,19.227,0,0,0-4.626-12.538A17.109,17.109,0,0,1,9.943,11.391a10.539,10.539,0,0,0,.034-1.067A10.614,10.614,0,0,0,0,0V96.965A24.656,24.656,0,0,0,24.1,72.318" transform="translate(43.636 104.58)"/><path class="r" d="M.5,0V126.171" transform="translate(43.136 104.58)"/><path class="r" d="M.5,0V44.769" transform="translate(43.136 201.546)"/><path class="x" d="M31.315,24.834a20.733,20.733,0,0,0-9.76-9.872A20.815,20.815,0,0,1,11.875,5.59q-.149-.3-.323-.6C9.146.838,3.835-1.129,0,.665A318.005,318.005,0,0,1,22.561,46.147c8.745-2.453,13.08-11.944,8.754-21.313" transform="translate(3.821 182.695)"/><path class="w" d="M1.2,10.466c.08.138.162.273.248.407A14.652,14.652,0,0,1,3.462,22.806a17.4,17.4,0,0,0,1.18,12.243C8.588,43.3,17.95,47.84,26.382,45.482A318.005,318.005,0,0,0,3.821,0C-.018,1.79-1.1,6.473,1.2,10.466" transform="translate(0 183.36)"/><path class="r" d="M0,0A318.082,318.082,0,0,1,22.562,45.482,71.6,71.6,0,0,1,26.054,57.31" transform="translate(3.821 183.36)"/><path class="w" d="M21.986,4.437c-.056.125-.107.25-.155.377a14.743,14.743,0,0,1-5.8,7.3,13.969,13.969,0,0,0-5.724,7.413,14.582,14.582,0,0,0-.777,4.618A14.793,14.793,0,0,1,5.261,34.434,18.331,18.331,0,0,0,.192,44.825c-1.314,9.143,4.267,17.154,11.935,18.254.316.05.63.085.944.113A192.992,192.992,0,0,1,31.255.761C27.985-1.1,23.692.57,21.986,4.437" transform="translate(40.698 162.03)"/><path class="x" d="M17.2,48.992a16.889,16.889,0,0,0-.656-9.085,10.372,10.372,0,0,1,1.323-9.714A13.46,13.46,0,0,0,19.9,17.906a10.816,10.816,0,0,1,.686-8.455c.108-.2.208-.413.3-.63A7.027,7.027,0,0,0,18.184,0,193.008,193.008,0,0,0,0,62.432c8.252.616,15.549-5.387,17.2-13.44" transform="translate(53.769 162.791)"/><path class="r" d="M19.354,0A193.008,193.008,0,0,0,1.17,62.432C.45,67.961,0,73.1,0,73.1" transform="translate(52.599 162.791)"/><path class="k" d="M0,0H37.093L32.849,36.747H4.248Z" transform="translate(23.22 231.902)"/><path class="r" d="M35.066.5H0" transform="translate(24.234 240.17)"/><path class="q" d="M3.6,1.8A1.8,1.8,0,1,0,1.8,3.6,1.8,1.8,0,0,0,3.6,1.8" transform="translate(159.541 33.552)"/><path class="r" d="M4.461,2.231a2.23,2.23,0,1,0-2.23,2.231A2.23,2.23,0,0,0,4.461,2.231Z" transform="translate(210.211 135.3)"/><path class="k" d="M3.6,1.8A1.8,1.8,0,1,0,1.8,3.6,1.8,1.8,0,0,0,3.6,1.8" transform="translate(16.023 128.086)"/><path class="r" d="M3.6,1.8A1.8,1.8,0,1,0,1.8,3.6,1.8,1.8,0,0,0,3.6,1.8Z" transform="translate(104.86 250.997)"/></g></g></svg>