<svg xmlns="http://www.w3.org/2000/svg" xmlns:xlink="http://www.w3.org/1999/xlink" width="481.823" height="500.096" viewBox="0 0 481.823 500.096"><defs><style>.a,.c,.r,.s,.t,.v{fill:none;}.b{fill:#f5f8fc;}.c{stroke:#edebff;stroke-width:4px;}.c,.r,.s,.t,.v{stroke-linecap:round;stroke-miterlimit:10;}.c,.r,.v{stroke-linejoin:round;}.d{fill:#edebff;}.e{fill:#c7bffe;}.f{clip-path:url(#a);}.g{fill:#ddd8ff;}.h{clip-path:url(#b);}.i{fill:#e2defc;}.j{fill:#fff;}.k{fill:#ff628d;}.l{fill:#bad0f7;}.m{fill:#d6e3f8;}.n{fill:#e8f0fc;}.o{fill:#ded9fc;}.p{fill:#c18a6f;}.q{fill:#473d8e;}.r{stroke:#000;}.s,.v{stroke:#a0614b;}.t{stroke:#f3edf7;}.u{fill:#a0614b;}.w{fill:#1f7c71;}.x{fill:#2b9086;}</style><clipPath id="a"><path class="a" d="M0,0H163.374V131.609H0Z"/></clipPath><clipPath id="b"><path class="a" d="M0,500.1H481.823V0H0Z"/></clipPath></defs><g transform="translate(0 -1)"><path class="b" d="M152.356,77.878H12.8A12.8,12.8,0,0,1,0,65.074V12.8A12.8,12.8,0,0,1,12.8,0H152.356a12.8,12.8,0,0,1,12.8,12.8v52.27a12.8,12.8,0,0,1-12.8,12.8" transform="translate(202.234 123.901)"/><path class="c" d="M0,.5H126.122" transform="translate(221.753 174.427)"/><path class="d" d="M165.16,28.376V12.8A12.8,12.8,0,0,0,152.356,0H12.8A12.8,12.8,0,0,0,0,12.8V28.376Z" transform="translate(202.234 123.9)"/><path class="e" d="M8.565,4.283A4.282,4.282,0,1,0,4.282,8.566,4.282,4.282,0,0,0,8.565,4.283" transform="translate(347.875 133.806)"/><g transform="translate(107.909 1)"><path class="a" d="M0,0H163.374V131.609H0Z" transform="translate(0)"/><g class="f" transform="translate(0)"><path class="b" d="M149.813,131.609H13.56A13.559,13.559,0,0,1,0,118.05V13.561A13.56,13.56,0,0,1,13.56,0H149.813a13.56,13.56,0,0,1,13.561,13.561V118.05a13.559,13.559,0,0,1-13.561,13.56" transform="translate(0 0)"/></g></g><path class="g" d="M40.306,20.152A20.153,20.153,0,1,0,20.154,40.306,20.153,20.153,0,0,0,40.306,20.152" transform="translate(169.889 21.502)"/><path class="c" d="M0,.5H115.635" transform="translate(132.225 78.372)"/><path class="c" d="M0,.5H64.419" transform="translate(157.833 103.98)"/><path class="a" d="M0,500.1H481.823V0H0Z" transform="translate(0 1)"/><g class="h" transform="translate(0 1)"><path class="b" d="M0,44.2H34.487V0H0Z" transform="translate(45.542 84.681)"/><path class="i" d="M50.256,0H0L7.885,8.247H42.371Z" transform="translate(37.657 76.434)"/><path class="j" d="M0,8.247H50.256L42.371,0H7.885Z" transform="translate(37.657 128.879)"/><path class="d" d="M55.268,65.934H0V0H55.268V65.933ZM2.505,2.62l7.886,8.248v44.2L2.505,63.312H52.762l-7.886-8.248v-44.2L52.762,2.62Z" transform="translate(35.151 73.814)"/><path class="k" d="M27.553,41.417H2.5L0,0H30.051l-.462,7.659a14.439,14.439,0,0,1-1.676,27.791l-.361,5.967ZM29.346,11.69,28.157,31.416A10.592,10.592,0,0,0,29.346,11.69Z" transform="translate(414.99 326.234)"/><path class="l" d="M186.807,130.239H170.333V73.644H118.409v56.593H101.935V73.644H84.872v56.593H68.4V73.644H16.475v56.593H0V0H186.807V130.237Zm-68.4-117V60.4h51.923V13.242Zm-33.537,0V60.4h17.063V13.242Zm-68.4,0V60.4H68.4V13.242Z" transform="translate(280.046 367.653)"/><path class="m" d="M111.949,130.24H101.935V73.646H10.014v56.593H0V0H111.949V130.238Zm-101.935-117V60.4h91.921V13.243H10.014Z" transform="translate(354.904 367.652)"/><path class="m" d="M0,0H125.956a34.6,34.6,0,0,1,34.6,34.6V193.248H0Z" transform="translate(230.755 278.011)"/><path class="l" d="M0,0H114.7a34.6,34.6,0,0,1,34.6,34.6V193.248H0Z" transform="translate(230.755 278.011)"/><path class="m" d="M13.759,27.012H1.529L0,0H15.288Z" transform="translate(376.023 471.255)"/><path class="n" d="M13.759,27.012H1.529L0,0H15.288Z" transform="translate(365.806 471.255)"/><path class="o" d="M281.279,183.786H175.12l-30.83-161.17A27.8,27.8,0,0,0,116.979,0H0L59.544,311.467H308.7V211.207a27.421,27.421,0,0,0-27.42-27.421" transform="translate(82.612 159.787)"/><path class="e" d="M262.5,183.676H161.959L131.128,22.506A27.8,27.8,0,0,0,106.3,0H58.575L0,58.576,46.383,311.357h94.964a5.876,5.876,0,0,1,.958-7.483q60.1-60.1,120.2-120.2" transform="translate(95.774 159.897)"/><path class="i" d="M13.759,27.012H1.528L0,0H15.288Z" transform="translate(147.814 471.255)"/><path class="i" d="M0,0H114.7a34.6,34.6,0,0,1,34.6,34.6V193.248H0Z" transform="translate(148.858 278.011)"/><path class="p" d="M.619,19.219c2.552,11.456,5.86,22.849,6.426,27.266,1.429,11.16,35.022,11.26,29.862-7.718-4.027-14.8-5.256-21.472-6.069-27.142C28.545-4.378-4.925-5.658.619,19.219" transform="translate(403.872 420.547)"/><path class="q" d="M5.924,3.348C1.417,4.636,0,23.24,0,39.054a3.761,3.761,0,0,0,3.766,3.759H75.352A3.759,3.759,0,0,0,79.1,38.627c-.551-4.712-2.662-12.152-10.282-15.547C57.207,17.91,49.492,12.608,46.058,5.344c-3.615-7.648-16.6-6.376-19.215-.659-4.584-2.954-6.807,1.773-12.3,1.773S8.88,2.5,5.924,3.348" transform="translate(402.354 455.453)"/><path class="r" d="M0,1.188C7.113,6.7,22.513,3.081,25.995,0A60.217,60.217,0,0,0,51.841,17.275a16.527,16.527,0,0,0-2.547,7.243" transform="translate(404.491 467.794)"/><path class="r" d="M0,8.8C3.887,2.941,8.455.575,10.027,0" transform="translate(456.332 476.266)"/><path class="r" d="M78.828.5H0" transform="translate(402.354 491.812)"/><path d="M264.034,179.233,239.316,26.542c-2.863-13.654-13.909-21.6-26.721-20.2l-97.42.195L67.782,0,0,6.794l1.734,29.63c2.037,24.114,23.6,38.019,46.822,36.315l41.656-.093a253.188,253.188,0,0,0,26.814-1.483L190.7,63.917A1160.107,1160.107,0,0,0,223.53,180.334Z" transform="translate(176.151 272.113)"/><path class="k" d="M143.714,102.426l-33.939-66.6a43.436,43.436,0,0,0-28.46-26.73A8.517,8.517,0,0,0,73.519.8c-22.528-1.809-44.891-.88-66.4,6.164A10.262,10.262,0,0,0,.342,19.333L3.907,32.777A51.413,51.413,0,0,0,2.664,57.339L17.4,171.334a5.187,5.187,0,0,0,4.621,4.213c18.174,1.83,39.84-7.937,57.306-22.323a29.646,29.646,0,0,1,18.85-6.754h21.378l-.778-10.209a23.018,23.018,0,0,0,15.916-2.4h0a23.127,23.127,0,0,0,9.018-31.438" transform="translate(154.959 131.609)"/><path class="r" d="M0,0,10.4,80.324" transform="translate(264.114 197.756)"/><path class="r" d="M0,0C8.73.566,25.878,8.109,29.621,12.288" transform="translate(187.749 147.609)"/><path class="k" d="M17.874,130.165h0C5.285,128.007-1.862,117.267.422,103.944l11.47-83.207C14.2,7.281,26.38-1.859,39.094.322S60.248,15.178,57.94,28.635L46.01,111.763c-2.286,13.323-15.547,20.562-28.136,18.4" transform="translate(137.094 147.596)"/><path class="r" d="M8.57,0,0,59.72" transform="translate(184.276 191.478)"/><path class="p" d="M91.748,33.879,20.6,38.434A19.241,19.241,0,1,1,19.833.009L91.267,9.767a12.074,12.074,0,0,1,.481,24.111" transform="translate(140.207 239.747)"/><path class="p" d="M13.3,27.979h10.68c3.926,0,14.05-4.921,21.173-8.638C52.526,15.5,53.53,4.681,46.1.957A8.443,8.443,0,0,0,41.07.081L10.117,4.3A11.784,11.784,0,0,0,0,15.962c0,6.507,6.8,12.017,13.3,12.017" transform="translate(212.302 246.41)"/><path class="p" d="M19.063,18.667c1.348-1.3.453-2.438-.488-4.174L9.06,2.354A5.954,5.954,0,0,0,4.5,0,4.4,4.4,0,0,0,1.011,1.765,4.887,4.887,0,0,0,.981,7.679s8.262,7.777,11.364,10.309,5.846,1.517,6.718.68" transform="translate(269.929 254.561)"/><path class="p" d="M27.287,16.382a4.754,4.754,0,0,0-1.342-8.218L7.3.3A5.52,5.52,0,0,0,.675,8.165,5.431,5.431,0,0,0,4.414,10.93L23.47,17.315a4.755,4.755,0,0,0,3.817-.933" transform="translate(250.593 246.888)"/><path class="p" d="M18.294,17.775c1.348-1.3.453-2.438-.487-4.174L9.06,2.354A5.952,5.952,0,0,0,4.5,0,4.4,4.4,0,0,0,1.012,1.765,4.886,4.886,0,0,0,.981,7.679s7.493,6.885,10.594,9.416,5.846,1.517,6.718.68" transform="translate(263.613 255.453)"/><path class="p" d="M20.785,17.786a4.752,4.752,0,0,0,.177-8.324L8.222.706A5.521,5.521,0,0,0,.274,7.24a5.433,5.433,0,0,0,3.173,3.4l13.415,7.371a4.752,4.752,0,0,0,3.923-.223" transform="translate(250.149 246.888)"/><path class="p" d="M14.608,18.684c1.455-.959.827-2.156.262-3.9L8.775,2.994A5.543,5.543,0,0,0,5,.065,4.1,4.1,0,0,0,1.506,1.086,4.551,4.551,0,0,0,.473,6.5s5.689,7.577,8.1,10.423,5.1,2.383,6.037,1.764" transform="translate(257.132 255.14)"/><path class="p" d="M21.342,13.513a4.426,4.426,0,0,0-1.378-7.63L6.716.248A5.145,5.145,0,0,0,.03,5.7,5.188,5.188,0,0,0,.67,7.681,5.063,5.063,0,0,0,4.195,10.2L17.8,14.442a4.424,4.424,0,0,0,3.54-.93" transform="translate(243.022 249.571)"/><path class="p" d="M10.651,18.819c1.487-.6,1.143-1.791.953-3.472L8.268,3.6A5.1,5.1,0,0,0,5.4.266a3.765,3.765,0,0,0-3.338.28A4.188,4.188,0,0,0,.137,5.237S3.88,13.114,5.53,16.121s4.157,3.083,5.12,2.7" transform="translate(250.593 255.211)"/><path class="p" d="M21.424,6.456A4.073,4.073,0,0,0,17.682.38L4.438,0A4.729,4.729,0,0,0,1.755,8.4a4.651,4.651,0,0,0,3.863.972L18.7,8.44a4.074,4.074,0,0,0,2.721-1.985" transform="translate(236.649 254.822)"/><path class="s" d="M16.149,17.612,8.005,5.241,0,0" transform="translate(266.444 253.051)"/><path class="s" d="M19.944,21.429,11.061,4.855,0,0" transform="translate(253.823 251.198)"/><path class="s" d="M17.379,15.831,13.108,3.266A4.887,4.887,0,0,0,8.25.006L0,.422" transform="translate(245.745 255.631)"/><path class="l" d="M0,0H64.448V3.622H2.393A2.4,2.4,0,0,1,0,1.228Z" transform="translate(215.61 274.389)"/><path class="e" d="M126.468,0H13.154a2.8,2.8,0,0,0-2.7,2.394L.02,84.138a2.062,2.062,0,0,0,2.088,2.394H115.422a2.8,2.8,0,0,0,2.7-2.394L128.556,2.394A2.062,2.062,0,0,0,126.468,0" transform="translate(271.207 191.478)"/><path class="i" d="M126.467,0H13.154a2.8,2.8,0,0,0-2.7,2.394L.02,84.138a2.062,2.062,0,0,0,2.088,2.394H115.42a2.8,2.8,0,0,0,2.7-2.394L128.555,2.394A2.062,2.062,0,0,0,126.467,0" transform="translate(274.6 191.478)"/><path class="r" d="M23.674,11.727C24.93,5.251,20.7,0,14.222,0S1.477,5.251.221,11.727,3.2,23.455,9.671,23.455,22.418,18.2,23.674,11.727Z" transform="translate(326.94 223.017)"/><path class="p" d="M.172,16.466C1.606,29.06,5.547,43.445,6.524,47.791c4.688,20.85,32.959,10.818,29.119-8.47-2.109-10.6-2.353-18.808-2.793-24.52C31.609-1.363-2.712-8.857.172,16.466" transform="translate(320.787 420.416)"/><path d="M55.025,174.194V24.361C54.347,8.2,41.564-2.21,25.6.4,12.414,2.555-.265,16.128,0,29.488c.714,35.49,6.962,92.757,15.606,144.705Z" transform="translate(302.667 278.882)"/><path class="t" d="M10.593,51.355V20.219C10.22,11.343,6.2,4.2,0,0" transform="translate(347.099 283.025)"/><path class="q" d="M4.646,2.6C.066,3.905-.007,23.1,0,39.069a3,3,0,0,0,3,2.992H59.18a2.99,2.99,0,0,0,3-2.939,21.518,21.518,0,0,0-7.44-16.794c-6.127-5.342-6.525-10.472-9.959-17.738C41.163-3.055,24.472-.062,21.86,5.657c-4.584-2.955-5,.26-10.49.26S7.6,1.753,4.646,2.6" transform="translate(320.102 455.829)"/><path class="r" d="M0,.033C4.877,5.54,16.115,3.079,18.5,0c7.487,12.857,11.731,16.12,11.731,16.12a18.971,18.971,0,0,0-2.549,7.243" transform="translate(320.959 468.572)"/><path class="r" d="M0,.5H62.179" transform="translate(320.104 491.436)"/><path class="r" d="M24.56,2.533C16.5-3.3,3.7,1.92,0,8.275" transform="translate(351.192 476.418)"/><path class="p" d="M22.606,71.195C15.682,63.857,12.762,61,0,53.909L22.4,0,51.611,27.391,35.725,68.362a7.76,7.76,0,0,1-12.917,3.045l-.2-.213" transform="translate(205.912 85.782)"/><path class="u" d="M5.924,0C5.232,1.827.727,10.89.5,12.967-2.163,36.805,6,55.565,21.5,61.556l13.355-34.43Z" transform="translate(224.683 80.865)"/><path d="M1.215,24.225C4.562,6.788,20.069-2.533,36.388.6S64.969,18.181,60.31,35.571c-4.6,17.15-30.567,44.008-46.886,40.875C5.777,67.971-3.326,47.879,1.215,24.225" transform="translate(223.505 49.163)"/><path class="p" d="M54.585,34.8,47.22,62.829A22.856,22.856,0,0,1,2.328,58.79L.085,29.9a27.747,27.747,0,0,1,55.328-4.3,28.357,28.357,0,0,1-.827,9.2" transform="translate(228.57 53.069)"/><path class="r" d="M5.826,1.254A6.366,6.366,0,0,1,0,0" transform="translate(271.718 97.772)"/><path class="r" d="M5.826,1.254A6.363,6.363,0,0,1,0,0" transform="translate(248.479 92.492)"/><path d="M3.183.153A6.836,6.836,0,0,1,5.5.052c.387.044.773.131,1.165.2.383.109.764.23,1.136.352.367.143.714.311,1.055.465a3.415,3.415,0,0,1,.493.259.845.845,0,0,1,.117.085l.286.133a2.708,2.708,0,0,1,.493.321,3.033,3.033,0,0,1,1.046,1.481,3.232,3.232,0,0,1,.074,1.7l-.193.98A.89.89,0,0,1,9.529,6.3a2.376,2.376,0,0,0-1.02-.96c-.029,0-.067-.022-.082-.014a.141.141,0,0,1-.031,0L8.263,5.3c-.179-.036-.359-.058-.539-.078L6.666,5.11a24.921,24.921,0,0,0-4.179-.059A2.315,2.315,0,0,1,1.773.491Z" transform="translate(270.133 88.342)"/><path d="M11.975,6.62c-.924-.353-1.84-.736-2.775-1.027S7.34,5,6.416,4.754a15.25,15.25,0,0,0-2.652-.531,6.153,6.153,0,0,0-1.279.063A3.745,3.745,0,0,0,1.4,4.593.95.95,0,0,1,.1,3.343l.38-.768A4.451,4.451,0,0,1,3.642.113,10.544,10.544,0,0,1,5.5,0,12.153,12.153,0,0,1,7.164.092,18.286,18.286,0,0,1,10.276.68a13.265,13.265,0,0,1,2.9,1.14l.812.444A2.4,2.4,0,0,1,11.975,6.62" transform="translate(245.106 82.816)"/><path d="M10.332,6.143l.022,0a27.7,27.7,0,0,1,8.921-4.825l.141-.045A27.831,27.831,0,0,1,23.25.366c.141-.023.282-.044.423-.064C24.307.207,24.949.127,25.6.077h0C26.159.033,26.712.012,27.264,0c.165,0,.328,0,.492,0q.6,0,1.2.024c.168.008.335.014.5.024.448.028.9.065,1.341.114.091.01.183.017.273.028.56.067,1.114.149,1.663.25l.1.02c.512.1,1.018.206,1.521.329L34.6.854c.5.127.991.266,1.48.42l.083.026a27.878,27.878,0,0,1,13.726,9.753l.023,0a61.929,61.929,0,0,1,4.2,5.54c-3.583,1.731-7.5,1.8-15.738,1.072-5.931-.522-15.65-2.42-20.542-5.161-6.843,6.307-2.987,15.995-9.968,19.3C7.73,47.951,14.711,53.675,30.1,56.629c10.617,2.038,16.942-.307,20.812-7.849L47.221,62.821A22.833,22.833,0,0,1,21.6,79.6a23.031,23.031,0,0,1-2.289-.479q-.907-.238-1.773-.543c-.579-.2-1.146-.429-1.7-.673a22.656,22.656,0,0,1-4.6-2.727q-.7-.538-1.352-1.123A23.024,23.024,0,0,1,2.329,58.782L1.073,42.607.085,29.89A27.716,27.716,0,0,1,10.332,6.143" transform="translate(228.57 53.077)"/><path class="p" d="M10.025,16.51A3.324,3.324,0,0,1,5.006,18.3c-4-2.653-5.853-6.94-4.638-10.935C1.93,2.236,6.4-.949,10.361.254s-.335,16.256-.335,16.256" transform="translate(219.199 79.719)"/><path class="p" d="M11.241,1.884C16,2.8,22.259,1.99,21.408,6.429a7.113,7.113,0,0,1-3.353,4.643A3.96,3.96,0,0,1,12.088,7.1l.012-.058c0-.017.008-.029.012-.046l-1.785-.342L8.542,6.308c0,.017,0,.031-.005.047s-.008.038-.013.058A3.96,3.96,0,0,1,1.509,7.9,7.111,7.111,0,0,1,.114,2.341C.967-2.1,6.487.971,11.241,1.884" transform="translate(245.726 112.567)"/><path class="p" d="M.5.5h0" transform="translate(243.517 121.954)"/><path class="r" d="M16.553,3.189A23.522,23.522,0,0,1,0,0" transform="translate(248.419 114.299)"/><path class="v" d="M8.618,1.662A10.6,10.6,0,0,1,0,0" transform="translate(255.281 106.78)"/><path class="e" d="M13.759,27.012H1.528L0,0H15.288Z" transform="translate(281.82 471.255)"/><path class="d" d="M208.84,311.467V152.823a34.6,34.6,0,0,0-34.6-34.6H62.718L44.43,22.616A27.8,27.8,0,0,0,17.119,0H0L59.544,311.467v0l1.529,27.008H73.3l1.529-27.008h118.72l1.529,27.008h12.23Z" transform="translate(78.052 159.788)"/><path class="i" d="M15.284.1l.005-.1H0L.822,14.511Q8.022,7.274,15.284.1" transform="translate(137.596 471.254)"/><path class="i" d="M15.23,1.029,15.289,0H0L.871,15.389,15.23,1.029" transform="translate(271.602 471.254)"/><path class="e" d="M13.759,27.012H1.529L0,0H15.288Z" transform="translate(242.016 471.255)"/><path class="i" d="M13.759,27.012H1.529L0,0H15.288Z" transform="translate(231.799 471.255)"/><path class="w" d="M75.018,43.848a30.132,30.132,0,0,1-4.892-23.915q.131-.6.219-1.21a16.409,16.409,0,0,0-32.467-4.778c-.046.306-.083.612-.114.917A30.714,30.714,0,0,1,25.892,36.455,34.409,34.409,0,0,0,15.358,77.97a6.437,6.437,0,0,1-1.823,7.759c-.014.012-.028.023-.044.033A34.568,34.568,0,1,0,66.08,98.96,6.476,6.476,0,0,1,68.1,91.185a34.533,34.533,0,0,0,6.922-47.337" transform="translate(42.401 291.405)"/><path class="w" d="M75.018,43.848a30.132,30.132,0,0,1-4.892-23.915q.131-.6.219-1.21a16.409,16.409,0,0,0-32.467-4.778c-.046.306-.083.612-.114.917A30.714,30.714,0,0,1,25.892,36.455,34.409,34.409,0,0,0,15.358,77.97a6.437,6.437,0,0,1-1.823,7.759c-.014.012-.028.023-.044.033A34.568,34.568,0,1,0,66.08,98.96,6.476,6.476,0,0,1,68.1,91.185a34.533,34.533,0,0,0,6.922-47.337" transform="translate(42.401 291.405)"/><path class="w" d="M21.077,8.4c.147.261.288.525.42.791A32.428,32.428,0,0,0,35.763,23.913,30.717,30.717,0,0,1,49.886,38.905a32.1,32.1,0,0,1,2.693,9.94A32.52,32.52,0,0,0,64.132,70.452,40.3,40.3,0,0,1,77.461,92.1c4.843,19.726-5.645,38.458-22.192,42.515-.68.178-1.36.323-2.041.452A424.406,424.406,0,0,0,0,2.35C6.755-2.42,16.511.306,21.077,8.4" transform="translate(9.557 262.12)"/><path class="w" d="M18.682,107.008a37.157,37.157,0,0,1-.52-20.024,22.807,22.807,0,0,0-4.987-20.974A29.6,29.6,0,0,1,6.082,39.556,23.785,23.785,0,0,0,2.76,21.2q-.419-.63-.791-1.312C-1.747,13.017-.092,4.283,5.991,0A424.406,424.406,0,0,1,59.219,132.718c-17.927,3.123-35.187-8.446-40.536-25.711" transform="translate(3.566 264.47)"/><path class="w" d="M18.682,107.008a37.157,37.157,0,0,1-.52-20.024,22.807,22.807,0,0,0-4.987-20.974A29.6,29.6,0,0,1,6.082,39.556,23.785,23.785,0,0,0,2.76,21.2q-.419-.63-.791-1.312C-1.747,13.017-.092,4.283,5.991,0A424.406,424.406,0,0,1,59.219,132.718c-17.927,3.123-35.187-8.446-40.536-25.711" transform="translate(3.566 264.47)"/><path class="r" d="M0,0A424.342,424.342,0,0,1,25.058,86.963c4.339,28.713,4.456,45.323,4.456,45.323" transform="translate(40.856 326.235)"/><path class="x" d="M26.286,19.617c0,.365.01.726.029,1.086a33.462,33.462,0,0,1-7.762,23.73,35.98,35.98,0,0,0-6.535,35.4A31.89,31.89,0,0,1,8.1,108.617a45.9,45.9,0,0,0,35.99,71.9c.96.037,1.913.036,2.862.014V.027a19.62,19.62,0,0,0-20.665,19.59" transform="translate(34.28 194.651)"/><path class="x" d="M44.86,134.622a45.656,45.656,0,0,0-8.018-25.914c-5.762-8.4-7.641-19-4.123-28.563a35.862,35.862,0,0,0,2.2-12.4A35.792,35.792,0,0,0,26.306,44.4a31.849,31.849,0,0,1-7.8-23.2,19.619,19.619,0,0,0,.063-1.986A19.758,19.758,0,0,0,0,0V180.5a45.9,45.9,0,0,0,44.86-45.881" transform="translate(81.23 194.678)"/><path class="r" d="M.5,0V234.871" transform="translate(80.73 194.678)"/><path class="r" d="M.5,0V83.338" transform="translate(80.73 375.182)"/><path class="x" d="M58.293,46.229A38.594,38.594,0,0,0,40.125,27.852,38.748,38.748,0,0,1,22.1,10.407q-.277-.565-.6-1.123C17.026,1.56,7.14-2.1,0,1.238A591.973,591.973,0,0,1,42,85.9c16.279-4.566,24.35-22.234,16.3-39.675" transform="translate(7.113 340.089)"/><path class="w" d="M2.234,19.483c.149.257.3.508.461.757a27.275,27.275,0,0,1,3.75,22.214,32.384,32.384,0,0,0,2.2,22.79C15.987,80.6,33.414,89.055,49.111,84.666A591.973,591.973,0,0,0,7.113,0C-.034,3.333-2.052,12.05,2.234,19.483" transform="translate(-0.001 341.328)"/><path class="r" d="M0,0A592.116,592.116,0,0,1,42,84.666c5.361,14.7,6.5,22.018,6.5,22.018" transform="translate(7.112 341.328)"/><path class="w" d="M40.927,8.259c-.1.233-.2.466-.289.7a27.444,27.444,0,0,1-10.8,13.583,26,26,0,0,0-10.656,13.8,27.145,27.145,0,0,0-1.446,8.6A27.537,27.537,0,0,1,9.794,64.1,34.123,34.123,0,0,0,.358,83.442c-2.446,17.019,7.942,31.932,22.218,33.979.588.093,1.173.159,1.757.211A359.258,359.258,0,0,1,58.182,1.417C52.1-2.043,44.1,1.061,40.927,8.259" transform="translate(75.76 301.622)"/><path class="x" d="M32.022,91.2A31.439,31.439,0,0,0,30.8,74.288,19.308,19.308,0,0,1,33.264,56.2,25.056,25.056,0,0,0,37.05,33.332a20.134,20.134,0,0,1,1.277-15.74c.2-.379.388-.768.557-1.173C41.446,10.325,39.329,3.1,33.85,0A359.287,359.287,0,0,0,0,116.218c15.361,1.146,28.945-10.028,32.022-25.018" transform="translate(100.092 303.038)"/><path class="r" d="M36.028,0A359.287,359.287,0,0,0,2.178,116.218C.837,126.511,0,136.083,0,136.083" transform="translate(97.913 303.038)"/><path class="k" d="M0,0H69.049l-7.9,68.4H7.908Z" transform="translate(43.225 431.691)"/><path class="r" d="M65.275.5H0" transform="translate(45.112 447.512)"/><path class="q" d="M6.7,3.347A3.348,3.348,0,1,0,3.348,6.694,3.347,3.347,0,0,0,6.7,3.347" transform="translate(296.988 62.458)"/><path class="r" d="M8.3,4.152A4.152,4.152,0,1,0,4.152,8.3,4.151,4.151,0,0,0,8.3,4.152Z" transform="translate(391.312 251.864)"/><path class="k" d="M6.7,3.347A3.348,3.348,0,1,0,3.348,6.694,3.347,3.347,0,0,0,6.7,3.347" transform="translate(29.828 238.434)"/><path class="r" d="M6.694,3.347A3.347,3.347,0,1,0,3.347,6.694,3.346,3.346,0,0,0,6.694,3.347Z" transform="translate(195.198 467.236)"/></g></g></svg>