<svg xmlns="http://www.w3.org/2000/svg" width="634.198" height="524.917" viewBox="0 0 634.198 524.917"><defs><style>.a{fill:rgba(71,61,142,0.86);}.b,.m{opacity:0.3;}.c{fill:#fff;}.d{fill:rgba(71,61,142,0.18);}.e{fill:#d3d1df;}.f{fill:#53a07c;}.g{fill:#b9edd6;}.h{fill:#7fc6a6;}.i{fill:#4b8c6b;}.j{fill:#217f7a;}.k{fill:#e23e3d;}.l{fill:#3f9896;}.m{mix-blend-mode:multiply;isolation:isolate;}.n{fill:#2f2863;}.o{fill:#fe9f73;}.p{fill:#232323;}.q{fill:#6055b0;}.r{fill:rgba(97,86,177,0.99);}.s{fill:#c97a55;}.t{fill:#a36041;}.u{fill:#bf7451;}.v{fill:#21111d;}.w{fill:#ff628d;}.x{fill:#44243d;}.y{fill:#fdeacf;}.z{fill:#f25d86;}.aa{fill:#212121;}.ab{fill:rgba(71,61,142,0.78);}.ac{fill:#f2f2f2;}</style></defs><g transform="translate(-323.794 -308.147)"><g transform="translate(336.709 625.564)"><g transform="translate(0 0)"><path class="a" d="M317.4,207.5c-2.964-2.371-51.569-96.392-83.577-51.936,0,0-48.012-163.006-113.808-155.3s-10.077,128.626-10.077,128.626S53.63,105.774,66.671,166.827c0,0-71.722-13.041-66.388,38.529Z"/><g transform="translate(11.541 32.734)"><g transform="translate(0 0)"><g transform="translate(0)"><ellipse class="a" cx="13.337" cy="24.895" rx="13.337" ry="24.895" transform="matrix(0.77, -0.638, 0.638, 0.77, 0, 17.022)"/></g></g></g><g transform="translate(13.015 82.211)"><g transform="translate(0 0)"><g transform="translate(0 0)"><ellipse class="a" cx="7.895" cy="14.738" rx="7.895" ry="14.738" transform="translate(0 10.077) rotate(-39.655)"/></g></g></g></g><g transform="translate(85.204 132.311)"><g transform="translate(0.829 0)"><path d="M26.515,8.5a.688.688,0,0,0,.236-1.245C26.176,6.871,12.528-2.129.549.47H.542A.689.689,0,0,0,.834,1.817H.841C12.244-.658,25.85,8.31,25.986,8.4A.688.688,0,0,0,26.515,8.5Z"/></g><g transform="translate(0 4.645)"><g transform="translate(0 0)"><path d="M18.171,4.885A.688.688,0,0,0,18.4,3.638C18.142,3.464,11.838-.616.646.08A.689.689,0,0,0,.731,1.454C11.467.786,17.584,4.747,17.645,4.787A.685.685,0,0,0,18.171,4.885Z"/></g></g></g><g transform="translate(249.935 155.11)"><path d="M24.368,13.353a.688.688,0,0,0,.5-1.167C24.383,11.689,12.953,0,.7,0A.689.689,0,1,0,.688,1.377H.7c11.679,0,23.063,11.648,23.177,11.766A.686.686,0,0,0,24.368,13.353Z"/></g><g transform="translate(248.22 159.105)"><g transform="translate(0 0)"><path d="M16.9,8.419a.688.688,0,0,0,.493-1.168C17.173,7.025,11.878,1.7.792.008A.689.689,0,0,0,.585,1.369c10.6,1.618,15.772,6.791,15.823,6.843A.688.688,0,0,0,16.9,8.419Z"/></g></g></g><g class="b" transform="translate(509.273 496.032)"><path class="c" d="M1185.693,985.618a3.654,3.654,0,0,1-.608-1.919c-.013-.438-.179-10.831,11.372-20.654,5.784-4.918,8.3-10.09,7.1-14.564a9,9,0,0,0-6.649-6.394c-8.1-1.449-11.249,9.183-11.379,9.636a3.643,3.643,0,0,1-7.013-1.972c1.689-6.046,7.975-16.927,19.674-14.835a16.4,16.4,0,0,1,12.4,11.666c1.15,4.257,1.456,12.775-9.41,22.014-8.732,7.425-8.81,14.634-8.808,14.938a3.637,3.637,0,0,1-6.675,2.085Z" transform="translate(-1178.378 -934.652)"/><path class="c" d="M1196.469,1112.1a4.317,4.317,0,1,1,1.214-5.983A4.317,4.317,0,0,1,1196.469,1112.1Z" transform="translate(-1186.033 -1048.61)"/></g><g class="b" transform="translate(796.244 609.666)"><g transform="translate(4.376)"><path class="c" d="M2067.348,1321.971a2.984,2.984,0,0,1-.136-1.641c.069-.352,1.826-8.675,12.83-14.413,5.51-2.873,8.461-6.542,8.31-10.331a7.368,7.368,0,0,0-4.142-6.311c-6.2-2.63-10.646,5.282-10.832,5.62a2.981,2.981,0,0,1-5.238-2.849c2.447-4.517,9.441-12.057,18.4-8.26a13.419,13.419,0,0,1,7.773,11.563c.143,3.606-1.161,10.459-11.511,15.855-8.318,4.337-9.69,10.075-9.745,10.318a2.976,2.976,0,0,1-5.705.45Z" transform="translate(-2067.154 -1282.752)"/></g><path class="c" d="M2058.586,1420.589a3.533,3.533,0,1,1,2.056-4.554A3.533,3.533,0,0,1,2058.586,1420.589Z" transform="translate(-2053.804 -1370.807)"/></g><g class="b" transform="translate(675.673 383.964)"><g transform="translate(2.951 0)"><path class="c" d="M1695.127,616.636a2.017,2.017,0,0,1-.092-1.107c.047-.237,1.231-5.85,8.651-9.718,3.715-1.937,5.7-4.411,5.6-6.966a4.969,4.969,0,0,0-2.793-4.256c-4.182-1.773-7.178,3.562-7.3,3.789a2.01,2.01,0,0,1-3.531-1.921c1.65-3.046,6.366-8.13,12.4-5.57a9.049,9.049,0,0,1,5.241,7.8c.1,2.431-.783,7.052-7.761,10.691-5.609,2.924-6.534,6.793-6.571,6.957a2.007,2.007,0,0,1-3.847.3Z" transform="translate(-1694.997 -590.191)"/></g><path class="c" d="M1689.219,683.131a2.382,2.382,0,1,1,1.387-3.071A2.383,2.383,0,0,1,1689.219,683.131Z" transform="translate(-1685.994 -649.565)"/></g><g class="b" transform="translate(916.841 537.624)"><path class="c" d="M2429.771,1101.348a2.772,2.772,0,0,1-.6-1.409c-.042-.331-.921-8.188,7.114-16.462,4.023-4.142,5.556-8.241,4.317-11.54a6.848,6.848,0,0,0-5.5-4.36c-6.24-.51-7.852,7.767-7.917,8.12a2.771,2.771,0,0,1-5.453-.985c.841-4.7,4.812-13.394,13.821-12.658a12.471,12.471,0,0,1,10.233,7.934c1.179,3.139,2.028,9.567-5.529,17.349-6.074,6.255-5.61,11.718-5.587,11.948a2.766,2.766,0,0,1-4.9,2.062Z" transform="translate(-2421.692 -1062.011)"/><path class="c" d="M2445.341,1198.282a3.284,3.284,0,1,1,.486-4.618A3.283,3.283,0,0,1,2445.341,1198.282Z" transform="translate(-2433.993 -1149.689)"/></g><g class="b" transform="translate(762.301 456.914)"><path class="c" d="M1965.435,846.4a2.27,2.27,0,0,1-.911-.854c-.14-.233-3.384-5.809-.11-14.632,1.639-4.417,1.434-7.982-.578-10.037a5.586,5.586,0,0,0-5.539-1.444c-4.827,1.674-3.3,8.384-3.236,8.669a2.261,2.261,0,0,1-4.395,1.06c-.92-3.786-.819-11.583,6.149-14a10.175,10.175,0,0,1,10.252,2.553c1.914,1.955,4.664,6.474,1.586,14.772-2.474,6.669-.329,10.6-.236,10.759a2.257,2.257,0,0,1-2.981,3.154Z" transform="translate(-1950.258 -814.681)"/><path class="c" d="M2002.922,921.235a2.679,2.679,0,1,1-1.158-3.608A2.679,2.679,0,0,1,2002.922,921.235Z" transform="translate(-1982.255 -883.681)"/></g><g transform="translate(323.794 308.147)"><ellipse class="d" cx="90.614" cy="108.121" rx="90.614" ry="108.121" transform="translate(0 181.006) rotate(-87.168)"/></g><g transform="translate(544.243 435.078)"><ellipse class="e" cx="9.855" cy="8.259" rx="9.855" ry="8.259" transform="translate(0 3.874) rotate(-11.334)"/></g><g transform="translate(357.852 326.265)"><g transform="translate(37.194 0.581)"><g transform="translate(0 6.817)"><rect class="f" width="52.932" height="111.68" transform="translate(0 27.217) rotate(-30.943)"/></g><g transform="translate(24.055 40.217)"><circle class="g" cx="19.39" cy="19.39" r="19.39" transform="translate(0 34.197) rotate(-61.865)"/></g><g transform="translate(2.09 0)"><rect class="h" width="52.932" height="111.68" transform="matrix(0.858, -0.514, 0.514, 0.858, 0, 27.217)"/></g><g transform="translate(27.876 36.771)"><circle class="g" cx="19.39" cy="19.39" r="19.39" transform="matrix(0.567, -0.824, 0.824, 0.567, 0, 31.95)"/></g><g transform="translate(9.859 8.335)"><path class="g" d="M892.422,475.829a24.41,24.41,0,0,1,24.9-.131l-20.579-34.326L860,463.4l20.579,34.325A24.41,24.41,0,0,1,892.422,475.829Z" transform="translate(-859.996 -441.373)"/><g transform="translate(32.642 54.447)"><path class="g" d="M984.468,629.363a24.412,24.412,0,0,1-24.9.131l17.9,29.858,36.742-22.028-17.9-29.858A24.411,24.411,0,0,1,984.468,629.363Z" transform="translate(-959.572 -607.466)"/></g></g><g transform="translate(0 27.217)"><path class="f" d="M829.922,505.792l2.09-6.817,5.317,8.869Z" transform="translate(-829.922 -498.975)"/></g><g transform="translate(95.632 95.785)"><path class="f" d="M1130.935,708.147l-2.09,6.817-7.191-1.253Z" transform="translate(-1121.654 -708.147)"/></g><g transform="translate(57.425 95.785)"><path class="i" d="M1005.1,742.181l2.09-6.817,45.4-27.217-2.09,6.817Z" transform="translate(-1005.101 -708.147)"/></g><g transform="translate(29.684 46.028)"><rect class="j" width="52.932" height="6.947" transform="translate(0 27.217) rotate(-30.944)"/></g><g transform="translate(26.259 73.245)"><path class="k" d="M913.451,639.386l-3.426,4.589,3.381,5.64,3.616-4.27Z" transform="translate(-910.025 -639.386)"/></g></g><g transform="translate(0.424 37.952)"><g transform="translate(1.236 7.211)"><rect class="f" width="54.308" height="114.584" transform="translate(0 45.908) rotate(-57.708)"/></g><g transform="translate(36.837 34.129)"><circle class="g" cx="19.894" cy="19.894" r="19.894" transform="translate(0 37.437) rotate(-70.205)"/></g><g transform="translate(0)"><rect class="h" width="54.308" height="114.584" transform="translate(0 45.908) rotate(-57.708)"/></g><g transform="translate(40.977 30.77)"><circle class="g" cx="19.894" cy="19.894" r="19.894" transform="translate(0 38.536) rotate(-75.589)"/></g><g transform="translate(8.571 8.045)"><path class="g" d="M779.343,588.051a25.047,25.047,0,0,1,22.746-11.622l-34.711-21.937L743.9,591.647l34.711,21.937A25.046,25.046,0,0,1,779.343,588.051Z" transform="translate(-743.896 -554.492)"/><g transform="translate(55.059 34.796)"><path class="g" d="M934.6,686.173A25.046,25.046,0,0,1,911.856,697.8l30.194,19.082,23.482-37.155L935.338,660.64A25.046,25.046,0,0,1,934.6,686.173Z" transform="translate(-911.856 -660.64)"/></g></g><g transform="translate(0 45.908)"><path class="f" d="M718.987,677.208,717.751,670l8.969,5.668Z" transform="translate(-717.751 -669.997)"/></g><g transform="translate(119.944 61.215)"><path class="f" d="M1089.579,716.691l1.236,7.211-7.167,2.174Z" transform="translate(-1083.648 -716.691)"/></g><g transform="translate(96.862 61.215)"><path class="i" d="M1014.47,769.81l-1.236-7.211,29.013-45.908,1.236,7.211Z" transform="translate(-1013.235 -716.691)"/></g><g transform="translate(46.545 29.416)"><rect class="l" width="54.308" height="7.128" transform="matrix(0.534, -0.845, 0.845, 0.534, 0, 45.908)"/></g><g transform="translate(45.527 75.324)"><path class="l" d="M857.653,759.732l-1.018,5.786,5.7,3.6,1.34-5.583Z" transform="translate(-856.635 -759.732)"/></g></g><g class="m" transform="translate(37.017 33.66)"><path class="i" d="M837.511,531.078l81.152,51.287,1.236,7.211-4.365,6.906,16.848-10.1-103-69.524Z" transform="translate(-829.381 -516.857)"/></g><g transform="translate(0 37.368)"><path d="M823.523,629.891a.423.423,0,0,1-.3-.646l20.322-32.156-1.176-6.865-96.344-60.888-28.787,45.55a.424.424,0,1,1-.716-.453l29.24-46.266,97.379,61.542,1.3,7.557-20.5,32.432A.423.423,0,0,1,823.523,629.891Z" transform="translate(-716.458 -528.167)"/></g><g transform="translate(112.277 98.744)"><path d="M1059.33,737.758a.424.424,0,0,1-.3-.646l13.6-21.517a.424.424,0,0,1,.716.453l-13.6,21.517A.425.425,0,0,1,1059.33,737.758Z" transform="translate(-1058.967 -715.399)"/></g><g transform="translate(28.783 51.875)"><path d="M804.625,573.264a.424.424,0,0,1,.1-.841l7.68.665a.431.431,0,0,1,.385.459.424.424,0,0,1-.459.385l-7.68-.665Z" transform="translate(-804.262 -572.421)"/><g transform="translate(0.865 2.362)"><path d="M807.263,580.47a.424.424,0,0,1,.1-.841l7.68.666a.433.433,0,0,1,.386.458.423.423,0,0,1-.459.385l-7.68-.666Z" transform="translate(-806.9 -579.627)"/></g></g><g transform="translate(84.585 28.204)"><path d="M974.854,501.056a.424.424,0,0,1,.1-.841l7.68.666a.423.423,0,1,1-.073.844l-7.68-.666Z" transform="translate(-974.491 -500.213)"/><g transform="translate(0.864 2.363)"><path d="M977.491,508.263a.424.424,0,0,1,.1-.841l7.68.665a.423.423,0,1,1-.073.844l-7.68-.665Z" transform="translate(-977.128 -507.42)"/></g></g><g transform="translate(36.734)"><path d="M933.83,510.96a.424.424,0,0,1-.3-.2L876.32,415.337l-44.9,26.915-1.987,6.482,7.856,13.1a.424.424,0,0,1-.727.436l-8.05-13.427,2.193-7.153.14-.084,45.761-27.435,57.643,96.149a.424.424,0,0,1-.424.637Z" transform="translate(-828.517 -414.174)"/></g></g><g transform="translate(619.515 451.304)"><path class="n" d="M1529.9,800.331s12.443-6.9,41.97,3.441,50.851,43.144,59.053,64.8,17.716,84.315,12.467,90.876-121.054-56.224-121.054-56.224l-7.656-81.314Z" transform="translate(-1514.679 -798.078)"/></g><g transform="translate(521.182 739.751)"><path class="o" d="M1223.935,1681.154l-9.226,18.222,27.8,15.98,6.5-12.819-2.07-11.048Z" transform="translate(-1214.708 -1681.154)"/></g><g transform="translate(495.065 757.59)"><path class="p" d="M1185.039,1758.505h-45.923a7.152,7.152,0,0,1-1-.221c-3.312-1.073-3.209-3.155-2.984-4.06a1.082,1.082,0,0,1,.458-.643l25.563-16.84,8.386,3.772a26.729,26.729,0,0,0,8.428,2.26c5.952.58,15.59.89,17.487-2.872l-.392,14.435S1196.414,1758.614,1185.039,1758.505Z" transform="translate(-1135.036 -1736.741)"/></g><g transform="translate(517.262 590.847)"><path class="q" d="M1252.945,1226.287s-39.041,107.608-50.195,154.522c0,0,19.028,18.7,42.977,16.732l33.464-74.473Z" transform="translate(-1202.75 -1226.287)"/></g><g transform="translate(594.517 649.12)"><path class="o" d="M1485.916,1411.808l17.857,72.782,1.763,31.935-6.5,12.819-25.918-9.719-34.7-115.194Z" transform="translate(-1438.421 -1404.431)"/></g><g transform="translate(563.251 561.381)"><path class="r" d="M1377.1,1136.284s-27.841-2.874-33.682,23.135c-3.294,14.669,15.531,75.255,30.731,119.286,9.435,27.331,20.092,53.844,20.092,53.844s34.55.82,51.548-11.318L1422.83,1218.4s61.88,20.156,84.189,1.784,21-33.463,21-33.463l-44.618-35.76Z" transform="translate(-1343.042 -1136.19)"/></g><g transform="translate(599.1 533.533)"><path class="s" d="M1563.635,1060.768l-44.947-11.17-.553,25.117s-28.683-6.105-48.821-9.279l-16.912,24.518c4.035,1.078,24.628,6.827,30.445,9.362,0,0,56.182,23.621,69.305,18.044S1563.635,1060.768,1563.635,1060.768Z" transform="translate(-1452.402 -1049.598)"/></g><g transform="translate(664.628 558.234)"><g transform="translate(0 0)"><path class="t" d="M1662.095,1133.46a.41.41,0,0,0,.261-.725l-9.387-7.729a.409.409,0,0,0-.52.632l9.387,7.729A.408.408,0,0,0,1662.095,1133.46Z" transform="translate(-1652.299 -1124.913)"/></g></g><g transform="translate(594.517 448.932)"><path class="u" d="M1440.313,790.512s-1.23,1.207-.328,3.626,6.682,14.352,6.682,14.352-8.253,71.135-8.247,82.871,37.9,6.15,37.9,6.15-7.382-87.935-11.811-91.985S1440.313,790.512,1440.313,790.512Z" transform="translate(-1438.421 -790.512)"/></g><g transform="translate(592.62 421.98)"><path class="u" d="M1432.635,730.28l15.217,20.485s4.617,6.789,10.991,3.332l5.451,9.585a8.542,8.542,0,0,0,10.176,3.9,22.416,22.416,0,0,0,6.065-3.2c6.585-4.892,6.484-12.481,5.2-15.358s-11.7-13.453-11.7-13.453l-4.106-5.947-17.437-21.908Z" transform="translate(-1432.635 -707.718)"/></g><g transform="translate(618.828 452.749)"><path class="t" d="M1521.788,801.863s7.8,11.309-5.182,22.588l-4.021-7.07S1522.845,812.543,1521.788,801.863Z" transform="translate(-1512.585 -801.863)"/></g><g transform="translate(608.25 442.74)"><path d="M1488.565,771.85a.342.342,0,0,0-.147-.612c-.067-.011-6.709-1.068-8.094,4.272a.342.342,0,0,0,.662.171c1.227-4.732,7.07-3.811,7.318-3.769A.343.343,0,0,0,1488.565,771.85Z" transform="translate(-1480.314 -771.146)"/></g><g transform="translate(611.363 427.472)"><path d="M1502.266,730.529l-5.006,5.632-.246,1.9s-6.862-10.309-7.2-13.089S1502.266,730.529,1502.266,730.529Z" transform="translate(-1489.81 -724.408)"/></g><g transform="translate(598.718 449.543)"><path d="M1456.485,792.607a.342.342,0,0,0-.178-.615c-.182-.014-4.462-.308-5.063,2.34a.342.342,0,0,0,.667.151c.471-2.074,4.306-1.812,4.345-1.809A.34.34,0,0,0,1456.485,792.607Z" transform="translate(-1451.235 -791.976)"/></g><g transform="translate(611.573 447.023)"><path d="M1490.656,785.893a1.025,1.025,0,1,0,.212-1.434A1.025,1.025,0,0,0,1490.656,785.893Z" transform="translate(-1490.453 -784.256)"/></g><g transform="translate(602.212 452.677)"><path d="M1462.1,803.21a1.025,1.025,0,1,0,.212-1.435A1.025,1.025,0,0,0,1462.1,803.21Z" transform="translate(-1461.896 -801.573)"/></g><g transform="translate(617.148 433.546)"><path class="u" d="M1508.674,752.831a6.153,6.153,0,1,0,1.27-8.608A6.153,6.153,0,0,0,1508.674,752.831Z" transform="translate(-1507.46 -743.009)"/></g><g transform="translate(621.537 435.097)"><path class="t" d="M1525.514,754.442a2.564,2.564,0,0,0,.792-2.98,2.408,2.408,0,0,0-2.456-1.678,2.892,2.892,0,0,0-2.526,2.017,2.776,2.776,0,0,1,.094-1.957,3.859,3.859,0,0,1,2.087-1.77.171.171,0,0,0-.107-.325,4.142,4.142,0,0,0-2.29,1.95,3.323,3.323,0,0,0,.076,2.735l.235.567.092-.607a2.677,2.677,0,0,1,2.367-2.27,2.09,2.09,0,0,1,2.106,1.456,2.2,2.2,0,0,1-.673,2.587c-.01.007-.019.013-.028.021a.171.171,0,0,0,.2.276Z" transform="translate(-1520.849 -747.741)"/></g><g transform="translate(605.155 449.98)"><path class="t" d="M1478.716,799.7a.171.171,0,0,0-.156-.3l-3.425,1.133-3.939-7.118a.171.171,0,0,0-.232-.067.169.169,0,0,0-.067.232l4.076,7.366,3.695-1.223A.166.166,0,0,0,1478.716,799.7Z" transform="translate(-1470.874 -793.33)"/></g><g transform="translate(614.148 455.552)"><path class="t" d="M1498.583,813.7a.277.277,0,0,1-.2-.469,17.281,17.281,0,0,1,3.878-2.819.277.277,0,0,1,.264.487,17.007,17.007,0,0,0-3.744,2.718A.276.276,0,0,1,1498.583,813.7Z" transform="translate(-1498.306 -810.382)"/></g><g transform="translate(592.344 444.191)"><path class="t" d="M1470.715,814.032a8.045,8.045,0,0,1-7.242-4.544l-4.759-9.294c-6.393,3.221-11.6-3.495-11.649-3.564l-15.219-20.488a.277.277,0,0,1,.444-.33l15.217,20.485c.2.268,5.105,6.58,11.194,3.278l.249-.135,5.024,9.813a7.373,7.373,0,0,0,7.258,4.21.262.262,0,0,1,.292.26.276.276,0,0,1-.26.292C1471.077,814.027,1470.894,814.032,1470.715,814.032Z" transform="translate(-1431.791 -775.7)"/></g><g transform="translate(581.709 421.157)"><path d="M1441.459,717.546s-5.476-10.856-11.084-12.253-27.167,4.883-27.884,8.2,2.948,3.969,2.948,3.969-8.4,2.864-5.468,10.022,19.43-1.123,26.044-10.406A24.2,24.2,0,0,1,1441.459,717.546Z" transform="translate(-1399.35 -705.093)"/></g><g transform="translate(639.471 460.958)"><path class="v" d="M1576.111,848.781a.553.553,0,0,1-.17-1.08c11.525-3.726,7.066-19.827,7.02-19.989a.553.553,0,1,1,1.064-.3c.05.172,4.8,17.293-7.743,21.348A.553.553,0,0,1,1576.111,848.781Z" transform="translate(-1575.558 -827.006)"/></g><g transform="translate(651.786 459.449)"><path class="v" d="M1674.8,909.547l-54.7-13.574-.072-.34c-.071-.341-7.145-34.32-6.9-52.137.248-18.14,6.973-20.713,7.259-20.814a.554.554,0,0,1,.372,1.043c-.1.039-6.289,2.6-6.524,19.786-.229,16.74,6.067,47.948,6.807,51.555l52.58,13.048c-.266-5.45-1.949-39.288-3.406-51.5a.554.554,0,0,1,1.1-.131c1.583,13.276,3.43,51.937,3.448,52.326Z" transform="translate(-1613.124 -822.65)"/></g><g transform="translate(710.348 500.503)"><path class="v" d="M1792.324,956.827a.553.553,0,0,1-.43-.9c1.52-1.875,3.843-7.444,3.866-7.5a.554.554,0,0,1,1.023.425c-.1.234-2.409,5.773-4.029,7.773A.553.553,0,0,1,1792.324,956.827Z" transform="translate(-1791.771 -948.083)"/></g><g transform="translate(655.588 515.024)"><path class="v" d="M1681.38,1011.333a.554.554,0,0,1-.291-.083c-9.914-6.15-55.486-17.437-55.945-17.551a.553.553,0,0,1,.265-1.075c1.882.464,46.2,11.443,56.264,17.685a.554.554,0,0,1-.292,1.024Z" transform="translate(-1624.722 -992.608)"/></g><g transform="translate(562.928 562.957)"><path class="v" d="M1393.708,1336.345h-.128l-.37,0-.139-.341c-14.447-35.224-56.451-156.811-50.426-175.378a30.381,30.381,0,0,1,18.633-19.59.554.554,0,0,1,.3,1.065,29.25,29.25,0,0,0-17.884,18.867c-5.927,18.263,35.716,138.7,50.256,174.272,2.9-.011,22.2-.251,36.116-4.5a.553.553,0,1,1,.323,1.058C1415.839,1336.24,1395.521,1336.345,1393.708,1336.345Z" transform="translate(-1342.058 -1141.013)"/></g><g transform="translate(640.748 633.659)"><path class="v" d="M1588.552,1395.149a.554.554,0,0,1-.54-.432l-8.547-37.871a.554.554,0,0,1,1.08-.243l8.547,37.871a.554.554,0,0,1-.418.662A.547.547,0,0,1,1588.552,1395.149Z" transform="translate(-1579.452 -1356.171)"/></g><g transform="translate(582.163 511.442)"><g transform="translate(0.808 6.666)"><path class="w" d="M1416.083,1002.1H1403.2l3.226,37.994h19.535l2.882-37.994Z" transform="translate(-1403.199 -1002.1)"/></g><g transform="translate(2.231)"><path class="v" d="M1428.354,981.766h-18.833a1.991,1.991,0,0,0-1.983,2h22.8A1.991,1.991,0,0,0,1428.354,981.766Z" transform="translate(-1407.539 -981.766)"/></g><g transform="translate(0 2)"><path class="x" d="M1426.9,988.891a1.285,1.285,0,0,0-1.254-1.025h-22.567a1.284,1.284,0,0,0-1.254,1.025l-1.064,5.08a1.29,1.29,0,0,0,1.254,1.56h24.7a1.29,1.29,0,0,0,1.254-1.56Z" transform="translate(-1400.734 -987.866)"/></g><g transform="translate(1.439 18.33)"><path class="y" d="M1405.124,1037.684l.835,15.444h22.711l.835-15.444h-24.382Z" transform="translate(-1405.124 -1037.684)"/></g><g transform="translate(1.221 18.319)"><path class="v" d="M1428.224,1053.322h-22.918l-.847-15.651.436-.024.824,15.238h22.5Z" transform="translate(-1404.459 -1037.648)"/></g><g transform="translate(19.488 10.344)"><g transform="translate(0 0)"><rect class="v" width="4.446" height="0.437" transform="translate(0 3.869) rotate(-60.475)"/></g><g transform="translate(0.368 2.682)"><rect class="v" width="3.942" height="0.437" transform="matrix(0.503, -0.864, 0.864, 0.503, 0, 3.406)"/></g></g></g><g transform="translate(642.97 643.495)"><path class="v" d="M1620.167,1394.395c-15.109-1.972-33.315-7.179-33.535-7.243a.553.553,0,0,1,.306-1.064c.266.076,26.749,7.648,42.184,7.937a.554.554,0,1,1-.021,1.107A82.392,82.392,0,0,1,1620.167,1394.395Z" transform="translate(-1586.23 -1386.066)"/></g><g transform="translate(579.396 547.537)"><path class="u" d="M1408.7,1118.718h0c1.808-.544,13.2.8,17.378,1.566l.023-.027,21.028,4.349.5-27.206s-24.784-4.714-28.442-5.085-16.35,2.468-20.4,5.285c-7.342,5.111-3.155,5.867-3.155,5.867-7.129,6.023-.191,6.424-.191,6.424-6.86,4.837-.4,6.478-.4,6.478-3.415,2.974-2.872,4.594-1.827,5.427a3.1,3.1,0,0,0,2.737.526c2.2-.592,7.73-2.094,12.741-3.6Z" transform="translate(-1392.292 -1092.281)"/><g transform="translate(2.314 20.084)"><path class="u" d="M1407.985,1153.548a.442.442,0,0,1,.11.866,54.371,54.371,0,0,0-8.095,3.526.442.442,0,1,1-.418-.779,54.23,54.23,0,0,1,8.266-3.594A.442.442,0,0,1,1407.985,1153.548Z" transform="translate(-1399.35 -1153.547)"/></g><g transform="translate(2.714 14.488)"><path class="u" d="M1408.973,1136.477a.442.442,0,0,1,.054.878,27.45,27.45,0,0,0-7.8,2.63.442.442,0,1,1-.423-.776,27.831,27.831,0,0,1,8.09-2.728A.493.493,0,0,1,1408.973,1136.477Z" transform="translate(-1400.572 -1136.477)"/></g><g transform="translate(2.905 8.077)"><path class="u" d="M1408.574,1116.922a.442.442,0,0,1,.067.876,23.6,23.6,0,0,0-6.816,2.61.442.442,0,0,1-.455-.758,24.126,24.126,0,0,1,7.111-2.721A.439.439,0,0,1,1408.574,1116.922Z" transform="translate(-1401.155 -1116.921)"/></g></g><g transform="translate(574.099 592.024)"><path class="v" d="M1376.691,1243.087a.554.554,0,0,1-.554-.545,32.416,32.416,0,0,1,2.888-13.789.554.554,0,0,1,.99.495,31.907,31.907,0,0,0-2.771,13.277.554.554,0,0,1-.545.562Z" transform="translate(-1376.133 -1228.447)"/></g><g transform="translate(576.899 597.172)"><path class="v" d="M1385.261,1257.5a.553.553,0,0,1-.551-.511c-.375-4.866,2.378-12.114,2.5-12.421a.553.553,0,0,1,1.033.4c-.027.073-2.78,7.323-2.425,11.939a.554.554,0,0,1-.51.594Z" transform="translate(-1384.675 -1244.209)"/></g><g transform="translate(516.661 599.064)"><path class="v" d="M1242.279,1415.012c-26.574,0-41.039-16.793-41.186-16.967l-.178-.211.062-.269c9.088-39.6,46.678-144.741,47.057-145.8a.553.553,0,1,1,1.042.373c-.377,1.054-37.771,105.65-46.956,145.4,1.775,1.953,16.541,17.241,42.354,16.333a.538.538,0,0,1,.573.534.554.554,0,0,1-.534.573C1243.76,1415,1243.013,1415.012,1242.279,1415.012Z" transform="translate(-1200.915 -1251.397)"/></g><g transform="translate(601.216 757.59)"><path class="p" d="M1508.893,1758.505h-45.951a7.131,7.131,0,0,1-1-.221c-2.947-.954-3.193-2.708-3.054-3.721a1.573,1.573,0,0,1,.7-1.1l25.388-16.725,8.385,3.772a26.733,26.733,0,0,0,8.428,2.26c5.951.58,15.59.89,17.487-2.872l-.392,14.435S1520.267,1758.614,1508.893,1758.505Z" transform="translate(-1458.857 -1736.741)"/></g><g transform="translate(662.811 650.085)"><path class="z" d="M1894.39,1547.074H1890.7l-8.638-123.66h3.685Z" transform="translate(-1804.931 -1418.179)"/><path class="z" d="M1662.075,1547.074h3.685l8.638-123.66h-3.685Z" transform="translate(-1657.054 -1418.179)"/><path class="aa" d="M1737.848,1414.222h-87.7a3.39,3.39,0,0,1-3.39-3.389h0a3.39,3.39,0,0,1,3.39-3.39h87.7a3.39,3.39,0,0,1,3.39,3.39h0A3.389,3.389,0,0,1,1737.848,1414.222Z" transform="translate(-1646.758 -1407.443)"/><rect class="w" width="68.793" height="3.51" transform="translate(12.541 48.876)"/></g><g transform="translate(717.89 721.019)"><g transform="translate(0 0)"><path class="ab" d="M0,91.688c3.721-3.721,32.745-55.815,52.838-29.024,0,0,32.838-75.536,74.42-60.745,0,0,26.512,15.349,7.256,53.582,0,0,64.187-4.093,63.35,36.187Z"/></g><g transform="translate(95.602 6.005)"><path class="ab" d="M.433,10.179a.432.432,0,0,1-.268-.772C.594,9.069,10.786,1.121,20.1,0a.432.432,0,0,1,.1.858C11.132,1.95.8,10,.7,10.086A.429.429,0,0,1,.433,10.179Z"/></g><g transform="translate(95.602 12.145)"><path class="ab" d="M.433,9.051A.432.432,0,0,1,.16,8.283,51.622,51.622,0,0,1,16.125.017a.432.432,0,1,1,.242.83A50.7,50.7,0,0,0,.7,8.954.431.431,0,0,1,.433,9.051Z"/></g></g><g transform="translate(913.797 657.653)"><ellipse class="ac" cx="21.033" cy="11.268" rx="21.033" ry="11.268" transform="translate(0 32.387) rotate(-50.345)"/></g><g transform="translate(930.583 699.334)"><ellipse class="ac" cx="12.451" cy="6.67" rx="12.451" ry="6.67" transform="matrix(0.638, -0.77, 0.77, 0.638, 0, 19.173)"/></g><g transform="translate(333.258 510.305)"><path class="c" d="M706.044,1009.983c-9.317-.534-31.159-1.465-50.147.136a13.32,13.32,0,0,1-14.461-13.494c.072-3.226,1.229-6.979,4.223-11.231,11.529-16.373,31.569-.737,31.376,7.575,0,0,4.051-12.515,16.356-10.324s7.954,20.392,7.954,20.392,3.971-.839,6.723,1.04A3.242,3.242,0,0,1,706.044,1009.983Z" transform="translate(-641.432 -978.22)"/></g><g transform="translate(804.763 512.138)"><path class="c" d="M2085.132,1015.379c16.584-.192,57.009-.079,81.082,4.93a3.865,3.865,0,0,0,3.9-6.089c-1.548-2.042-4.4-3.847-9.581-4.378,0,0,6.1-22.256-15.572-25.638-22.271-3.474-23.947,20.206-23.947,20.206s-12.377-13.184-19.613,1.833c0,0-13.481-6.852-20.187.3A5.259,5.259,0,0,0,2085.132,1015.379Z" transform="translate(-2079.791 -983.857)"/></g></g></svg>