<svg xmlns="http://www.w3.org/2000/svg" xmlns:xlink="http://www.w3.org/1999/xlink" width="496" height="404.541" viewBox="0 0 496 404.541"><defs><style>.a,.ac,.af,.ak,.l,.m,.p,.r,.y{fill:none;}.b{fill:#1d58a0;}.c{fill:#d6e3f8;}.d{fill:#3c76d6;}.e{fill:#edebff;}.f{fill:#c7bffe;}.g{fill:#ff628d;}.h{fill:#f94174;}.i{fill:rgba(255,98,141,0.8);}.j{fill:#473d8e;}.k{fill:#f5f8fc;}.l{stroke:#d6e3f8;}.ac,.af,.ak,.l,.m,.p,.r,.y{stroke-linecap:round;stroke-miterlimit:10;}.ak,.l,.m,.p,.r,.y{stroke-linejoin:round;}.l,.m,.p,.r{stroke-width:4px;}.m{stroke:#edebff;}.n{fill:#fff;}.o{fill:#e2defc;}.p{stroke:#e2defc;}.q{clip-path:url(#a);}.r{stroke:#e8f0fc;}.s{clip-path:url(#b);}.t{fill:#bad0f7;}.u{fill:#111;}.v{fill:#d7cee0;}.w{fill:#eee9f2;}.x{fill:#433a8c;}.y{stroke:#000;}.z{fill:#c98b66;}.aa{fill:#a16247;}.ab{fill:#d4926c;}.ac{stroke:#aa674b;}.ad{fill:#995d43;}.ae{fill:#b2a7fe;}.af{stroke:#915840;}.ag{fill:#d9d4fb;}.ah{fill:#beb5f9;}.ai{fill:#e8f0fc;}.aj{fill:#fc2b45;}.ak{stroke:#473d8e;}</style><clipPath id="a"><path class="a" d="M0,0H127.01V25.9H0Z"/></clipPath><clipPath id="b"><path class="a" d="M0,0H155.439V112.424H0Z"/></clipPath></defs><g transform="translate(0 -1)"><path class="b" d="M0,76.3H44.388V0H0Z" transform="translate(446.671 108.856)"/><path class="c" d="M0,60.789H42.276V0H0Z" transform="translate(436.805 124.362)"/><path class="d" d="M0,76.3H3.523V0H0Z" transform="translate(487.537 108.856)"/><path class="e" d="M0,73.477H13.387V0H0Z" transform="translate(479.082 111.675)"/><path class="f" d="M44.389,0H23.956L0,50.752V73.477H44.389Z" transform="translate(434.693 111.675)"/><path class="g" d="M0,11.983H6.342V0H0Z" transform="translate(482.604 122.953)"/><path class="g" d="M0,76.3H44.389V0H0Z" transform="translate(430.182 108.856)"/><path class="c" d="M0,60.789H42.275V0H0Z" transform="translate(420.318 124.362)"/><path class="h" d="M0,76.3H3.524V0H0Z" transform="translate(471.047 108.856)"/><path class="e" d="M0,73.477H13.388V0H0Z" transform="translate(462.593 111.675)"/><path class="f" d="M44.388,0H23.956L0,50.752V73.477H44.388Z" transform="translate(418.205 111.675)"/><path class="i" d="M0,11.983H6.342V0H0Z" transform="translate(466.115 122.953)"/><path class="j" d="M0,76.3H44.389V0H0Z" transform="translate(409.848 108.856)"/><path class="i" d="M0,60.789H42.276V0H0Z" transform="translate(403.507 124.362)"/><path class="d" d="M0,76.3H3.524V0H0Z" transform="translate(454.237 108.856)"/><path class="j" d="M0,76.3H3.524V0H0Z" transform="translate(450.715 108.856)"/><path class="e" d="M0,73.477H13.387V0H0Z" transform="translate(445.782 111.675)"/><path class="f" d="M44.389,0H23.957L0,50.752V73.477H44.389Z" transform="translate(401.394 111.675)"/><path class="j" d="M0,11.983H6.342V0H0Z" transform="translate(449.306 122.953)"/><g transform="translate(0 1)"><path class="k" d="M139.07,110.94H11.687A11.687,11.687,0,0,1,0,99.252V11.687A11.687,11.687,0,0,1,11.687,0H139.07a11.688,11.688,0,0,1,11.687,11.687V99.252A11.688,11.688,0,0,1,139.07,110.94" transform="translate(14.75 23.794)"/><path class="l" d="M0,.5H46.511" transform="translate(66.874 114.727)"/><path class="m" d="M0,.5H115.123" transform="translate(32.568 92.962)"/><path class="m" d="M0,.5H115.123" transform="translate(32.568 69.87)"/><path class="e" d="M150.757,25.9V11.687A11.688,11.688,0,0,0,139.069,0H11.687A11.686,11.686,0,0,0,0,11.687V25.9Z" transform="translate(14.751 23.794)"/><path class="n" d="M7.819,3.909A3.909,3.909,0,1,0,3.908,7.819,3.91,3.91,0,0,0,7.819,3.909" transform="translate(147.691 32.835)"/><path class="e" d="M104.492,67.811h-92.8A11.686,11.686,0,0,1,0,56.123L.183,11.687A11.688,11.688,0,0,1,11.871,0h92.806a11.688,11.688,0,0,1,11.687,11.687l-.185,44.436a11.687,11.687,0,0,1-11.687,11.687" transform="translate(336.113 34.264)"/><path class="o" d="M116.181,25.9V11.687A11.689,11.689,0,0,0,104.493,0H11.687A11.688,11.688,0,0,0,0,11.687V25.9Z" transform="translate(336.296 34.263)"/><path class="p" d="M0,.5H53.607" transform="translate(369.598 80.44)"/><path class="k" d="M115.323,67.811H11.687A11.688,11.688,0,0,1,0,56.123L.185,11.687A11.687,11.687,0,0,1,11.872,0H115.507a11.687,11.687,0,0,1,11.687,11.687l-.185,44.436a11.687,11.687,0,0,1-11.687,11.687" transform="translate(286.881 0)"/><g transform="translate(287.066)"><path class="a" d="M0,0H127.01V25.9H0Z" transform="translate(0)"/><g class="q" transform="translate(0)"><path class="e" d="M127.01,25.9V11.687A11.688,11.688,0,0,0,115.323,0H11.687A11.687,11.687,0,0,0,0,11.687V25.9Z" transform="translate(0 0)"/></g></g><path class="o" d="M7.819,3.909A3.909,3.909,0,1,0,3.908,7.819,3.91,3.91,0,0,0,7.819,3.909" transform="translate(395.592 9.042)"/><path class="r" d="M0,.5H57.424" transform="translate(323.875 46.176)"/><path class="k" d="M115.323,67.811H11.687A11.688,11.688,0,0,1,0,56.123L.183,11.687A11.689,11.689,0,0,1,11.871,0H115.507a11.688,11.688,0,0,1,11.687,11.687l-.185,44.436a11.688,11.688,0,0,1-11.687,11.687" transform="translate(295.088 250.374)"/><path class="e" d="M127.01,25.9V11.687A11.688,11.688,0,0,0,115.323,0H11.687A11.687,11.687,0,0,0,0,11.687V25.9Z" transform="translate(295.273 250.374)"/><path class="o" d="M7.819,3.909A3.909,3.909,0,1,0,3.909,7.819,3.91,3.91,0,0,0,7.819,3.909" transform="translate(400.603 259.415)"/><path class="d" d="M7.818,3.909A3.909,3.909,0,1,0,3.908,7.819,3.909,3.909,0,0,0,7.818,3.909" transform="translate(308.951 292.115)"/><path class="j" d="M7.819,3.909A3.909,3.909,0,1,0,3.908,7.819,3.91,3.91,0,0,0,7.819,3.909" transform="translate(331.863 292.115)"/><path class="d" d="M7.819,3.909A3.909,3.909,0,1,0,3.909,7.819,3.91,3.91,0,0,0,7.819,3.909" transform="translate(354.776 292.115)"/><path class="j" d="M7.818,3.909A3.909,3.909,0,1,0,3.908,7.819,3.909,3.909,0,0,0,7.818,3.909" transform="translate(377.69 292.115)"/><path class="f" d="M7.819,3.909A3.909,3.909,0,1,0,3.909,7.819,3.91,3.91,0,0,0,7.819,3.909" transform="translate(400.603 292.115)"/><path class="f" d="M204.731,152.339h-88.72L94.035,17.08A20.711,20.711,0,0,0,73.645,0H0L29.685,180.207H229.416c0-15.391-11.052-27.868-24.685-27.868" transform="translate(43.945 111.909)"/><g transform="translate(117.921 292.116)"><path class="a" d="M0,0H155.439V112.424H0Z" transform="translate(0 0)"/><g class="s" transform="translate(0 0)"><path class="o" d="M100.572,0H0V112.424H15.037V10.311H90.262V112.424h10.31V10.311H140.4V112.424h15.037V0Z"/></g></g><path class="o" d="M148.341,152.339H58.77L36.8,17.08A20.711,20.711,0,0,0,16.4,0H0L29.9,180.207H173.026c0-15.391-11.052-27.868-24.685-27.868" transform="translate(39.571 111.909)"/><path class="a" d="M0,404.54H496V0H0Z"/><g transform="translate(0 15.633)"><path class="o" d="M0,112.424H10.31V0H0Z" transform="translate(67.78 276.482)"/><path class="e" d="M169.822,180.207H40L10.312,0H0L29.42,178.6v114.03h9.142V190.518H169.822V292.631h9.141V180.207Z" transform="translate(33.634 96.276)"/><path class="f" d="M33.919,0,0,210.734H13.87L48.516,0Z" transform="translate(331.316 178.172)"/><path class="f" d="M10.311,0H0L34.648,210.734H44.958Z" transform="translate(447.484 178.172)"/><path class="e" d="M9.869,0H0L34.648,210.734h9.141Z" transform="translate(452.211 178.172)"/><path class="o" d="M0,0,4.909,29.853l8.411-8.413L9.869,0Z" transform="translate(452.211 178.172)"/><path class="c" d="M0,0V2.182H2.488A13.309,13.309,0,0,1,15.8,15.489V42.078h8.323V20.243A20.243,20.243,0,0,0,3.876,0Z" transform="translate(154.015)"/><path class="t" d="M3.311,0H0C12.44,0,15.64,7.118,15.64,15.789v24.1h6.893V19.224A19.223,19.223,0,0,0,3.311,0" transform="translate(154.171 2.19)"/><path class="u" d="M34.256,22.55c5.94,7.113,16.026,11.873,22.976,15.231,8.584,4.147,7.092,11.09,7.092,11.09H1.253C-2.064,35.631,2.441,31.078.825,16.391-1.771-2.692,25.12-7.5,29.769,14.9a29.684,29.684,0,0,0,4.487,7.654" transform="translate(316.415 340.035)"/><path class="j" d="M.021,32.851A31.707,31.707,0,0,1,33.822.072l81.769,5.466c14.614.949,23.334,11.407,26.556,25.691l31.81,140.956H116.816L83.694,63.416H31.707A31.707,31.707,0,0,1,.021,32.851" transform="translate(173.76 184.929)"/><path class="u" d="M41.728,19.9A21.823,21.823,0,1,1,12.873,8.957L32.772,0Z" transform="translate(102.165 40.614)"/><path class="v" d="M100.065,65.807,49.569,57.9,31.942,10.156C28.833,1.666,20.176-1.833,11.916.927,3.34,3.791-2.238,13.853.87,22.344c.111.3.25.644.375.935L25.252,76.354l.514,1.172A13.331,13.331,0,0,0,38.148,85.5h62.481c6.067-.083,9.364-2.854,9.282-8.921a10.989,10.989,0,0,0-9.847-10.777" transform="translate(151.858 82.87)"/><path class="w" d="M14.87,5.329C6.282,7.9-.019,15.239,0,26.358A178.912,178.912,0,0,0,14.366,95.772c3.831,8.881,50.323,5.193,53.376-.941,12.776-25.669,14.145-53.97,10.9-78.109-.7-5.189-3.222-12.391-12.278-13.961C45.357-.881,38.531-1.747,14.87,5.329" transform="translate(104.773 77.541)"/><path class="v" d="M0,10.871,6.056,62.458h39.85L4.431,0Z" transform="translate(111.739 104.475)"/><path class="u" d="M36.75,20.96c5.317,7.591,13.688,11.873,20.639,15.231,8.584,4.147,7.092,11.09,7.092,11.09H1.409c-3.318-13.241.018-19.54,1.91-32.481C5.81-4.339,28.212-5,32.263,13.306c0,0-.83.063,4.487,7.654" transform="translate(200.173 341.625)"/><path class="x" d="M152.446,24.957,82.264,20.351C72.3,7.292,56.494-1.8,40.069.3,14.61,3.552-2.677,32.423.342,56.062S25.541,89.157,51,85.907c.408-.053.809-.116,1.212-.174l.047.174,65.426-.355L102.378,194.088h63.8l10.11-137.6c1.263-19.656-9.191-30.581-23.842-31.533" transform="translate(100.809 163.027)"/><path class="y" d="M0,12.857,11.093,0" transform="translate(218.493 235.722)"/><path class="y" d="M0,.5H58.443" transform="translate(283.091 332.036)"/><path class="y" d="M0,.5H61.551" transform="translate(206.654 332.036)"/><path class="w" d="M13.883,41.9h0A15.173,15.173,0,0,1,.056,25.5L4.142,0,31.317,1.7,29.633,27.84c-.713,8.348-7.4,14.776-15.75,14.065" transform="translate(137.756 57.521)"/><path class="y" d="M.643,0,0,15.383C11.836,32.842,12.344,67.431,2.62,97.555" transform="translate(155.667 79.904)"/><path class="z" d="M16.486,30.531C9.887,30.531-.6,23.485.027,16.184L1.327,0l27.74,2.257-1.3,16.182c-.623,7.3-2.888,12.092-11.281,12.092" transform="translate(140.614 49.405)"/><path class="aa" d="M15.787,30.531C7.633,29.261-.59,16.68.033,9.38L.627,0,28.368,2.257l-1.3,16.184c-.623,7.3-2.987,13.383-11.28,12.091" transform="translate(142.18 44.435)"/><path class="ab" d="M1.682,32.351l9.14,22.889a19.439,19.439,0,0,0,37.471-8.091L47.174,22.528A23.6,23.6,0,0,0,.025,24.671a24.161,24.161,0,0,0,1.657,7.68" transform="translate(131.885 3.113)"/><path d="M8.839,1.626A25.064,25.064,0,0,1,0,0,9.881,9.881,0,0,0,8.839,5.467,9.881,9.881,0,0,0,17.678,0,25.1,25.1,0,0,1,8.839,1.626" transform="translate(159.026 53.363)"/><path class="n" d="M13.6,0A24.858,24.858,0,0,1,6.8.956,24.854,24.854,0,0,1,0,0,9.814,9.814,0,0,0,6.8,2.747,9.813,9.813,0,0,0,13.6,0" transform="translate(161.067 54.032)"/><path class="u" d="M5.187,43.723A27.613,27.613,0,0,1,50.041,11.506c-3.8,16.306-27.295,15.524-36.824,15.524-.834,0,.808,12.517,0,12.677-3.117.616-5.083,4.067-8.03,4.015" transform="translate(127.397 2.027)"/><path class="u" d="M11,0s2.321,23.14-8.69,25.807C-.951,7.673.195,2.366.195,2.366Z" transform="translate(132.835 26.529)"/><path class="z" d="M10.565,5.38l1.644,8.251a3.1,3.1,0,0,1-3.34,3.691C4.407,16.9.989,14.193.227,10.369-.752,5.453,1.525.858,5.312.1s4.761,2.814,5.252,5.277" transform="translate(129.911 31.947)"/><path class="u" d="M3.962,1.981A1.981,1.981,0,1,1,1.981,0,1.981,1.981,0,0,1,3.962,1.981" transform="translate(174.075 35.507)"/><path class="u" d="M3.962,1.981A1.981,1.981,0,1,1,1.982,0a1.981,1.981,0,0,1,1.98,1.981" transform="translate(155.664 35.404)"/><path d="M.8.123A9.842,9.842,0,0,1,3.76.1,11.536,11.536,0,0,1,5.18.41,12.793,12.793,0,0,1,6.587.864a.324.324,0,0,1,.035.595l-.4.2a4.965,4.965,0,0,1-2.57.291c-.4.034-.785,0-1.177.029s-.785.033-1.2.033H.949A.95.95,0,0,1,.8.123" transform="translate(172.603 31.145)"/><path d="M8.9,1.995,6.846,2c-.681-.008-1.35.078-2.025.1a20.834,20.834,0,0,1-4.163.372L.339,2.437A.379.379,0,0,1,0,2.019a.387.387,0,0,1,.207-.3A13.485,13.485,0,0,1,2.37.833,17.562,17.562,0,0,1,4.59.262,17.7,17.7,0,0,1,9.18.068a.965.965,0,0,1-.075,1.927Z" transform="translate(151.908 31.357)"/><path class="ac" d="M0,.261a12.481,12.481,0,0,0,7.35,0" transform="translate(165.399 47.623)"/><path class="w" d="M9.552,1.493a16.369,16.369,0,0,1,21.7,8.059L53.1,57.209,105.629,65.2c5.467.563,7.943,3.32,8.02,8.951.083,6.066-2.943,10.364-9.01,10.447l-62.007.844a13.232,13.232,0,0,1-11.85-7.016L1.916,24.049c-.139-.264-.3-.58-.423-.854a16.369,16.369,0,0,1,8.06-21.7" transform="translate(106.006 84.104)"/><path class="y" d="M20.693.3C-1.739.461.033.761.033.761" transform="translate(161.655 183.616)"/><path class="ad" d="M34.689,17.175,27.911,8.459c0-.006-.011-.009-.015-.015A3.518,3.518,0,0,0,26.7,7.332L16.83.547a4.271,4.271,0,0,0-6.18,2.5L8.834,2.27A3.954,3.954,0,0,0,3.659,6.154l-.22-.007a3.667,3.667,0,0,0-2.082,6.508,3.605,3.605,0,0,0,3,.753l6.211-.441c.953,1.968,2.25,4.612,3,5.973,1.28,2.329,3.222,2.389,3.967,2.09,1.154-.463.886-1.388.739-2.69l-1.138-4.011c1.383,1.809,3.085,4.006,4.075,5.175,1.868,2.2,3.949,1.848,4.677,1.367,1.128-.742.643-1.67.2-3.025l-1.2-2.32c1.745,1.572,3.782,3.38,4.977,4.356,2.4,1.961,4.53,1.176,5.206.527,1.045-1.005.351-1.89-.378-3.234" transform="translate(256.226 146.99)"/><path class="z" d="M52.847,17.538,45.474,8.131c-.077-.1-.174-.172-.258-.263a3.56,3.56,0,0,0-1.273-1.019,4.272,4.272,0,0,0-.54-.233L29.883.909c-.12-.058-.233-.122-.36-.175a7.187,7.187,0,0,0-3.9-.678L7.838,3.323A9.13,9.13,0,0,0,0,12.359H0c0,5.042,5.266,9.311,10.31,9.311h.047l-.047.077h24.44c6.331,0,2.352-5.854-2.579-6.622-2.121-.331-5.024-.617-7.827-.845,2.027-1.62,3.912-3.226,5.347-4.513l10.694,3.583c1.96,1.828,5.871,5.452,7.635,6.892,2.4,1.961,4.53,1.176,5.206.527,1.045-1.005.351-1.89-.378-3.234" transform="translate(243.556 146.627)"/><path class="ae" d="M0,6.363H72.9V0H0Z" transform="translate(253.034 161.753)"/><path class="c" d="M39.632,12.726A2,2,0,0,0,41.18,9.446a26.658,26.658,0,0,0-40.713,0,2.005,2.005,0,0,0,1.55,3.281Z" transform="translate(221.201 155.39)"/><path class="z" d="M59.044,17.545,51.67,8.138c-.078-.1-.175-.172-.258-.263a3.574,3.574,0,0,0-1.274-1.019,4.331,4.331,0,0,0-.539-.233L35.855.823C35.807.8,35.768.766,35.719.741a6.53,6.53,0,0,0-3.9-.678L7.838,3.33A9.13,9.13,0,0,0,0,12.367H0c0,5.042,5.266,9.311,10.31,9.311h8.275c2.593,0,8.671-2.77,13.827-5.372.58,1.169,1.141,2.271,1.542,3,1.28,2.329,3.222,2.389,3.968,2.09,1.152-.463.886-1.388.739-2.69l-1.011-3.555c1.311,1.71,2.82,3.648,3.728,4.719,1.866,2.2,3.949,1.848,4.677,1.367,1.128-.742.643-1.67.2-3.025l-.079-.152c.977.861,1.89,1.651,2.547,2.188,2.4,1.961,4.53,1.176,5.206.527a1.914,1.914,0,0,0,.361-.475c2.37,1.882,4.46,1.116,5.127.475,1.045-1.005.352-1.89-.376-3.234" transform="translate(198.024 146.62)"/><path class="af" d="M12.513,13.646,6.2,4.061,0,0" transform="translate(239.975 151.765)"/><path class="af" d="M14.087,14.506,8.569,3.762,0,0" transform="translate(230.195 150.329)"/><path class="af" d="M12.243,8.666,10.156,2.53A3.787,3.787,0,0,0,6.393,0L0,.327" transform="translate(223.936 153.764)"/><path class="f" d="M2.423,104.767H143.768a3.221,3.221,0,0,0,3.1-2.751L159.585,2.751A2.37,2.37,0,0,0,157.184,0H15.839a3.221,3.221,0,0,0-3.1,2.751L.023,102.015a2.37,2.37,0,0,0,2.4,2.751" transform="translate(227.841 29.172)"/><path class="ag" d="M2.422,104.767H143.767a3.221,3.221,0,0,0,3.1-2.751L159.584,2.751A2.37,2.37,0,0,0,157.183,0H15.839a3.221,3.221,0,0,0-3.1,2.751L.023,102.015a2.369,2.369,0,0,0,2.4,2.751" transform="translate(230.452 29.172)"/><path class="f" d="M120,0H104.768L0,104.767H106.586a3.221,3.221,0,0,0,3.1-2.751L122.4,2.751A2.37,2.37,0,0,0,120,0" transform="translate(267.633 29.172)"/><path class="ah" d="M33.975,75.6H0V14.094L1.026,7.908A9.454,9.454,0,0,1,10.352,0H24.52a9.455,9.455,0,0,1,9.455,9.455Z" transform="translate(289.625 86.025)"/><path class="o" d="M33.975,75.6H0V8.185A8.184,8.184,0,0,1,8.185,0H25.791a8.186,8.186,0,0,1,8.185,8.185Z" transform="translate(291.963 86.025)"/><path class="f" d="M0,2.779H71.166V0H0Z" transform="translate(273.366 165.41)"/><path class="o" d="M71.165,5.371A120.558,120.558,0,0,0,0,5.371Z" transform="translate(273.367 160.04)"/><path class="f" d="M33.919,0,0,210.734H13.87L48.517,0Z" transform="translate(1.627 178.172)"/><path class="f" d="M0,0,34.649,210.734H44.959L10.311,0Z" transform="translate(117.795 178.172)"/><path class="ai" d="M0,0,34.649,210.734h9.142L9.87,0Z" transform="translate(122.522 178.172)"/><path class="c" d="M0,0,4.909,29.853l8.411-8.413L9.87,0Z" transform="translate(122.522 178.172)"/><path class="e" d="M0,10.31H496V0H0Z" transform="translate(0 168.191)"/><path class="f" d="M0,10.31H162.754V0H0Z" transform="translate(0 168.191)"/><path class="aj" d="M6.11,3.055A3.055,3.055,0,1,0,3.055,6.11,3.055,3.055,0,0,0,6.11,3.055" transform="translate(261.675 2.786)"/><path class="i" d="M6.11,3.055A3.055,3.055,0,1,0,3.055,6.11,3.055,3.055,0,0,0,6.11,3.055" transform="translate(69.14 67.533)"/><path class="j" d="M6.11,3.055A3.055,3.055,0,1,0,3.055,6.11,3.055,3.055,0,0,0,6.11,3.055" transform="translate(44.571 278.582)"/><path class="ak" d="M7.58,3.79A3.79,3.79,0,1,0,3.79,7.58,3.79,3.79,0,0,0,7.58,3.79Z" transform="translate(59.263 264.856)"/><path class="ak" d="M7.58,3.79A3.79,3.79,0,1,0,3.79,7.58,3.79,3.79,0,0,0,7.58,3.79Z" transform="translate(448.586 206.29)"/><path class="f" d="M6.828,0,0,53.3H38.613L45.44,0Z" transform="translate(385.245 114.82)"/><path class="e" d="M6.827,0,0,53.3H38.612L45.439,0Z" transform="translate(387.519 114.82)"/><path class="f" d="M4.326,0,0,33.776H11.017L5.984,0Z" transform="translate(408.219 134.341)"/><path class="o" d="M3.685,0,8,33.686H4.314L0,0Z" transform="translate(412.545 134.43)"/><path class="f" d="M6.827,0,0,26.649H62.1L68.93,0Z" transform="translate(69.14 141.468)"/><path class="o" d="M62.1,0,68.93,26.649H6.827L0,0Z" transform="translate(75.966 141.468)"/><path class="j" d="M20.307,10.153A10.153,10.153,0,1,0,10.153,20.307,10.153,10.153,0,0,0,20.307,10.153" transform="translate(373.325 137.064)"/><path class="g" d="M21.114,0H1.024A1.024,1.024,0,0,0,.009,1.159L.582,5.443a1.009,1.009,0,0,0,.761.84L2.988,18.6H19.152L20.8,6.283a1.011,1.011,0,0,0,.76-.84l.572-4.285A1.023,1.023,0,0,0,21.114,0" transform="translate(372.409 149.703)"/></g></g></g></svg>